<svg width="103" height="103" viewBox="0 0 103 103" fill="none" xmlns="http://www.w3.org/2000/svg">
<rect x="0.84375" y="0.90918" width="102" height="102" rx="20" fill="#F23936" fill-opacity="0.2"/>
<path d="M35.2188 48.4092C35.2188 42.6345 35.2188 39.7471 37.0127 37.9532C38.8067 36.1592 41.694 36.1592 47.4688 36.1592H52.7188C58.4935 36.1592 61.3808 36.1592 63.1748 37.9532C64.9688 39.7471 64.9688 42.6345 64.9688 48.4092V57.1592C64.9688 62.9339 64.9688 65.8212 63.1748 67.6152C61.3808 69.4092 58.4935 69.4092 52.7188 69.4092H47.4687C41.694 69.4092 38.8067 69.4092 37.0127 67.6152C35.2188 65.8212 35.2188 62.9339 35.2188 57.1592V48.4092Z" fill="#F23936" fill-opacity="0.15"/>
<path d="M62.0436 56.816C62.627 56.2326 62.9187 55.9409 63.2221 55.7657C64.0455 55.2903 65.0601 55.2903 65.8835 55.7657C66.1869 55.9409 66.4786 56.2326 67.062 56.816C67.6453 57.3993 67.937 57.691 68.1122 57.9944C68.5876 58.8179 68.5876 59.8324 68.1122 60.6558C67.937 60.9592 67.6453 61.2509 67.062 61.8343L61.2732 67.623C60.1168 68.7795 58.3714 68.8265 56.8273 69.1567C55.6198 69.4149 55.0161 69.544 54.6751 69.2029C54.334 68.8618 54.4631 68.2581 54.7212 67.0507C55.0514 65.5066 55.0984 63.7612 56.2549 62.6047L62.0436 56.816Z" fill="white"/>
<path d="M49.2188 69.4092H47.4687C41.694 69.4092 38.8067 69.4092 37.0127 67.6152C35.2188 65.8212 35.2188 62.9339 35.2188 57.1592V48.4092C35.2188 42.6345 35.2188 39.7471 37.0127 37.9532C38.8067 36.1592 41.694 36.1592 47.4688 36.1592H52.7188C58.4935 36.1592 61.3808 36.1592 63.1748 37.9532C64.9687 39.7471 64.9688 42.6345 64.9688 48.4092V50.1592" stroke="#F23936" stroke-width="2.625" stroke-linecap="round" stroke-linejoin="round"/>
<path d="M56.8273 69.1567L56.5528 67.8732L56.8273 69.1567ZM54.7212 67.0507L56.0047 67.3251L54.7212 67.0507ZM56.2549 62.6047L55.3269 61.6766L56.2549 62.6047ZM61.2732 67.623L60.3452 66.6949L61.2732 67.623ZM68.1122 57.9944L69.2489 57.3382V57.3382L68.1122 57.9944ZM67.062 61.8343L67.99 62.7624L67.062 61.8343ZM68.1122 60.6558L69.2489 61.3121L68.1122 60.6558ZM65.8835 55.7657L66.5397 54.6291V54.6291L65.8835 55.7657ZM62.0436 56.816L62.9717 57.744V57.744L62.0436 56.816ZM63.2221 55.7657L62.5659 54.6291V54.6291L63.2221 55.7657ZM66.1339 60.9062L60.3452 66.6949L62.2013 68.5511L67.99 62.7624L66.1339 60.9062ZM57.183 63.5328L62.9717 57.744L61.1156 55.8879L55.3269 61.6766L57.183 63.5328ZM56.5528 67.8732C56.2458 67.9389 56.0005 67.9912 55.7897 68.0304C55.5769 68.0699 55.4375 68.0886 55.343 68.0946C55.2459 68.1008 55.2526 68.0893 55.3132 68.1049C55.3956 68.1262 55.5076 68.1793 55.6031 68.2748L53.747 70.1309C54.3136 70.6976 55.0214 70.7454 55.5096 70.7144C55.9742 70.6848 56.5406 70.5602 57.1017 70.4402L56.5528 67.8732ZM53.4378 66.7762C53.3178 67.3373 53.1931 67.9037 53.1636 68.3683C53.1325 68.8565 53.1804 69.5643 53.747 70.1309L55.6031 68.2748C55.6987 68.3703 55.7518 68.4824 55.773 68.5647C55.7886 68.6253 55.7771 68.632 55.7833 68.5349C55.7893 68.4404 55.808 68.301 55.8475 68.0883C55.8867 67.8775 55.9391 67.6321 56.0047 67.3251L53.4378 66.7762ZM66.1339 57.744C66.777 58.3872 66.9085 58.5346 66.9755 58.6507L69.2489 57.3382C68.9655 56.8474 68.5137 56.4115 67.99 55.8879L66.1339 57.744ZM67.99 62.7624C68.5137 62.2388 68.9655 61.8029 69.2489 61.3121L66.9755 59.9996C66.9085 60.1156 66.777 60.2631 66.1339 60.9062L67.99 62.7624ZM66.9755 58.6507C67.2165 59.068 67.2165 59.5822 66.9755 59.9996L69.2489 61.3121C69.9587 60.0825 69.9587 58.5677 69.2489 57.3382L66.9755 58.6507ZM67.99 55.8879C67.4664 55.3643 67.0305 54.9124 66.5397 54.6291L65.2272 56.9024C65.3433 56.9694 65.4908 57.1009 66.1339 57.744L67.99 55.8879ZM62.9717 57.744C63.6148 57.1009 63.7623 56.9694 63.8784 56.9024L62.5659 54.6291C62.0751 54.9124 61.6392 55.3643 61.1156 55.8879L62.9717 57.744ZM66.5397 54.6291C65.3102 53.9192 63.7954 53.9192 62.5659 54.6291L63.8784 56.9024C64.2957 56.6614 64.8099 56.6614 65.2272 56.9024L66.5397 54.6291ZM60.3452 66.6949C60.003 67.0371 59.5354 67.2584 58.8709 67.428C58.5381 67.513 58.183 67.5787 57.7873 67.6471C57.407 67.7127 56.9717 67.7836 56.5528 67.8732L57.1017 70.4402C57.4549 70.3647 57.8167 70.3059 58.2342 70.2337C58.6361 70.1643 59.0792 70.084 59.5203 69.9714C60.4037 69.7459 61.387 69.3654 62.2013 68.5511L60.3452 66.6949ZM56.0047 67.3251C56.0943 66.9062 56.1652 66.4709 56.2309 66.0907C56.2992 65.6949 56.3649 65.3399 56.4499 65.007C56.6196 64.3425 56.8408 63.8749 57.183 63.5328L55.3269 61.6766C54.5125 62.4909 54.132 63.4743 53.9065 64.3576C53.7939 64.7987 53.7136 65.2418 53.6442 65.6437C53.5721 66.0612 53.5133 66.4231 53.4378 66.7762L56.0047 67.3251Z" fill="#F23936"/>
<path d="M58.8438 34.4092V37.9092M50.0938 34.4092V37.9092M41.3438 34.4092V37.9092" stroke="#F23936" stroke-width="2.625" stroke-linecap="round" stroke-linejoin="round"/>
<path d="M43.0938 57.1592H50.0938M43.0938 48.4092H57.0938" stroke="#F23936" stroke-width="2.625" stroke-linecap="round"/>
</svg>
