<svg width="103" height="103" viewBox="0 0 103 103" fill="none" xmlns="http://www.w3.org/2000/svg">
<rect x="0.84375" y="0.90918" width="102" height="102" rx="20" fill="#45C646" fill-opacity="0.2"/>
<path opacity="0.4" d="M41.7812 43.1592C41.7812 37.6018 46.2864 33.0967 51.8438 33.0967C57.4011 33.0967 61.9062 37.6018 61.9062 43.1592V50.1592C61.9062 55.7165 57.4011 60.2217 51.8438 60.2217C46.2864 60.2217 41.7812 55.7165 41.7812 50.1592V43.1592Z" fill="#45C646"/>
<path d="M61.9062 48.8467V50.1592C61.9062 50.604 61.8774 51.0421 61.8214 51.4717H55.3438C54.6189 51.4717 54.0312 50.8841 54.0312 50.1592C54.0312 49.4343 54.6189 48.8467 55.3438 48.8467H61.9062Z" fill="#45C646"/>
<path d="M61.8214 41.8467C61.8774 42.2763 61.9062 42.7143 61.9062 43.1592V44.4717H55.3438C54.6189 44.4717 54.0312 43.8841 54.0312 43.1592C54.0312 42.4343 54.6189 41.8467 55.3438 41.8467H61.8214Z" fill="#45C646"/>
<path fill-rule="evenodd" clip-rule="evenodd" d="M38.2326 48.8467C39.1723 48.8467 39.934 49.6 39.934 50.5294C39.934 57.0346 45.2662 62.3082 51.8438 62.3082C58.4213 62.3082 63.7535 57.0346 63.7535 50.5294C63.7535 49.6 64.5152 48.8467 65.4549 48.8467C66.3945 48.8467 67.1562 49.6 67.1562 50.5294C67.1562 58.3245 61.2013 64.7441 53.5451 65.5812V67.3563H56.9479C57.8876 67.3563 58.6493 68.1097 58.6493 69.039C58.6493 69.9683 57.8876 70.7217 56.9479 70.7217H46.7396C45.7999 70.7217 45.0382 69.9683 45.0382 69.039C45.0382 68.1097 45.7999 67.3563 46.7396 67.3563H50.1424V65.5812C42.4862 64.7441 36.5312 58.3245 36.5312 50.5294C36.5312 49.6 37.293 48.8467 38.2326 48.8467Z" fill="#45C646"/>
</svg>
