<svg width="103" height="103" viewBox="0 0 103 103" fill="none" xmlns="http://www.w3.org/2000/svg">
<rect x="0.84375" y="0.90918" width="102" height="102" rx="20" fill="#008EFF" fill-opacity="0.2"/>
<path d="M49.6165 69.4092H57.0938C58.72 69.4092 59.5332 69.4092 60.2094 69.2747C62.9862 68.7223 65.1569 66.5516 65.7092 63.7748C65.8438 63.0986 65.8438 62.2855 65.8438 60.6592V44.591C65.8438 41.6278 65.8438 40.1462 65.3748 38.9629C64.6209 37.0606 63.0266 35.5601 61.0054 34.8505C59.7481 34.4092 58.1739 34.4092 55.0256 34.4092C49.5159 34.4092 46.7611 34.4092 44.5609 35.1815C41.0237 36.4232 38.2337 39.0492 36.9144 42.3782C36.0938 44.449 36.0938 47.0418 36.0938 52.2274V56.6819C36.0938 62.0533 36.0938 64.739 37.5772 66.6041C38.0023 67.1385 38.5063 67.6129 39.0741 68.013C41.0558 69.4092 43.9094 69.4092 49.6165 69.4092Z" fill="#008EFF" fill-opacity="0.15"/>
<path d="M36.9113 42.3745C36.2082 44.1488 36.1075 46.3063 36.0931 50.1495C36.6815 48.6891 39.4243 45.7805 45.7156 45.7805C46.2431 45.7805 47.6268 45.2498 47.5552 42.3745C47.5258 39.7569 48.487 34.5598 52.534 34.4088C48.6278 34.4261 46.3987 34.5316 44.5578 35.1778C41.0206 36.4195 38.2306 39.0454 36.9113 42.3745Z" fill="white"/>
<path d="M65.8438 52.228V44.5916C65.8438 41.6285 65.8438 40.1469 65.3748 38.9636C64.6209 37.0612 63.0266 35.5607 61.0054 34.8512C59.7481 34.4098 58.1739 34.4098 55.0256 34.4098C49.5159 34.4098 46.7611 34.4098 44.5609 35.1822C41.0237 36.4239 38.2337 39.0498 36.9144 42.3789C36.0938 44.4497 36.0938 47.0425 36.0938 52.228V56.6826C36.0938 62.0539 36.0938 64.7396 37.5772 66.6048C38.0023 67.1392 38.5063 67.6136 39.0741 68.0136C40.9027 69.3019 43.4736 69.4015 48.3438 69.4092" stroke="#008EFF" stroke-width="2.625" stroke-linecap="round" stroke-linejoin="round"/>
<path d="M36.0938 51.9092C36.0938 48.6875 38.7054 46.0758 41.9271 46.0758C43.0922 46.0758 44.4658 46.28 45.5986 45.9765C46.6052 45.7068 47.3913 44.9206 47.661 43.9141C47.9646 42.7812 47.7604 41.4076 47.7604 40.2425C47.7604 37.0209 50.3721 34.4092 53.5938 34.4092" stroke="#008EFF" stroke-width="2.625" stroke-linecap="round" stroke-linejoin="round"/>
<path d="M51.8438 60.6592L53.6336 61.6993C54.5341 58.4326 57.9886 56.4941 61.3495 57.3694C63.0699 57.8174 64.4322 58.9159 65.2315 60.3197M67.5938 65.9092L65.8043 64.8691C64.9037 68.1357 61.4492 70.0743 58.0884 69.199C56.4079 68.7614 55.0691 67.7031 54.263 66.3459" stroke="#008EFF" stroke-width="2.625" stroke-linecap="round" stroke-linejoin="round"/>
</svg>
