<svg width="103" height="103" viewBox="0 0 103 103" fill="none" xmlns="http://www.w3.org/2000/svg">
<rect x="0.84375" y="0.90918" width="102" height="102" rx="20" fill="#FFF6DD"/>
<path d="M51.8406 34.4092C46.577 34.4092 43.1641 37.9424 39.1277 39.2303C37.4866 39.7539 36.6659 40.0157 36.3339 40.3848C36.0018 40.7539 35.9045 41.2932 35.71 42.3719C33.6288 53.9147 38.1778 64.5861 49.0268 68.7398C50.1924 69.1861 50.7753 69.4092 51.8463 69.4092C52.9174 69.4092 53.5002 69.186 54.6658 68.7397C65.5141 64.5861 70.0588 53.9146 67.977 42.3719C67.7824 41.293 67.6851 40.7536 67.3529 40.3845C67.0207 40.0154 66.2002 39.7538 64.5591 39.2304C60.5212 37.9427 57.1044 34.4092 51.8406 34.4092Z" fill="#FFCB4B" fill-opacity="0.15"/>
<path d="M51.8406 34.4092C46.577 34.4092 43.1641 37.9424 39.1277 39.2303C37.4866 39.7539 36.6659 40.0157 36.3339 40.3848C36.0018 40.7539 35.9045 41.2932 35.71 42.3719C33.6288 53.9147 38.1778 64.5861 49.0268 68.7398C50.1924 69.1861 50.7753 69.4092 51.8463 69.4092C52.9174 69.4092 53.5002 69.186 54.6658 68.7397C65.5141 64.5861 70.0588 53.9146 67.977 42.3719C67.7824 41.293 67.6851 40.7536 67.3529 40.3845C67.0207 40.0154 66.2002 39.7538 64.5591 39.2304C60.5212 37.9427 57.1044 34.4092 51.8406 34.4092Z" stroke="#FFCB4B" stroke-width="2.625" stroke-linecap="round" stroke-linejoin="round"/>
<path d="M46.5938 53.6592C46.5938 53.6592 48.3438 53.6592 50.0938 57.1592C50.0938 57.1592 55.6526 48.4092 60.5938 46.6592" stroke="#FFCB4B" stroke-width="2.625" stroke-linecap="round" stroke-linejoin="round"/>
</svg>
