<svg width="103" height="103" viewBox="0 0 103 103" fill="none" xmlns="http://www.w3.org/2000/svg">
<rect x="0.84375" y="0.90918" width="102" height="102" rx="20" fill="#E9EDFF"/>
<path d="M55.3438 34.4092H48.3438C42.6051 34.4092 39.7358 34.4092 37.7018 35.8334C36.9493 36.3603 36.2948 37.0148 35.7679 37.7673C34.3438 39.8012 34.3438 42.6705 34.3438 48.4092C34.3438 54.1478 34.3438 57.0172 35.7679 59.0511C36.2948 59.8036 36.9493 60.4581 37.7018 60.985C39.7358 62.4092 42.6051 62.4092 48.3437 62.4092H55.3438C61.0824 62.4092 63.9517 62.4092 65.9857 60.985C66.7382 60.4581 67.3927 59.8036 67.9196 59.0511C69.3438 57.0172 69.3438 54.1478 69.3438 48.4092C69.3438 42.6705 69.3438 39.8012 67.9196 37.7673C67.3927 37.0148 66.7382 36.3603 65.9857 35.8334C63.9517 34.4092 61.0824 34.4092 55.3438 34.4092Z" fill="#738CFD" fill-opacity="0.15"/>
<path d="M62.3437 34.4092C65.6436 34.4092 67.2935 34.4092 68.3186 35.4343C69.3437 36.4594 69.3437 38.1093 69.3437 41.4092V48.4092C69.3437 51.709 69.3437 53.3589 68.3186 54.3841C67.2935 55.4092 65.6436 55.4092 62.3437 55.4092H60.5937C57.2939 55.4092 55.644 55.4092 54.6189 54.3841C53.5937 53.3589 53.5937 51.709 53.5938 48.4092L53.5938 41.4092C53.5938 38.1093 53.5938 36.4594 54.6189 35.4343C55.644 34.4092 57.2939 34.4092 60.5938 34.4092L62.3437 34.4092Z" fill="white"/>
<path d="M65.8438 60.985C63.8189 62.4092 60.9625 62.4092 55.2496 62.4092H48.281C42.568 62.4092 39.7116 62.4092 37.6868 60.985C36.9377 60.4581 36.2861 59.8036 35.7615 59.0511C34.3438 57.0172 34.3438 54.1478 34.3438 48.4092C34.3438 42.6705 34.3438 39.8012 35.7615 37.7673C36.2861 37.0148 36.9377 36.3603 37.6868 35.8334C39.7116 34.4092 42.568 34.4092 48.281 34.4092" stroke="#738CFD" stroke-width="2.625" stroke-linecap="round"/>
<path d="M51.8438 62.4092V69.4092" stroke="#738CFD" stroke-width="2.625"/>
<path d="M44.8438 69.4092H58.8437" stroke="#738CFD" stroke-width="2.625" stroke-linecap="round"/>
<path d="M62.3437 34.4092C65.6436 34.4092 67.2935 34.4092 68.3186 35.4343C69.3437 36.4594 69.3437 38.1093 69.3437 41.4092V48.4092C69.3437 51.709 69.3437 53.3589 68.3186 54.3841C67.2935 55.4092 65.6436 55.4092 62.3437 55.4092H60.5937C57.2939 55.4092 55.644 55.4092 54.6189 54.3841C53.5937 53.3589 53.5937 51.709 53.5938 48.4092L53.5938 41.4092C53.5938 38.1093 53.5938 36.4594 54.6189 35.4343C55.644 34.4092 57.2939 34.4092 60.5938 34.4092L62.3437 34.4092Z" stroke="#738CFD" stroke-width="2.625" stroke-linecap="round"/>
<path d="M61.4688 51.0342H61.4845" stroke="#738CFD" stroke-width="3.5" stroke-linecap="round" stroke-linejoin="round"/>
</svg>
