<svg width="103" height="103" viewBox="0 0 103 103" fill="none" xmlns="http://www.w3.org/2000/svg">
<rect x="0.84375" y="0.90918" width="102" height="102" rx="20" fill="#FFF0E9"/>
<path d="M34.3438 54.0139V50.2173C34.3438 49.4597 34.3438 49.0809 34.5241 48.8454C34.7045 48.6099 35.1612 48.4868 36.0745 48.2404C39.4877 47.32 41.6239 43.7516 40.743 40.3607C40.5008 39.4282 40.3796 38.9619 40.4953 38.6884C40.6109 38.415 40.9429 38.2265 41.6067 37.8496L44.6249 36.136C45.2763 35.7661 45.602 35.5812 45.8944 35.6206C46.1867 35.6599 46.5165 35.989 47.1761 36.647C49.7298 39.1945 53.955 39.1944 56.5087 36.6468C57.1682 35.9888 57.498 35.6598 57.7904 35.6204C58.0827 35.581 58.4084 35.7659 59.0598 36.1358L62.078 37.8494C62.7418 38.2263 63.0737 38.4148 63.1894 38.6882C63.3051 38.9616 63.184 39.4279 62.9418 40.3606C62.0613 43.7515 64.1992 47.32 67.613 48.2405C68.5263 48.4867 68.983 48.6099 69.1634 48.8453C69.3438 49.0808 69.3438 49.4597 69.3438 50.2173V53.6012C69.3438 54.3588 69.3438 54.7377 69.1634 54.9731C68.983 55.2086 68.5263 55.3318 67.613 55.5781L67.613 55.5781C64.1998 56.4986 62.0636 60.0669 62.9445 63.4578C63.1867 64.3904 63.3079 64.8566 63.1922 65.1301C63.0766 65.4036 62.7446 65.592 62.0808 65.9689L59.0626 67.6826C58.4111 68.0524 58.0854 68.2374 57.793 68.198C57.5007 68.1586 57.171 67.8295 56.5115 67.1715C54.1626 64.8275 50.3995 64.6383 47.8225 66.6041C46.7531 67.4198 46.2184 67.8277 45.8607 67.7808C45.5031 67.7339 45.1817 67.3184 44.5388 66.4874L36.3789 55.9395C36.2867 55.8203 36.2407 55.7608 36.179 55.7062C36.1125 55.6473 36.0132 55.5855 35.9311 55.5518C35.8549 55.5205 35.7975 55.5088 35.6827 55.4853C35.1521 55.3769 34.8868 55.3227 34.7515 55.2373C34.5667 55.1205 34.4777 55.0115 34.4004 54.8071C34.3438 54.6574 34.3438 54.4429 34.3438 54.0139Z" fill="#FF8548" fill-opacity="0.15"/>
<path d="M57.4768 57.0337C56.2276 58.2827 54.0123 58.3936 50.714 58.402C49.9952 58.4038 49.6358 58.4047 49.3154 58.5379C48.995 58.6711 48.7429 58.9233 48.2386 59.4276L40.1252 67.5423C38.8026 68.8648 36.6583 68.8648 35.3357 67.5422C34.0131 66.2197 34.0131 64.0753 35.3357 62.7528L43.4506 54.6374C43.9548 54.1332 44.2069 53.8811 44.34 53.5607C44.4732 53.2404 44.4741 52.881 44.476 52.1624C44.4844 48.866 44.5953 46.6498 45.8445 45.4008C47.2687 43.9768 47.8977 44.0345 54.2068 44.0345C54.8165 44.0319 55.1234 44.7692 54.6923 45.2003L51.4439 48.449C50.6193 49.2737 50.6171 50.6105 51.4417 51.435C52.2663 52.2595 53.6033 52.2596 54.4281 51.4352L57.6774 48.1873C58.1085 47.7563 58.846 48.0631 58.8434 48.6727C58.8434 54.9808 58.9011 55.6097 57.4768 57.0337Z" fill="white"/>
<path d="M57.4768 57.0337L58.4048 57.9618V57.9618L57.4768 57.0337ZM58.8434 48.6727L57.5309 48.6671V48.6727H58.8434ZM57.6774 48.1873L58.6052 49.1156L58.6052 49.1156L57.6774 48.1873ZM54.4281 51.4352L53.5002 50.5069V50.5069L54.4281 51.4352ZM51.4417 51.435L52.3697 50.5069L51.4417 51.435ZM45.8445 45.4008L46.7725 46.329L45.8445 45.4008ZM54.2068 44.0345L54.2068 45.347L54.2124 45.347L54.2068 44.0345ZM54.6923 45.2003L55.6204 46.1284L55.6204 46.1284L54.6923 45.2003ZM51.4439 48.449L50.5157 47.521L50.5157 47.521L51.4439 48.449ZM35.3357 62.7528L36.2638 63.6809L36.2638 63.6808L35.3357 62.7528ZM40.1252 67.5423L41.0532 68.4703L41.0533 68.4703L40.1252 67.5423ZM43.4506 54.6374L44.3787 55.5655L43.4506 54.6374ZM44.34 53.5607L45.552 54.0645L44.34 53.5607ZM50.714 58.402L50.7106 57.0895L50.714 58.402ZM48.2386 59.4276L49.1668 60.3556L48.2386 59.4276ZM49.3154 58.5379L48.8116 57.326L49.3154 58.5379ZM50.7173 59.7145C52.3545 59.7103 53.8353 59.6827 55.0772 59.4781C56.3299 59.2717 57.5054 58.8612 58.4048 57.9618L56.5488 56.1055C56.1991 56.4552 55.6423 56.7246 54.6505 56.888C53.6479 57.0532 52.3718 57.0853 50.7106 57.0895L50.7173 59.7145ZM58.4048 57.9618C58.7924 57.5743 59.1595 57.1633 59.4438 56.6414C59.7336 56.1095 59.896 55.5403 59.993 54.8738C60.1744 53.6283 60.1559 51.7573 60.1559 48.6727H57.5309C57.5309 51.8962 57.5413 53.4937 57.3954 54.4956C57.3288 54.9529 57.2386 55.2022 57.1386 55.3858C57.0331 55.5794 56.8734 55.781 56.5488 56.1055L58.4048 57.9618ZM60.1559 48.6783C60.1636 46.8942 58.0076 46.0014 56.7495 47.259L58.6052 49.1156C58.2095 49.5112 57.5285 49.232 57.5309 48.6671L60.1559 48.6783ZM56.7495 47.259L53.5002 50.5069L55.3559 52.3635L58.6052 49.1156L56.7495 47.259ZM53.5002 50.5069C53.188 50.819 52.6818 50.819 52.3697 50.5069L50.5137 52.3632C51.8508 53.7001 54.0186 53.7002 55.3559 52.3635L53.5002 50.5069ZM45.7885 52.1657C45.7927 50.5056 45.8248 49.2298 45.99 48.2272C46.1534 47.2353 46.4229 46.6786 46.7725 46.329L44.9165 44.4727C44.0169 45.3721 43.6063 46.5478 43.3999 47.8004C43.1952 49.0423 43.1676 50.5227 43.1635 52.159L45.7885 52.1657ZM46.7725 46.329C47.097 46.0045 47.2986 45.8448 47.4924 45.7393C47.6761 45.6393 47.9254 45.5491 48.3829 45.4825C49.385 45.3366 50.9828 45.347 54.2068 45.347L54.2068 42.722C51.1217 42.722 49.2504 42.7036 48.0048 42.8849C47.3383 42.9819 46.769 43.1442 46.2371 43.4339C45.7151 43.7181 45.3041 44.0852 44.9165 44.4727L46.7725 46.329ZM54.2124 45.347C53.6485 45.3494 53.3677 44.6688 53.7642 44.2723L55.6204 46.1284C56.879 44.8697 55.9845 42.7144 54.2012 42.722L54.2124 45.347ZM53.7642 44.2723L50.5157 47.521L52.372 49.3771L55.6204 46.1284L53.7642 44.2723ZM50.5157 47.521C49.1806 48.8563 49.1745 51.0242 50.5137 52.3632L52.3697 50.5069C52.0596 50.1968 52.0581 49.691 52.372 49.3771L50.5157 47.521ZM36.2638 66.6142C35.4537 65.8042 35.4537 64.4909 36.2638 63.6809L34.4076 61.8247C32.5725 63.6598 32.5725 66.6352 34.4076 68.4703L36.2638 66.6142ZM39.1971 66.6142C38.3871 67.4242 37.0738 67.4242 36.2638 66.6142L34.4076 68.4703C36.2427 70.3055 39.2181 70.3055 41.0532 68.4703L39.1971 66.6142ZM47.3105 58.4996L39.197 66.6142L41.0533 68.4703L49.1668 60.3556L47.3105 58.4996ZM36.2638 63.6808L44.3787 55.5655L42.5225 53.7094L34.4076 61.8247L36.2638 63.6808ZM43.1635 52.159C43.1625 52.5375 43.1611 52.7498 43.1487 52.9091C43.1432 52.9802 43.1368 53.0191 43.1326 53.0391C43.1306 53.0486 43.1291 53.0536 43.1286 53.0553C43.1283 53.0563 43.1282 53.0567 43.1281 53.0568C43.1281 53.0569 43.1281 53.0569 43.1281 53.0569L45.552 54.0645C45.8084 53.4477 45.7869 52.7763 45.7885 52.1657L43.1635 52.159ZM44.3787 55.5655C44.8074 55.1367 45.2957 54.681 45.552 54.0645L43.1281 53.0569C43.1281 53.057 43.1279 53.0575 43.1271 53.059C43.1262 53.0607 43.1237 53.0652 43.1184 53.0731C43.1074 53.0899 43.0847 53.1215 43.0389 53.1748C42.936 53.2946 42.7881 53.4437 42.5225 53.7094L44.3787 55.5655ZM50.7106 57.0895C50.1 57.091 49.4284 57.0695 48.8116 57.326L49.8193 59.7498C49.8193 59.7498 49.8193 59.7498 49.8194 59.7498C49.8195 59.7498 49.8199 59.7496 49.8209 59.7493C49.8226 59.7488 49.8276 59.7473 49.8371 59.7454C49.8571 59.7412 49.8961 59.7348 49.9672 59.7292C50.1264 59.7168 50.3388 59.7154 50.7173 59.7145L50.7106 57.0895ZM49.1668 60.3556C49.4325 60.0899 49.5816 59.942 49.7014 59.8391C49.7547 59.7932 49.7863 59.7705 49.8031 59.7595C49.811 59.7543 49.8155 59.7518 49.8172 59.7509C49.8187 59.7501 49.8192 59.7499 49.8193 59.7498L48.8116 57.326C48.195 57.5823 47.7393 58.0708 47.3105 58.4996L49.1668 60.3556Z" fill="#FF8548"/>
<path d="M46.1221 68.534C48.3833 64.6824 53.5621 64.2283 56.5115 67.1715C57.171 67.8295 57.5007 68.1586 57.793 68.198C58.0854 68.2374 58.4111 68.0524 59.0626 67.6826L62.0808 65.9689C62.7446 65.592 63.0766 65.4036 63.1922 65.1301C63.3079 64.8566 63.1867 64.3904 62.9445 63.4578C62.0636 60.0669 64.1998 56.4986 67.613 55.5781C68.5263 55.3318 68.983 55.2086 69.1634 54.9731C69.3438 54.7377 69.3438 54.3588 69.3438 53.6012V50.2173C69.3438 49.4597 69.3438 49.0808 69.1634 48.8453C68.983 48.6099 68.5263 48.4867 67.613 48.2405C64.1992 47.32 62.0613 43.7515 62.9418 40.3606C63.184 39.4279 63.3051 38.9616 63.1894 38.6882C63.0737 38.4148 62.7418 38.2263 62.078 37.8494L59.0598 36.1358C58.4084 35.7659 58.0827 35.581 57.7904 35.6204C57.498 35.6598 57.1682 35.9888 56.5087 36.6468C53.955 39.1944 49.7298 39.1945 47.1761 36.647C46.5165 35.989 46.1867 35.6599 45.8944 35.6206C45.602 35.5812 45.2763 35.7661 44.6249 36.136L41.6067 37.8496C40.9429 38.2265 40.6109 38.415 40.4953 38.6884C40.3796 38.9619 40.5008 39.4282 40.743 40.3607C41.6239 43.7516 39.4877 47.32 36.0745 48.2404C35.1612 48.4868 34.7045 48.6099 34.5241 48.8454C34.3438 49.0809 34.3438 49.4597 34.3438 50.2173V53.6012C34.3438 54.3589 34.3438 54.7378 34.5241 54.9732C34.7045 55.2087 35.161 55.3318 36.0739 55.578C36.0846 55.5808 36.0953 55.5838 36.106 55.5867" stroke="#FF8548" stroke-width="2.625" stroke-linecap="round"/>
</svg>
