<svg width="57" height="57" viewBox="0 0 57 57" fill="none" xmlns="http://www.w3.org/2000/svg">
<rect x="0.980469" y="0.739258" width="56" height="56" rx="28" fill="#F4F7FE"/>
<path d="M23.1478 17.0727C23.1478 16.4283 22.6255 15.906 21.9811 15.906C21.3368 15.906 20.8145 16.4283 20.8145 17.0727V17.5963C21.2582 17.4556 21.7309 17.3551 22.2323 17.2822C22.5216 17.2402 22.8266 17.2066 23.1478 17.1797V17.0727Z" fill="url(#paint0_linear_66_28836)"/>
<path d="M37.1478 17.5963C36.7041 17.4556 36.2313 17.3551 35.7299 17.2822C35.4406 17.2402 35.1356 17.2066 34.8145 17.1797V17.0727C34.8145 16.4283 35.3368 15.906 35.9811 15.906C36.6255 15.906 37.1478 16.4283 37.1478 17.0727V17.5963Z" fill="url(#paint1_linear_66_28836)"/>
<path fill-rule="evenodd" clip-rule="evenodd" d="M30.1807 17.0728H27.7802C25.5072 17.0727 23.6738 17.0727 22.2317 17.2823C20.7267 17.501 19.4801 17.9685 18.5015 19.0265C17.5349 20.0714 17.1187 21.3809 16.922 22.9629C16.7304 24.5032 16.7304 26.4692 16.7305 28.9423V29.7032C16.7304 32.1763 16.7304 34.1423 16.922 35.6827C17.1187 37.2646 17.5349 38.5741 18.5015 39.6191C19.4801 40.677 20.7267 41.1445 22.2317 41.3632C23.6738 41.5728 25.5072 41.5728 27.7802 41.5728H30.1807C32.4537 41.5728 34.2871 41.5728 35.7293 41.3632C37.2342 41.1445 38.4809 40.677 39.4594 39.6191C40.4261 38.5741 40.8422 37.2646 41.0389 35.6827C41.2305 34.1423 41.2305 32.1763 41.2305 29.7032V28.9423C41.2305 26.4692 41.2305 24.5032 41.0389 22.9629C40.8422 21.3809 40.4261 20.0714 39.4594 19.0265C38.4809 17.9685 37.2342 17.501 35.7293 17.2823C34.2872 17.0727 32.4537 17.0727 30.1807 17.0728ZM20.2279 25.2394C19.6929 25.2394 19.4253 25.2394 19.255 25.4076C19.0846 25.5758 19.0812 25.8399 19.0743 26.3682C19.0641 27.1535 19.0638 28.0326 19.0638 29.0232V29.6223C19.0638 32.1946 19.0659 34.0152 19.2375 35.3947C19.406 36.7493 19.7202 37.5004 20.2144 38.0346C20.6966 38.556 21.356 38.8781 22.5673 39.0541C23.8221 39.2365 25.4854 39.2394 27.8721 39.2394H30.0888C32.4755 39.2394 34.1388 39.2365 35.3936 39.0541C36.605 38.8781 37.2643 38.556 37.7465 38.0346C38.2407 37.5004 38.555 36.7493 38.7235 35.3947C38.895 34.0152 38.8971 32.1946 38.8971 29.6223V29.0232C38.8971 28.0326 38.8968 27.1535 38.8866 26.3682C38.8798 25.8399 38.8764 25.5758 38.706 25.4076C38.5356 25.2394 38.2681 25.2394 37.733 25.2394H20.2279Z" fill="url(#paint2_linear_66_28836)"/>
<path fill-rule="evenodd" clip-rule="evenodd" d="M22.8555 29.9061C22.8555 29.1007 23.5084 28.4478 24.3138 28.4478H24.3243C25.1297 28.4478 25.7826 29.1007 25.7826 29.9061C25.7826 30.7115 25.1297 31.3644 24.3243 31.3644H24.3138C23.5084 31.3644 22.8555 30.7115 22.8555 29.9061ZM27.5169 29.9061C27.5169 29.1007 28.1698 28.4478 28.9752 28.4478H28.9857C29.7911 28.4478 30.444 29.1007 30.444 29.9061C30.444 30.7115 29.7911 31.3644 28.9857 31.3644H28.9752C28.1698 31.3644 27.5169 30.7115 27.5169 29.9061ZM32.1783 29.9061C32.1783 29.1007 32.8313 28.4478 33.6367 28.4478H33.6471C34.4526 28.4478 35.1055 29.1007 35.1055 29.9061C35.1055 30.7115 34.4526 31.3644 33.6471 31.3644H33.6367C32.8313 31.3644 32.1783 30.7115 32.1783 29.9061ZM22.8555 34.5728C22.8555 33.7673 23.5084 33.1144 24.3138 33.1144H24.3243C25.1297 33.1144 25.7826 33.7673 25.7826 34.5728C25.7826 35.3782 25.1297 36.0311 24.3243 36.0311H24.3138C23.5084 36.0311 22.8555 35.3782 22.8555 34.5728ZM27.5169 34.5728C27.5169 33.7673 28.1698 33.1144 28.9752 33.1144H28.9857C29.7911 33.1144 30.444 33.7673 30.444 34.5728C30.444 35.3782 29.7911 36.0311 28.9857 36.0311H28.9752C28.1698 36.0311 27.5169 35.3782 27.5169 34.5728Z" fill="url(#paint3_linear_66_28836)"/>
<defs>
<linearGradient id="paint0_linear_66_28836" x1="15.7684" y1="16.6481" x2="39.736" y2="17.9276" gradientUnits="userSpaceOnUse">
<stop stop-color="#2C6BAC"/>
<stop offset="1" stop-color="#38B2AC"/>
</linearGradient>
<linearGradient id="paint1_linear_66_28836" x1="15.7684" y1="16.6481" x2="39.736" y2="17.9276" gradientUnits="userSpaceOnUse">
<stop stop-color="#2C6BAC"/>
<stop offset="1" stop-color="#38B2AC"/>
</linearGradient>
<linearGradient id="paint2_linear_66_28836" x1="9.16144" y1="27.8289" x2="45.2142" y2="28.0281" gradientUnits="userSpaceOnUse">
<stop stop-color="#2C6BAC"/>
<stop offset="1" stop-color="#38B2AC"/>
</linearGradient>
<linearGradient id="paint3_linear_66_28836" x1="19.071" y1="31.777" x2="37.0965" y2="31.9379" gradientUnits="userSpaceOnUse">
<stop stop-color="#2C6BAC"/>
<stop offset="1" stop-color="#38B2AC"/>
</linearGradient>
</defs>
</svg>
