<svg width="23" height="33" viewBox="0 0 23 33" fill="none" xmlns="http://www.w3.org/2000/svg">
<path fill-rule="evenodd" clip-rule="evenodd" d="M8.06074 13.4776C7.79225 13.2091 7.79225 12.7738 8.06074 12.5053L11.4982 9.06782C11.7667 8.79933 12.202 8.79933 12.4705 9.06782L15.908 12.5053C16.1765 12.7738 16.1765 13.2091 15.908 13.4776C15.6395 13.7461 15.2042 13.7461 14.9357 13.4776L11.9844 10.5262L9.03301 13.4776C8.76453 13.7461 8.32922 13.7461 8.06074 13.4776Z" fill="#1C1C1C"/>
<path fill-rule="evenodd" clip-rule="evenodd" d="M15.908 19.5332C16.1765 19.8016 16.1765 20.2369 15.908 20.5054L12.4705 23.9429C12.202 24.2114 11.7667 24.2114 11.4982 23.9429L8.06074 20.5054C7.79225 20.2369 7.79225 19.8016 8.06074 19.5332C8.32923 19.2647 8.76453 19.2647 9.03301 19.5332L11.9844 22.4845L14.9357 19.5332C15.2042 19.2647 15.6395 19.2647 15.908 19.5332Z" fill="#1C1C1C"/>
</svg>
