<svg width="21" height="20" viewBox="0 0 21 20" fill="none" xmlns="http://www.w3.org/2000/svg">
<path d="M7.98437 17.5054H12.9844M5.48438 7.50537C5.48438 4.74395 7.72295 2.50537 10.4844 2.50537C13.2458 2.50537 15.4844 4.74395 15.4844 7.50537C15.4844 8.24672 15.323 8.95038 15.0335 9.58316C14.2368 11.3246 12.9844 13.0158 12.9844 14.9309C12.9844 14.972 12.951 15.0054 12.9099 15.0054H8.05889C8.01774 15.0054 7.98437 14.972 7.98437 14.9309C7.98437 13.0158 6.7319 11.3246 5.9352 9.58316C5.64572 8.95038 5.48438 8.24672 5.48438 7.50537Z" stroke="url(#paint0_linear_66_24591)" stroke-width="1.66667" stroke-linecap="round"/>
<defs>
<linearGradient id="paint0_linear_66_24591" x1="2.39497" y1="9.09075" x2="17.1106" y2="9.14495" gradientUnits="userSpaceOnUse">
<stop stop-color="#2C6BAC"/>
<stop offset="1" stop-color="#38B2AC"/>
</linearGradient>
</defs>
</svg>
