<svg width="21" height="21" viewBox="0 0 21 21" fill="none" xmlns="http://www.w3.org/2000/svg">
<path d="M10.5 9.37956L7.81956 11.8104C7.71786 11.9026 7.55297 11.9026 7.45127 11.8104L6.33333 10.7966M11.3333 14.3796H14.6667M7.16667 6.87956V2.71289M13.8333 6.87956V2.71289M5.66667 4.37956H15.3333C16.2668 4.37956 16.7335 4.37956 17.09 4.56121C17.4036 4.721 17.6586 4.97597 17.8183 5.28957C18 5.64609 18 6.1128 18 7.04622V15.0462C18 15.9796 18 16.4464 17.8183 16.8029C17.6586 17.1165 17.4036 17.3714 17.09 17.5312C16.7335 17.7129 16.2668 17.7129 15.3333 17.7129H5.66667C4.73325 17.7129 4.26654 17.7129 3.91002 17.5312C3.59641 17.3714 3.34144 17.1165 3.18166 16.8029C3 16.4464 3 15.9796 3 15.0462V7.04622C3 6.1128 3 5.64609 3.18166 5.28957C3.34144 4.97597 3.59641 4.721 3.91002 4.56121C4.26654 4.37956 4.73325 4.37956 5.66667 4.37956Z" stroke="#38B2AC" stroke-width="1.5" stroke-linecap="round"/>
</svg>
