<svg width="43" height="43" viewBox="0 0 43 43" fill="none" xmlns="http://www.w3.org/2000/svg">
<rect x="0.489258" y="0.451172" width="42" height="42" rx="21" fill="#2C6BAC" fill-opacity="0.07"/>
<path d="M21.4893 20.6178L18.8088 23.0487C18.7071 23.1409 18.5422 23.1409 18.4405 23.0487L17.3226 22.0348M22.3226 25.6178H25.6559M18.1559 18.1178V13.9512M24.8226 18.1178V13.9512M16.6559 15.6178H26.3226C27.256 15.6178 27.7227 15.6178 28.0792 15.7995C28.3928 15.9593 28.6478 16.2143 28.8076 16.5279C28.9893 16.8844 28.9893 17.3511 28.9893 18.2845V26.2845C28.9893 27.2179 28.9893 27.6846 28.8076 28.0412C28.6478 28.3548 28.3928 28.6097 28.0792 28.7695C27.7227 28.9512 27.256 28.9512 26.3226 28.9512H16.6559C15.7225 28.9512 15.2558 28.9512 14.8993 28.7695C14.5857 28.6097 14.3307 28.3548 14.1709 28.0412C13.9893 27.6846 13.9893 27.2179 13.9893 26.2845V18.2845C13.9893 17.3511 13.9893 16.8844 14.1709 16.5279C14.3307 16.2143 14.5857 15.9593 14.8993 15.7995C15.2558 15.6178 15.7225 15.6178 16.6559 15.6178Z" stroke="url(#paint0_linear_178_11300)" stroke-width="1.5" stroke-linecap="round"/>
<defs>
<linearGradient id="paint0_linear_178_11300" x1="9.35516" y1="20.5365" x2="31.4283" y2="20.6585" gradientUnits="userSpaceOnUse">
<stop stop-color="#2C6BAC"/>
<stop offset="1" stop-color="#38B2AC"/>
</linearGradient>
</defs>
</svg>
