<svg width="17" height="17" viewBox="0 0 17 17" fill="none" xmlns="http://www.w3.org/2000/svg">
<path d="M8.49935 16.1652C12.5494 16.1652 15.8327 12.882 15.8327 8.83187C15.8327 4.78178 12.5494 1.49854 8.49935 1.49854M8.49935 16.1652C4.44926 16.1652 1.16602 12.882 1.16602 8.83187C1.16602 4.78178 4.44926 1.49854 8.49935 1.49854M8.49935 16.1652C9.97211 16.1652 11.166 12.882 11.166 8.83187C11.166 4.78178 9.97211 1.49854 8.49935 1.49854M8.49935 16.1652C7.02659 16.1652 5.83268 12.882 5.83268 8.83187C5.83268 4.78178 7.02659 1.49854 8.49935 1.49854M1.83268 6.1652H15.166M1.83268 10.8319H15.166" stroke="url(#paint0_linear_361_1027)" stroke-width="1.5" stroke-linecap="round"/>
<defs>
<linearGradient id="paint0_linear_361_1027" x1="-3.36511" y1="7.93757" x2="18.2175" y2="8.05681" gradientUnits="userSpaceOnUse">
<stop stop-color="#2C6BAC"/>
<stop offset="1" stop-color="#38B2AC"/>
</linearGradient>
</defs>
</svg>
