<svg width="57" height="57" viewBox="0 0 57 57" fill="none" xmlns="http://www.w3.org/2000/svg">
<rect x="0.980469" y="0.239258" width="56" height="56" rx="28" fill="#F4F7FE"/>
<path d="M23.1478 16.5727C23.1478 15.9283 22.6255 15.406 21.9811 15.406C21.3368 15.406 20.8145 15.9283 20.8145 16.5727V17.0963C21.2582 16.9556 21.7309 16.8551 22.2323 16.7822C22.5216 16.7402 22.8266 16.7066 23.1478 16.6797V16.5727Z" fill="url(#paint0_linear_66_28852)"/>
<path d="M37.1478 17.0963C36.7041 16.9556 36.2313 16.8551 35.7299 16.7822C35.4406 16.7402 35.1356 16.7066 34.8145 16.6797V16.5727C34.8145 15.9283 35.3368 15.406 35.9811 15.406C36.6255 15.406 37.1478 15.9283 37.1478 16.5727V17.0963Z" fill="url(#paint1_linear_66_28852)"/>
<path d="M30.1807 16.5728H27.7802C25.5072 16.5727 23.6738 16.5727 22.2317 16.7823C20.7267 17.001 19.4801 17.4685 18.5015 18.5265C17.5349 19.5714 17.1187 20.8809 16.922 22.4629C16.7304 24.0032 16.7304 25.9692 16.7305 28.4423V29.2032C16.7304 31.6763 16.7304 33.6423 16.922 35.1827C17.1187 36.7646 17.5349 38.0741 18.5015 39.1191C19.4341 40.1273 20.5995 40.6024 22.0136 40.8339C23.3803 41.0577 25.1025 41.0713 27.2304 41.0726L28.3971 41.0727C29.0414 41.0728 29.5638 40.5505 29.5638 39.9061C29.5638 39.2618 29.0416 38.7394 28.3972 38.7394L27.2312 38.7393C25.0479 38.7379 23.5327 38.7182 22.3907 38.5312C21.2961 38.352 20.6809 38.0389 20.2144 37.5346C19.7202 37.0004 19.406 36.2493 19.2375 34.8947C19.0659 33.5152 19.0638 31.6946 19.0638 29.1223V28.5232C19.0638 27.5326 19.0641 26.6535 19.0743 25.8682C19.0812 25.3399 19.0846 25.0758 19.255 24.9076C19.4253 24.7394 19.6929 24.7394 20.2279 24.7394H37.7329C38.268 24.7394 38.5355 24.7394 38.7059 24.9076C38.8762 25.0757 38.8797 25.3399 38.8867 25.8682C38.8916 26.2476 38.8943 26.6497 38.8957 27.0765C38.8977 27.7208 39.4217 28.2415 40.0661 28.2394C40.7104 28.2374 41.2311 27.7134 41.229 27.069C41.2225 25.0164 41.1883 23.3434 40.9728 21.9952C40.7531 20.6203 40.3287 19.4662 39.4594 18.5265C38.4809 17.4685 37.2342 17.001 35.7293 16.7823C34.2872 16.5727 32.4537 16.5727 30.1807 16.5728Z" fill="url(#paint2_linear_66_28852)"/>
<path fill-rule="evenodd" clip-rule="evenodd" d="M38.897 31.3748V32.6134C38.9847 32.64 39.0718 32.6718 39.1583 32.7102C39.8818 33.0313 40.4383 33.6383 40.7244 34.3784C40.848 34.6979 40.8955 35.0261 40.9175 35.3722C40.9387 35.7053 40.9387 36.111 40.9387 36.5972C40.9387 36.662 40.9388 36.7268 40.939 36.7917C40.9397 37.1536 40.9405 37.5161 40.9175 37.8773C40.8955 38.2234 40.848 38.5516 40.7244 38.8711C40.4383 39.6112 39.8818 40.2182 39.1583 40.5393C38.5842 40.7941 37.9258 40.7882 37.3007 40.7826C37.2102 40.7818 37.1204 40.781 37.0316 40.781H34.9291C34.8403 40.781 34.7505 40.7818 34.66 40.7826C34.0349 40.7882 33.3766 40.7941 32.8024 40.5393C32.0789 40.2182 31.5224 39.6112 31.2363 38.8711C31.1128 38.5516 31.0653 38.2234 31.0432 37.8773C31.0202 37.5161 31.021 37.1536 31.0218 36.7917C31.0219 36.7268 31.022 36.662 31.022 36.5972C31.022 36.111 31.022 35.7053 31.0432 35.3722C31.0653 35.0261 31.1128 34.6979 31.2363 34.3784C31.5224 33.6383 32.0789 33.0313 32.8024 32.7102C32.889 32.6718 32.976 32.64 33.0637 32.6134V31.3748C33.0637 29.7745 34.3998 28.531 35.9804 28.531C37.5609 28.531 38.897 29.7745 38.897 31.3748ZM35.9804 30.281C35.3058 30.281 34.8137 30.8004 34.8137 31.3748V32.4685H37.147V31.3748C37.147 30.8004 36.655 30.281 35.9804 30.281Z" fill="url(#paint3_linear_66_28852)"/>
<defs>
<linearGradient id="paint0_linear_66_28852" x1="15.7684" y1="16.1481" x2="39.736" y2="17.4276" gradientUnits="userSpaceOnUse">
<stop stop-color="#2C6BAC"/>
<stop offset="1" stop-color="#38B2AC"/>
</linearGradient>
<linearGradient id="paint1_linear_66_28852" x1="15.7684" y1="16.1481" x2="39.736" y2="17.4276" gradientUnits="userSpaceOnUse">
<stop stop-color="#2C6BAC"/>
<stop offset="1" stop-color="#38B2AC"/>
</linearGradient>
<linearGradient id="paint2_linear_66_28852" x1="9.16189" y1="27.3289" x2="45.2125" y2="27.528" gradientUnits="userSpaceOnUse">
<stop stop-color="#2C6BAC"/>
<stop offset="1" stop-color="#38B2AC"/>
</linearGradient>
<linearGradient id="paint3_linear_66_28852" x1="27.9575" y1="33.9105" x2="42.5521" y2="33.9758" gradientUnits="userSpaceOnUse">
<stop stop-color="#2C6BAC"/>
<stop offset="1" stop-color="#38B2AC"/>
</linearGradient>
</defs>
</svg>
