<svg width="40" height="39" viewBox="0 0 40 39" fill="none" xmlns="http://www.w3.org/2000/svg">
<g filter="url(#filter0_d_66_32516)">
<rect x="3" y="1.92578" width="34" height="34" rx="6.8" fill="#E53E3E" fill-opacity="0.05" shape-rendering="crispEdges"/>
<rect x="3" y="1.92578" width="34" height="34" rx="6.8" stroke="#EAEBF0" stroke-width="0.85" shape-rendering="crispEdges"/>
<path d="M18.9373 17.2254C18.9373 16.8733 18.6519 16.5879 18.2998 16.5879C17.9477 16.5879 17.6623 16.8733 17.6623 17.2254H18.9373ZM17.6623 24.0254C17.6623 24.3775 17.9477 24.6629 18.2998 24.6629C18.6519 24.6629 18.9373 24.3775 18.9373 24.0254H17.6623ZM22.3373 17.2254C22.3373 16.8733 22.0519 16.5879 21.6998 16.5879C21.3477 16.5879 21.0623 16.8733 21.0623 17.2254H22.3373ZM21.0623 24.0254C21.0623 24.3775 21.3477 24.6629 21.6998 24.6629C22.0519 24.6629 22.3373 24.3775 22.3373 24.0254H21.0623ZM15.828 26.3901L16.1174 25.8221L15.828 26.3901ZM15.0851 25.6472L15.6531 25.3578H15.6531L15.0851 25.6472ZM24.9145 25.6472L24.3465 25.3578L24.9145 25.6472ZM24.1716 26.3901L23.8822 25.8221L24.1716 26.3901ZM14.0498 14.0379C13.6977 14.0379 13.4123 14.3233 13.4123 14.6754C13.4123 15.0275 13.6977 15.3129 14.0498 15.3129V14.0379ZM25.9498 15.3129C26.3019 15.3129 26.5873 15.0275 26.5873 14.6754C26.5873 14.3233 26.3019 14.0379 25.9498 14.0379V15.3129ZM16.3873 14.6754C16.3873 15.0275 16.6727 15.3129 17.0248 15.3129C17.3769 15.3129 17.6623 15.0275 17.6623 14.6754H16.3873ZM22.3373 14.6754C22.3373 15.0275 22.6227 15.3129 22.9748 15.3129C23.3269 15.3129 23.6123 15.0275 23.6123 14.6754H22.3373ZM17.6623 17.2254V24.0254H18.9373V17.2254H17.6623ZM21.0623 17.2254V24.0254H22.3373V17.2254H21.0623ZM24.4623 14.6754V23.8554H25.7373V14.6754H24.4623ZM22.3798 25.9379H17.6198V27.2129H22.3798V25.9379ZM14.2623 14.6754V23.8554H15.5373V14.6754H14.2623ZM17.6198 25.9379C17.1332 25.9379 16.8067 25.9374 16.5552 25.9168C16.3111 25.8969 16.1944 25.8613 16.1174 25.8221L15.5386 26.9581C15.8253 27.1042 16.1284 27.1612 16.4513 27.1876C16.7668 27.2134 17.1543 27.2129 17.6198 27.2129V25.9379ZM14.2623 23.8554C14.2623 24.3209 14.2618 24.7084 14.2876 25.0239C14.314 25.3468 14.371 25.6499 14.5171 25.9366L15.6531 25.3578C15.6139 25.2808 15.5783 25.1641 15.5583 24.92C15.5378 24.6685 15.5373 24.342 15.5373 23.8554H14.2623ZM16.1174 25.8221C15.9175 25.7202 15.755 25.5577 15.6531 25.3578L14.5171 25.9366C14.7412 26.3764 15.0988 26.734 15.5386 26.9581L16.1174 25.8221ZM24.4623 23.8554C24.4623 24.342 24.4618 24.6685 24.4413 24.92C24.4213 25.1641 24.3857 25.2808 24.3465 25.3578L25.4825 25.9366C25.6286 25.6499 25.6856 25.3468 25.712 25.0239C25.7378 24.7084 25.7373 24.3209 25.7373 23.8554H24.4623ZM22.3798 27.2129C22.8453 27.2129 23.2328 27.2134 23.5483 27.1876C23.8712 27.1612 24.1743 27.1042 24.461 26.9581L23.8822 25.8221C23.8052 25.8613 23.6885 25.8969 23.4444 25.9168C23.193 25.9374 22.8664 25.9379 22.3798 25.9379V27.2129ZM24.3465 25.3578C24.2446 25.5577 24.0821 25.7202 23.8822 25.8221L24.461 26.9581C24.9008 26.734 25.2584 26.3764 25.4825 25.9366L24.3465 25.3578ZM14.0498 15.3129H14.8998V14.0379H14.0498V15.3129ZM14.8998 15.3129H25.0998V14.0379H14.8998V15.3129ZM25.0998 15.3129H25.9498V14.0379H25.0998V15.3129ZM17.6623 13.9954C17.6623 12.8978 18.6539 11.9129 19.9998 11.9129V10.6379C18.0596 10.6379 16.3873 12.0885 16.3873 13.9954H17.6623ZM19.9998 11.9129C21.3457 11.9129 22.3373 12.8978 22.3373 13.9954H23.6123C23.6123 12.0885 21.94 10.6379 19.9998 10.6379V11.9129ZM16.3873 13.9954V14.6754H17.6623V13.9954H16.3873ZM22.3373 13.9954V14.6754H23.6123V13.9954H22.3373Z" fill="#E53E3E"/>
</g>
<defs>
<filter id="filter0_d_66_32516" x="0.875195" y="0.650977" width="38.2496" height="38.2496" filterUnits="userSpaceOnUse" color-interpolation-filters="sRGB">
<feFlood flood-opacity="0" result="BackgroundImageFix"/>
<feColorMatrix in="SourceAlpha" type="matrix" values="0 0 0 0 0 0 0 0 0 0 0 0 0 0 0 0 0 0 127 0" result="hardAlpha"/>
<feOffset dy="0.85"/>
<feGaussianBlur stdDeviation="0.85"/>
<feComposite in2="hardAlpha" operator="out"/>
<feColorMatrix type="matrix" values="0 0 0 0 0.0627451 0 0 0 0 0.0941176 0 0 0 0 0.156863 0 0 0 0.04 0"/>
<feBlend mode="normal" in2="BackgroundImageFix" result="effect1_dropShadow_66_32516"/>
<feBlend mode="normal" in="SourceGraphic" in2="effect1_dropShadow_66_32516" result="shape"/>
</filter>
</defs>
</svg>
