<svg width="18" height="19" viewBox="0 0 18 19" fill="none" xmlns="http://www.w3.org/2000/svg">
<path d="M9.75 3.08203C9.75 2.66782 9.41421 2.33203 9 2.33203C8.58579 2.33203 8.25 2.66782 8.25 3.08203L9.75 3.08203ZM8.25 11.332C8.25 11.7462 8.58579 12.082 9 12.082C9.41421 12.082 9.75 11.7462 9.75 11.332H8.25ZM12.5303 10.3624C12.8232 10.0695 12.8232 9.59459 12.5303 9.3017C12.2374 9.00881 11.7626 9.00881 11.4697 9.3017L12.5303 10.3624ZM9.53033 12.3017L9 11.7714L9.53033 12.3017ZM8.46967 12.3017L9 11.7714L9 11.7714L8.46967 12.3017ZM6.53033 9.3017C6.23744 9.00881 5.76256 9.00881 5.46967 9.3017C5.17678 9.59459 5.17678 10.0695 5.46967 10.3624L6.53033 9.3017ZM3 12.832C3 12.4178 2.66421 12.082 2.25 12.082C1.83579 12.082 1.5 12.4178 1.5 12.832H3ZM16.5 12.832C16.5 12.4178 16.1642 12.082 15.75 12.082C15.3358 12.082 15 12.4178 15 12.832H16.5ZM14.5215 16.3368L14.181 15.6685L14.5215 16.3368ZM15.5048 15.3535L16.173 15.694L15.5048 15.3535ZM2.49524 15.3535L1.82698 15.694L2.49524 15.3535ZM3.47852 16.3368L3.13803 17.0051H3.13803L3.47852 16.3368ZM8.25 3.08203L8.25 11.332H9.75L9.75 3.08203L8.25 3.08203ZM11.4697 9.3017L9 11.7714L10.0607 12.832L12.5303 10.3624L11.4697 9.3017ZM9 11.7714L6.53033 9.3017L5.46967 10.3624L7.93934 12.832L9 11.7714ZM9 11.7714L9 11.7714L7.93934 12.832C8.52513 13.4178 9.47487 13.4178 10.0607 12.832L9 11.7714ZM1.5 12.832V12.982H3V12.832H1.5ZM5.85 17.332H12.15V15.832H5.85V17.332ZM16.5 12.982V12.832H15V12.982H16.5ZM12.15 17.332C12.7677 17.332 13.2761 17.3326 13.6889 17.2989C14.1104 17.2644 14.498 17.1905 14.862 17.0051L14.181 15.6685C14.0637 15.7283 13.8955 15.777 13.5667 15.8039C13.2292 15.8314 12.7924 15.832 12.15 15.832V17.332ZM15 12.982C15 13.6245 14.9994 14.0612 14.9718 14.3988C14.945 14.7276 14.8963 14.8957 14.8365 15.013L16.173 15.694C16.3585 15.33 16.4324 14.9425 16.4669 14.5209C16.5006 14.1081 16.5 13.5997 16.5 12.982H15ZM14.862 17.0051C15.4265 16.7174 15.8854 16.2585 16.173 15.694L14.8365 15.013C14.6927 15.2953 14.4632 15.5247 14.181 15.6685L14.862 17.0051ZM1.5 12.982C1.5 13.5997 1.49942 14.1081 1.53315 14.5209C1.56759 14.9425 1.64151 15.33 1.82698 15.694L3.16349 15.013C3.10372 14.8957 3.05503 14.7276 3.02816 14.3988C3.00058 14.0612 3 13.6245 3 12.982H1.5ZM5.85 15.832C5.20757 15.832 4.77085 15.8314 4.43328 15.8039C4.10447 15.777 3.93631 15.7283 3.81901 15.6685L3.13803 17.0051C3.50203 17.1905 3.88956 17.2644 4.31113 17.2989C4.72395 17.3326 5.23232 17.332 5.85 17.332V15.832ZM1.82698 15.694C2.1146 16.2585 2.57354 16.7174 3.13803 17.0051L3.81901 15.6685C3.53677 15.5247 3.3073 15.2953 3.16349 15.013L1.82698 15.694Z" fill="white"/>
</svg>
