<svg width="16" height="17" viewBox="0 0 16 17" fill="none" xmlns="http://www.w3.org/2000/svg">
<path d="M3.34164 11.6413L4.05316 11.8785L3.34164 11.6413ZM3.8411 10.1429L3.12959 9.90576H3.12959L3.8411 10.1429ZM4.35647 9.30906L4.8868 9.83939L4.8868 9.83939L4.35647 9.30906ZM9.33369 4.33183L8.80336 3.8015L8.80336 3.8015L9.33369 4.33183ZM12.0004 6.9985L12.5307 7.52883V7.52883L12.0004 6.9985ZM7.02313 11.9757L6.4928 11.4454L6.4928 11.4454L7.02313 11.9757ZM6.18926 12.4911L6.42643 13.2026H6.42643L6.18926 12.4911ZM4.69088 12.9905L4.92805 13.7021H4.92805L4.69088 12.9905ZM6.74977 12.2309L6.29809 11.6321L6.29809 11.6321L6.74977 12.2309ZM6.53972 12.3607L6.2062 11.6889L6.53972 12.3607ZM12.6428 5.07314L11.9708 5.40615V5.40615L12.6428 5.07314ZM12.6428 6.25718L11.9708 5.92417V5.92417L12.6428 6.25718ZM10.075 3.68942L10.408 4.36144L10.408 4.36144L10.075 3.68942ZM11.259 3.68942L10.926 4.36144L10.926 4.36144L11.259 3.68942ZM3.9715 9.79247L4.64326 10.126L4.64326 10.126L3.9715 9.79247ZM4.10131 9.58242L3.50258 9.13074L3.50258 9.13074L4.10131 9.58242ZM3.09318 12.835L2.38675 13.0869L3.09318 12.835ZM3.4972 13.239L3.24529 13.9454L3.24529 13.9454L3.4972 13.239ZM9.19735 4.46819C8.90446 4.1753 8.42958 4.1753 8.13669 4.46819C7.8438 4.76108 7.8438 5.23596 8.13669 5.52885L9.19735 4.46819ZM10.8034 8.19552C11.0963 8.48841 11.5711 8.48841 11.864 8.19552C12.1569 7.90262 12.1569 7.42775 11.864 7.13486L10.8034 8.19552ZM8.00036 12.9152C7.58615 12.9152 7.25036 13.2509 7.25036 13.6652C7.25036 14.0794 7.58615 14.4152 8.00036 14.4152V12.9152ZM12.667 14.4152C13.0812 14.4152 13.417 14.0794 13.417 13.6652C13.417 13.2509 13.0812 12.9152 12.667 12.9152V14.4152ZM4.05316 11.8785L4.55262 10.3801L3.12959 9.90576L2.63013 11.4041L4.05316 11.8785ZM4.8868 9.83939L9.86402 4.86216L8.80336 3.8015L3.82614 8.77873L4.8868 9.83939ZM11.47 6.46817L6.4928 11.4454L7.55346 12.5061L12.5307 7.52883L11.47 6.46817ZM5.95209 11.7796L4.45371 12.279L4.92805 13.7021L6.42643 13.2026L5.95209 11.7796ZM6.4928 11.4454C6.34584 11.5924 6.32099 11.6149 6.29809 11.6321L7.20145 12.8296C7.32684 12.735 7.43481 12.6247 7.55346 12.5061L6.4928 11.4454ZM6.42643 13.2026C6.58562 13.1495 6.73257 13.1023 6.87325 13.0324L6.2062 11.6889C6.1805 11.7017 6.14926 11.7138 5.95209 11.7796L6.42643 13.2026ZM6.29809 11.6321C6.26928 11.6539 6.23852 11.6729 6.2062 11.6889L6.87325 13.0324C6.98869 12.9751 7.09856 12.9072 7.20145 12.8296L6.29809 11.6321ZM11.47 4.86216C11.8763 5.26848 11.942 5.34818 11.9708 5.40615L13.3148 4.74013C13.1492 4.40598 12.8514 4.12218 12.5307 3.8015L11.47 4.86216ZM12.5307 7.52883C12.8514 7.20815 13.1492 6.92434 13.3148 6.5902L11.9708 5.92417C11.942 5.98215 11.8763 6.06185 11.47 6.46817L12.5307 7.52883ZM11.9708 5.40615C12.0516 5.56936 12.0516 5.76097 11.9708 5.92417L13.3148 6.5902C13.6036 6.00733 13.6036 5.323 13.3148 4.74013L11.9708 5.40615ZM9.86402 4.86216C10.2703 4.45584 10.35 4.39017 10.408 4.36144L9.74199 3.01741C9.40785 3.18299 9.12404 3.48082 8.80336 3.8015L9.86402 4.86216ZM12.5307 3.8015C12.21 3.48082 11.9262 3.18299 11.5921 3.01741L10.926 4.36144C10.984 4.39017 11.0637 4.45584 11.47 4.86216L12.5307 3.8015ZM10.408 4.36144C10.5712 4.28056 10.7628 4.28056 10.926 4.36144L11.5921 3.01741C11.0092 2.72857 10.3249 2.72857 9.74199 3.01741L10.408 4.36144ZM4.55262 10.3801C4.61834 10.1829 4.6305 10.1517 4.64326 10.126L3.29974 9.45894C3.22989 9.59962 3.18265 9.74657 3.12959 9.90576L4.55262 10.3801ZM3.82614 8.77873C3.70748 8.89738 3.59717 9.00535 3.50258 9.13074L4.70005 10.0341C4.71733 10.0112 4.73983 9.98635 4.8868 9.83939L3.82614 8.77873ZM4.64326 10.126C4.6593 10.0937 4.67832 10.0629 4.70005 10.0341L3.50258 9.13074C3.42496 9.23363 3.35706 9.3435 3.29974 9.45894L4.64326 10.126ZM2.63013 11.4041C2.52629 11.7157 2.43124 11.9984 2.37691 12.2296C2.3252 12.4497 2.27205 12.7653 2.38675 13.0869L3.79961 12.5831C3.83707 12.6881 3.79959 12.7326 3.83714 12.5728C3.87207 12.4241 3.93986 12.2184 4.05316 11.8785L2.63013 11.4041ZM4.45371 12.279C4.11383 12.3923 3.90808 12.4601 3.75942 12.4951C3.59964 12.5326 3.64405 12.4951 3.74911 12.5326L3.24529 13.9454C3.56694 14.0601 3.88249 14.007 4.10255 13.9553C4.33374 13.901 4.61654 13.8059 4.92805 13.7021L4.45371 12.279ZM2.38675 13.0869C2.52958 13.4874 2.84476 13.8026 3.24529 13.9454L3.74911 12.5326C3.77267 12.541 3.79121 12.5595 3.79961 12.5831L2.38675 13.0869ZM8.13669 5.52885L10.8034 8.19552L11.864 7.13486L9.19735 4.46819L8.13669 5.52885ZM8.00036 14.4152H12.667V12.9152H8.00036V14.4152Z" fill="#2B3674"/>
</svg>
