<svg width="20" height="21" viewBox="0 0 20 21" fill="none" xmlns="http://www.w3.org/2000/svg">
<path d="M4.17657 14.3495L4.96714 14.613V14.613L4.17657 14.3495ZM4.80089 12.4765L4.01032 12.213L4.01032 12.213L4.80089 12.4765ZM5.44509 11.4342L6.03435 12.0234L6.03435 12.0234L5.44509 11.4342ZM11.6666 5.21264L11.0774 4.62338L11.0774 4.62338L11.6666 5.21264ZM15 8.54597L15.5892 9.13523V9.13523L15 8.54597ZM8.77843 14.7675L8.18917 14.1782H8.18917L8.77843 14.7675ZM7.73608 15.4117L7.99961 16.2023L7.99961 16.2023L7.73608 15.4117ZM5.86312 16.036L6.12664 16.8266H6.12664L5.86312 16.036ZM8.43672 15.0864L7.93486 14.4212L7.93486 14.4212L8.43672 15.0864ZM8.17417 15.2487L7.80358 14.5023L8.17417 15.2487ZM15.803 6.13928L15.0563 6.50929V6.50929L15.803 6.13928ZM15.803 7.61933L15.0563 7.24932V7.24932L15.803 7.61933ZM12.5933 4.40963L12.9633 5.15631V5.15631L12.5933 4.40963ZM14.0733 4.40963L13.7033 5.15631L13.7033 5.15631L14.0733 4.40963ZM4.96388 12.0384L5.71028 12.409L5.71028 12.409L4.96388 12.0384ZM5.12615 11.7759L4.46089 11.274L4.46089 11.274L5.12615 11.7759ZM3.86599 15.8416L3.08107 16.1215L3.86599 15.8416ZM4.37101 16.3466L4.09111 17.1315L4.09111 17.1315L4.37101 16.3466ZM11.4225 5.45674C11.0971 5.13131 10.5695 5.13131 10.244 5.45674C9.9186 5.78218 9.9186 6.30982 10.244 6.63526L11.4225 5.45674ZM13.5774 9.96859C13.9028 10.294 14.4304 10.294 14.7559 9.96859C15.0813 9.64315 15.0813 9.11551 14.7559 8.79008L13.5774 9.96859ZM4.96714 14.613L5.59146 12.74L4.01032 12.213L3.386 14.086L4.96714 14.613ZM6.03435 12.0234L12.2559 5.80189L11.0774 4.62338L4.85584 10.8449L6.03435 12.0234ZM14.4107 7.95672L8.18917 14.1782L9.36768 15.3568L15.5892 9.13523L14.4107 7.95672ZM7.47256 14.6211L5.59959 15.2455L6.12664 16.8266L7.99961 16.2023L7.47256 14.6211ZM8.18917 14.1782C8.00743 14.36 7.9706 14.3942 7.93486 14.4212L8.93859 15.7517C9.08821 15.6388 9.2174 15.507 9.36768 15.3568L8.18917 14.1782ZM7.99961 16.2023C8.20124 16.1351 8.37688 16.0785 8.54475 15.9951L7.80358 14.5023C7.76348 14.5222 7.71639 14.5399 7.47256 14.6211L7.99961 16.2023ZM7.93486 14.4212C7.8937 14.4522 7.84975 14.4794 7.80358 14.5023L8.54475 15.9951C8.68328 15.9263 8.81512 15.8448 8.93859 15.7517L7.93486 14.4212ZM14.4107 5.80189C14.9127 6.30385 15.0109 6.41764 15.0563 6.50929L16.5497 5.76927C16.3522 5.37076 15.996 5.03018 15.5892 4.62338L14.4107 5.80189ZM15.5892 9.13523C15.996 8.72843 16.3522 8.38785 16.5497 7.98934L15.0563 7.24932C15.0109 7.34097 14.9127 7.45476 14.4107 7.95672L15.5892 9.13523ZM15.0563 6.50929C15.1718 6.74244 15.1718 7.01617 15.0563 7.24932L16.5497 7.98934C16.8963 7.2899 16.8963 6.46871 16.5497 5.76927L15.0563 6.50929ZM12.2559 5.80189C12.7578 5.29995 12.8716 5.20173 12.9633 5.15631L12.2233 3.66295C11.8247 3.86042 11.4842 4.21659 11.0774 4.62338L12.2559 5.80189ZM15.5892 4.62338C15.1824 4.21658 14.8418 3.86042 14.4433 3.66295L13.7033 5.15631C13.795 5.20173 13.9088 5.29994 14.4107 5.80189L15.5892 4.62338ZM12.9633 5.15631C13.1964 5.04078 13.4702 5.04078 13.7033 5.15631L14.4433 3.66295C13.7439 3.31634 12.9227 3.31634 12.2233 3.66295L12.9633 5.15631ZM5.59146 12.74C5.67274 12.4962 5.69037 12.4491 5.71028 12.409L4.21749 11.6678C4.13414 11.8357 4.07753 12.0114 4.01032 12.213L5.59146 12.74ZM4.85584 10.8449C4.70555 10.9952 4.57377 11.1244 4.46089 11.274L5.79142 12.2777C5.81838 12.242 5.85261 12.2052 6.03435 12.0234L4.85584 10.8449ZM5.71028 12.409C5.73321 12.3628 5.76037 12.3189 5.79142 12.2777L4.46089 11.274C4.36775 11.3975 4.28627 11.5293 4.21749 11.6678L5.71028 12.409ZM3.386 14.086C3.25554 14.4773 3.13862 14.8255 3.07206 15.1087C3.0084 15.3796 2.94826 15.7491 3.08107 16.1215L4.65091 15.5617C4.68717 15.6634 4.64661 15.6939 4.69453 15.49C4.73954 15.2984 4.82618 15.0359 4.96714 14.613L3.386 14.086ZM5.59959 15.2455C5.17671 15.3864 4.91417 15.4731 4.72262 15.5181C4.5187 15.566 4.54922 15.5254 4.65091 15.5617L4.09111 17.1315C4.46354 17.2643 4.83298 17.2042 5.10387 17.1405C5.38713 17.074 5.73527 16.9571 6.12664 16.8266L5.59959 15.2455ZM3.08107 16.1215C3.2491 16.5927 3.6199 16.9635 4.09111 17.1315L4.65091 15.5617L4.65091 15.5617L3.08107 16.1215ZM10.244 6.63526L13.5774 9.96859L14.7559 8.79008L11.4225 5.45674L10.244 6.63526Z" fill="#38B2AC"/>
</svg>
