<svg width="42" height="42" viewBox="0 0 42 42" fill="none" xmlns="http://www.w3.org/2000/svg">
<rect x="0.646484" y="0.54248" width="40" height="40" rx="20" stroke="#EEF2F6"/>
<path d="M20.6462 29.7093C25.7088 29.7093 29.8128 25.6053 29.8128 20.5426C29.8128 15.48 25.7088 11.376 20.6462 11.376M20.6462 29.7093C15.5835 29.7093 11.4795 25.6053 11.4795 20.5426C11.4795 15.48 15.5835 11.376 20.6462 11.376M20.6462 29.7093C22.4871 29.7093 23.9795 25.6053 23.9795 20.5426C23.9795 15.48 22.4871 11.376 20.6462 11.376M20.6462 29.7093C18.8052 29.7093 17.3128 25.6053 17.3128 20.5426C17.3128 15.48 18.8052 11.376 20.6462 11.376M12.3128 17.2093H28.9795M12.3128 23.0426H28.9795" stroke="#A3AED0" stroke-width="1.3" stroke-linecap="round"/>
</svg>
