<svg width="24" height="25" viewBox="0 0 24 25" fill="none" xmlns="http://www.w3.org/2000/svg">
<path opacity="0.4" d="M2 6.68675C2 4.23575 4.03024 2.23975 6.52453 2.23975H11.4856C13.9748 2.23975 16 4.22975 16 6.67675V17.7927C16 20.2447 13.9698 22.2397 11.4744 22.2397H6.51537C4.02515 22.2397 2 20.2497 2 17.8027V16.8627V6.68675Z" fill="#CC5F5F"/>
<path d="M21.7792 11.6945L18.9334 8.78554C18.6393 8.48554 18.166 8.48554 17.8728 8.78754C17.5807 9.08954 17.5816 9.57654 17.8748 9.87654L19.434 11.4695H17.9391H9.54875C9.13483 11.4695 8.79883 11.8145 8.79883 12.2395C8.79883 12.6655 9.13483 13.0095 9.54875 13.0095H19.434L17.8748 14.6025C17.5816 14.9025 17.5807 15.3895 17.8728 15.6915C18.0199 15.8425 18.2118 15.9185 18.4046 15.9185C18.5955 15.9185 18.7873 15.8425 18.9334 15.6935L21.7792 12.7855C21.9204 12.6405 22.0003 12.4445 22.0003 12.2395C22.0003 12.0355 21.9204 11.8395 21.7792 11.6945Z" fill="#CC5F5F"/>
</svg>
