<svg width="38" height="39" viewBox="0 0 38 39" fill="none" xmlns="http://www.w3.org/2000/svg">
<g filter="url(#filter0_d_66_32515)">
<rect x="2" y="1.92578" width="34" height="34" rx="8.5" fill="#48BB78"/>
<path d="M15.1748 16.3758V18.9258C15.1748 21.0383 16.8873 22.7508 18.9998 22.7508M22.8248 16.057V18.9258C22.8248 21.0383 21.1123 22.7508 18.9998 22.7508M18.9998 22.7508V25.3008M18.9998 25.3008H20.2748M18.9998 25.3008H17.7248M18.9998 20.2008C18.2956 20.2008 17.7248 19.6299 17.7248 18.9258V13.8258C17.7248 13.1216 18.2956 12.5508 18.9998 12.5508C19.704 12.5508 20.2748 13.1216 20.2748 13.8258V18.9258C20.2748 19.6299 19.704 20.2008 18.9998 20.2008Z" stroke="white" stroke-width="1.275" stroke-linecap="round"/>
</g>
<defs>
<filter id="filter0_d_66_32515" x="0" y="0.925781" width="38" height="38" filterUnits="userSpaceOnUse" color-interpolation-filters="sRGB">
<feFlood flood-opacity="0" result="BackgroundImageFix"/>
<feColorMatrix in="SourceAlpha" type="matrix" values="0 0 0 0 0 0 0 0 0 0 0 0 0 0 0 0 0 0 127 0" result="hardAlpha"/>
<feOffset dy="1"/>
<feGaussianBlur stdDeviation="1"/>
<feComposite in2="hardAlpha" operator="out"/>
<feColorMatrix type="matrix" values="0 0 0 0 0.0627451 0 0 0 0 0.0941176 0 0 0 0 0.156863 0 0 0 0.04 0"/>
<feBlend mode="normal" in2="BackgroundImageFix" result="effect1_dropShadow_66_32515"/>
<feBlend mode="normal" in="SourceGraphic" in2="effect1_dropShadow_66_32515" result="shape"/>
</filter>
</defs>
</svg>
