<svg width="57" height="57" viewBox="0 0 57 57" fill="none" xmlns="http://www.w3.org/2000/svg">
<rect x="0.980469" y="0.239258" width="56" height="56" rx="28" fill="#F4F7FE"/>
<g clip-path="url(#clip0_66_28827)">
<g opacity="0.4">
<path d="M31.6886 27.0582C31.4621 27.3775 31.3488 27.5372 31.3918 27.6953C31.4347 27.8533 31.5856 27.9256 31.8874 28.07C32.5154 28.3706 33.2237 28.5397 33.9731 28.5397C36.558 28.5397 38.6534 26.528 38.6534 24.0465C38.6534 21.5649 36.558 19.5532 33.9731 19.5532C33.6912 19.5532 33.4151 19.5771 33.147 19.623C32.8149 19.6798 32.6489 19.7081 32.5612 19.8483C32.4735 19.9885 32.5356 20.1726 32.6597 20.5407C32.9047 21.2676 33.037 22.0431 33.037 22.8483C33.037 24.4091 32.5396 25.8585 31.6886 27.0582Z" fill="url(#paint0_linear_66_28827)"/>
<path d="M37.3233 38.1254C39.0107 38.1254 40.3232 37.4334 41.4146 36.5696C42.0614 36.0577 42.4851 35.3984 42.3828 34.6206C42.2909 33.9221 41.7991 33.4022 41.3748 33.0572C40.6796 32.4919 39.6655 32.0172 39.0265 31.7181C38.8853 31.652 38.7625 31.5945 38.6654 31.5465C37.4202 30.9305 36.0503 30.5498 34.6509 30.4045C33.7484 30.3107 33.2972 30.2639 33.1941 30.5226C33.091 30.7813 33.4928 31.0585 34.2964 31.6128C34.6016 31.8234 34.8968 32.0489 35.156 32.2838C35.7392 32.8123 36.5945 33.7635 36.7557 35.1291C36.8304 35.7619 36.7439 36.345 36.5493 36.8717C36.3175 37.499 36.2017 37.8127 36.3019 37.9613C36.3083 37.9708 36.3122 37.9761 36.3194 37.9851C36.4318 38.1254 36.729 38.1254 37.3233 38.1254Z" fill="url(#paint1_linear_66_28827)"/>
</g>
<path d="M31.3613 31.9951L31.3614 31.9952C32.0507 32.3549 33.132 32.919 33.8717 33.5893C34.3323 34.0067 34.8088 34.5892 34.8963 35.33C34.9909 36.1316 34.6064 36.8554 33.9156 37.4647C32.7561 38.4873 31.3462 39.3222 29.5176 39.3222H20.9573C19.1287 39.3222 17.7188 38.4873 16.5593 37.4647C15.8685 36.8554 15.484 36.1316 15.5786 35.33C15.6661 34.5892 16.1426 34.0067 16.6032 33.5893C17.3429 32.919 18.4242 32.3549 19.1135 31.9952C19.267 31.9151 19.4011 31.8452 19.5076 31.7864C23.0168 29.8521 27.4581 29.8521 30.9673 31.7864C31.0738 31.8452 31.2079 31.9151 31.3613 31.9951Z" fill="url(#paint2_linear_66_28827)"/>
<path d="M19.3086 22.8474C19.3086 19.7042 21.9629 17.156 25.237 17.156C28.5112 17.156 31.1655 19.7042 31.1655 22.8474C31.1655 25.9907 28.5112 28.5389 25.237 28.5389C21.9629 28.5389 19.3086 25.9907 19.3086 22.8474Z" fill="url(#paint3_linear_66_28827)"/>
</g>
<defs>
<linearGradient id="paint0_linear_66_28827" x1="27.9798" y1="27.7069" x2="44.1894" y2="27.76" gradientUnits="userSpaceOnUse">
<stop stop-color="#2C6BAC"/>
<stop offset="1" stop-color="#38B2AC"/>
</linearGradient>
<linearGradient id="paint1_linear_66_28827" x1="27.9798" y1="27.7069" x2="44.1894" y2="27.76" gradientUnits="userSpaceOnUse">
<stop stop-color="#2C6BAC"/>
<stop offset="1" stop-color="#38B2AC"/>
</linearGradient>
<linearGradient id="paint2_linear_66_28827" x1="9.5877" y1="34.281" x2="38.053" y2="34.6195" gradientUnits="userSpaceOnUse">
<stop stop-color="#2C6BAC"/>
<stop offset="1" stop-color="#38B2AC"/>
</linearGradient>
<linearGradient id="paint3_linear_66_28827" x1="15.6455" y1="22.1534" x2="33.0934" y2="22.2538" gradientUnits="userSpaceOnUse">
<stop stop-color="#2C6BAC"/>
<stop offset="1" stop-color="#38B2AC"/>
</linearGradient>
<clipPath id="clip0_66_28827">
<rect width="28" height="28" fill="white" transform="translate(14.9805 14.2393)"/>
</clipPath>
</defs>
</svg>
