<svg width="18" height="19" viewBox="0 0 18 19" fill="none" xmlns="http://www.w3.org/2000/svg">
<g clip-path="url(#clip0_180_13674)">
<path d="M5.4 16.7129V15.9629H5.4L5.4 16.7129ZM12.6 16.7129V17.4629V16.7129ZM15 14.3129H14.25H15ZM15 4.11289H15.75H15ZM14.8365 2.5319L15.5048 2.19141V2.19141L14.8365 2.5319ZM12.6 1.71289V0.962891V1.71289ZM14.181 1.87638L14.5215 1.20813L14.5215 1.20813L14.181 1.87638ZM14.181 16.5494L14.5215 17.2177L14.181 16.5494ZM14.8365 15.8939L14.1683 15.5534L14.8365 15.8939ZM3.81902 16.5494L4.15951 15.8811L3.81902 16.5494ZM3 14.3129L2.25 14.3129L3 14.3129ZM3.16349 15.8939L3.83175 15.5534L3.16349 15.8939ZM3.75 6.21289C3.75 5.79868 3.41421 5.46289 3 5.46289C2.58579 5.46289 2.25 5.79868 2.25 6.21289H3.75ZM7.5 0.962891C7.08579 0.962891 6.75 1.29868 6.75 1.71289C6.75 2.1271 7.08579 2.46289 7.5 2.46289L7.5 0.962891ZM3.12803 6.08486L2.5977 5.55453L3.12803 6.08486ZM7.37197 1.84092L7.9023 2.37125L7.37197 1.84092ZM3.18107 6.21289L3.18107 6.96289L3.18107 6.21289ZM6.75 6.21289V5.46289V6.21289ZM7.5 5.46289H6.75V5.46289L7.5 5.46289ZM7.5 1.89396H8.25V1.89396L7.5 1.89396ZM6 8.46289C5.58579 8.46289 5.25 8.79868 5.25 9.21289C5.25 9.6271 5.58579 9.96289 6 9.96289V8.46289ZM12 9.96289C12.4142 9.96289 12.75 9.6271 12.75 9.21289C12.75 8.79868 12.4142 8.46289 12 8.46289V9.96289ZM10.5 5.46289C10.0858 5.46289 9.75 5.79868 9.75 6.21289C9.75 6.6271 10.0858 6.96289 10.5 6.96289V5.46289ZM12 6.96289C12.4142 6.96289 12.75 6.6271 12.75 6.21289C12.75 5.79868 12.4142 5.46289 12 5.46289V6.96289ZM6 11.4629C5.58579 11.4629 5.25 11.7987 5.25 12.2129C5.25 12.6271 5.58579 12.9629 6 12.9629V11.4629ZM12 12.9629C12.4142 12.9629 12.75 12.6271 12.75 12.2129C12.75 11.7987 12.4142 11.4629 12 11.4629V12.9629ZM5.4 17.4629H12.6V15.9629H5.4V17.4629ZM15.75 14.3129V4.11289H14.25V14.3129H15.75ZM15.75 4.11289C15.75 3.70523 15.7506 3.35437 15.7271 3.06662C15.7028 2.77011 15.6494 2.4752 15.5048 2.19141L14.1683 2.8724C14.1871 2.90948 14.2154 2.98502 14.2321 3.18877C14.2494 3.40127 14.25 3.68048 14.25 4.11289L15.75 4.11289ZM12.6 2.46289C13.0324 2.46289 13.3116 2.46347 13.5241 2.48084C13.7279 2.49748 13.8034 2.52574 13.8405 2.54464L14.5215 1.20813C14.2377 1.06353 13.9428 1.01004 13.6463 0.985818C13.3585 0.962307 13.0077 0.962891 12.6 0.962891V2.46289ZM15.5048 2.19141C15.289 1.76804 14.9448 1.42384 14.5215 1.20813L13.8405 2.54463C13.9816 2.61654 14.0964 2.73128 14.1683 2.8724L15.5048 2.19141ZM12.6 17.4629C13.0077 17.4629 13.3585 17.4635 13.6463 17.44C13.9428 17.4157 14.2377 17.3622 14.5215 17.2177L13.8405 15.8811C13.8034 15.9 13.7279 15.9283 13.5241 15.9449C13.3116 15.9623 13.0324 15.9629 12.6 15.9629V17.4629ZM14.25 14.3129C14.25 14.7453 14.2494 15.0245 14.2321 15.237C14.2154 15.4408 14.1871 15.5163 14.1683 15.5534L15.5048 16.2344C15.6494 15.9506 15.7028 15.6557 15.7271 15.3592C15.7506 15.0714 15.75 14.7206 15.75 14.3129H14.25ZM14.5215 17.2177C14.9448 17.0019 15.289 16.6577 15.5048 16.2344L14.1683 15.5534C14.0963 15.6945 13.9816 15.8092 13.8405 15.8811L14.5215 17.2177ZM5.4 15.9629C4.96759 15.9629 4.68838 15.9623 4.47588 15.9449C4.27213 15.9283 4.19659 15.9 4.15951 15.8811L3.47852 17.2177C3.76231 17.3623 4.05722 17.4157 4.35373 17.44C4.64148 17.4635 4.99234 17.4629 5.4 17.4629L5.4 15.9629ZM2.25 14.3129C2.25 14.7206 2.24942 15.0714 2.27293 15.3592C2.29715 15.6557 2.35064 15.9506 2.49524 16.2344L3.83175 15.5534C3.81285 15.5163 3.78459 15.4408 3.76795 15.237C3.75058 15.0245 3.75 14.7453 3.75 14.3129L2.25 14.3129ZM4.15951 15.8811C4.01839 15.8092 3.90365 15.6945 3.83175 15.5534L2.49524 16.2344C2.71095 16.6577 3.05516 17.0019 3.47852 17.2177L4.15951 15.8811ZM2.25 6.21289L2.25 14.3129L3.75 14.3129L3.75 6.21289H2.25ZM12.6 0.962891L7.5 0.962891L7.5 2.46289L12.6 2.46289V0.962891ZM3.65836 6.61519L7.9023 2.37125L6.84164 1.31059L2.5977 5.55453L3.65836 6.61519ZM3.18107 6.96289L6.75 6.96289L6.75 5.46289L3.18107 5.46289L3.18107 6.96289ZM8.25 5.46289V1.89396H6.75V5.46289H8.25ZM6.75 6.96289C7.57843 6.96289 8.25 6.29132 8.25 5.46289L6.75 5.46289L6.75 5.46289L6.75 6.96289ZM7.9023 2.37125C7.47707 2.79648 6.75 2.49532 6.75 1.89396L8.25 1.89396C8.25 1.15896 7.36136 0.790876 6.84164 1.31059L7.9023 2.37125ZM2.5977 5.55453C2.07798 6.07425 2.44607 6.96289 3.18107 6.96289L3.18107 5.46289C3.78243 5.46289 4.08359 6.18996 3.65836 6.61519L2.5977 5.55453ZM6 9.96289H12V8.46289H6V9.96289ZM10.5 6.96289H12V5.46289H10.5V6.96289ZM6 12.9629H12V11.4629H6V12.9629Z" fill="#FFAE43"/>
</g>
<defs>
<clipPath id="clip0_180_13674">
<rect width="18" height="18" fill="white" transform="translate(0 0.212891)"/>
</clipPath>
</defs>
</svg>
