<svg width="39" height="39" viewBox="0 0 39 39" fill="none" xmlns="http://www.w3.org/2000/svg">
<g filter="url(#filter0_d_178_11467)">
<path d="M2.5 9.33203C2.5 4.91375 6.08172 1.33203 10.5 1.33203H28.5C32.9183 1.33203 36.5 4.91375 36.5 9.33203V27.332C36.5 31.7503 32.9183 35.332 28.5 35.332H10.5C6.08172 35.332 2.5 31.7503 2.5 27.332V9.33203Z" fill="white"/>
<path d="M3 9.33203C3 5.1899 6.35786 1.83203 10.5 1.83203H28.5C32.6421 1.83203 36 5.1899 36 9.33203V27.332C36 31.4742 32.6421 34.832 28.5 34.832H10.5C6.35786 34.832 3 31.4742 3 27.332V9.33203Z" stroke="#EEF2F6"/>
<path d="M13.6766 22.4686L14.3881 22.7058L13.6766 22.4686ZM14.3009 20.5957L13.5894 20.3585L13.5894 20.3585L14.3009 20.5957ZM14.9451 19.5533L15.4754 20.0836L15.4754 20.0836L14.9451 19.5533ZM21.1666 13.3318L20.6363 12.8014V12.8014L21.1666 13.3318ZM24.5 16.6651L25.0303 17.1954V17.1954L24.5 16.6651ZM18.2784 22.8866L17.7481 22.3563L17.7481 22.3563L18.2784 22.8866ZM17.2361 23.5308L17.4733 24.2424H17.4733L17.2361 23.5308ZM15.3631 24.1552L15.6003 24.8667L15.6003 24.8667L15.3631 24.1552ZM17.9367 23.2056L17.485 22.6068L17.485 22.6068L17.9367 23.2056ZM17.6742 23.3679L17.3406 22.6961L17.6742 23.3679ZM25.303 14.2584L24.631 14.5914V14.5914L25.303 14.2584ZM25.303 15.7385L24.631 15.4055V15.4055L25.303 15.7385ZM22.0933 12.5288L22.4263 13.2008L22.4263 13.2008L22.0933 12.5288ZM23.5733 12.5288L23.2403 13.2008V13.2008L23.5733 12.5288ZM14.4639 20.1576L15.1356 20.4911L15.1356 20.4911L14.4639 20.1576ZM14.6262 19.895L14.0274 19.4433L14.0274 19.4433L14.6262 19.895ZM13.366 23.9607L12.6596 24.2126L13.366 23.9607ZM13.871 24.4658L13.6191 25.1722L13.6191 25.1722L13.871 24.4658ZM20.8636 13.6348C20.5707 13.3419 20.0959 13.3419 19.803 13.6348C19.5101 13.9277 19.5101 14.4026 19.803 14.6955L20.8636 13.6348ZM23.1363 18.0288C23.4292 18.3217 23.9041 18.3217 24.197 18.0288C24.4898 17.7359 24.4898 17.261 24.197 16.9681L23.1363 18.0288ZM19.5 24.2484C19.0857 24.2484 18.75 24.5842 18.75 24.9984C18.75 25.4127 19.0857 25.7484 19.5 25.7484V24.2484ZM25.3333 25.7484C25.7475 25.7484 26.0833 25.4127 26.0833 24.9984C26.0833 24.5842 25.7475 24.2484 25.3333 24.2484V25.7484ZM14.3881 22.7058L15.0124 20.8328L13.5894 20.3585L12.9651 22.2315L14.3881 22.7058ZM15.4754 20.0836L21.697 13.8621L20.6363 12.8014L14.4148 19.023L15.4754 20.0836ZM23.9696 16.1348L17.7481 22.3563L18.8088 23.417L25.0303 17.1954L23.9696 16.1348ZM16.9989 22.8193L15.1259 23.4437L15.6003 24.8667L17.4733 24.2424L16.9989 22.8193ZM17.7481 22.3563C17.5679 22.5365 17.5265 22.5756 17.485 22.6068L18.3884 23.8043C18.5323 23.6957 18.6569 23.5688 18.8088 23.417L17.7481 22.3563ZM17.4733 24.2424C17.677 24.1744 17.8462 24.1198 18.0077 24.0396L17.3406 22.6961C17.2941 22.7192 17.2406 22.7388 16.9989 22.8193L17.4733 24.2424ZM17.485 22.6068C17.4398 22.641 17.3914 22.6709 17.3406 22.6961L18.0077 24.0396C18.1416 23.9731 18.2691 23.8944 18.3884 23.8043L17.485 22.6068ZM23.9696 13.8621C24.4668 14.3593 24.5779 14.4844 24.631 14.5914L25.975 13.9254C25.7851 13.5422 25.4418 13.213 25.0303 12.8014L23.9696 13.8621ZM25.0303 17.1954C25.4418 16.7839 25.7851 16.4546 25.975 16.0715L24.631 15.4055C24.5779 15.5125 24.4668 15.6376 23.9696 16.1348L25.0303 17.1954ZM24.631 14.5914C24.758 14.8479 24.758 15.149 24.631 15.4055L25.975 16.0715C26.31 15.3954 26.31 14.6015 25.975 13.9254L24.631 14.5914ZM21.697 13.8621C22.1941 13.3649 22.3193 13.2538 22.4263 13.2008L21.7603 11.8568C21.3771 12.0466 21.0479 12.3899 20.6363 12.8014L21.697 13.8621ZM25.0303 12.8014C24.6187 12.3899 24.2895 12.0466 23.9063 11.8568L23.2403 13.2008C23.3473 13.2538 23.4724 13.3649 23.9696 13.8621L25.0303 12.8014ZM22.4263 13.2008C22.6827 13.0737 22.9838 13.0737 23.2403 13.2008L23.9063 11.8568C23.2302 11.5217 22.4364 11.5217 21.7603 11.8568L22.4263 13.2008ZM15.0124 20.8328C15.093 20.5911 15.1126 20.5376 15.1356 20.4911L13.7921 19.824C13.712 19.9855 13.6573 20.1547 13.5894 20.3585L15.0124 20.8328ZM14.4148 19.023C14.2629 19.1748 14.136 19.2994 14.0274 19.4433L15.2249 20.3467C15.2562 20.3053 15.2953 20.2638 15.4754 20.0836L14.4148 19.023ZM15.1356 20.4911C15.1609 20.4403 15.1907 20.392 15.2249 20.3467L14.0274 19.4433C13.9374 19.5627 13.8586 19.6901 13.7921 19.824L15.1356 20.4911ZM12.9651 22.2315C12.8341 22.6244 12.7187 22.9683 12.6532 23.2469C12.5903 23.5145 12.5352 23.8639 12.6596 24.2126L14.0724 23.7088C14.1002 23.7868 14.0647 23.7973 14.1134 23.5901C14.1595 23.3939 14.2476 23.1271 14.3881 22.7058L12.9651 22.2315ZM15.1259 23.4437C14.7046 23.5841 14.4378 23.6722 14.2417 23.7183C14.0344 23.767 14.0449 23.7315 14.1229 23.7593L13.6191 25.1722C13.9678 25.2965 14.3173 25.2414 14.5848 25.1786C14.8635 25.1131 15.2073 24.9977 15.6003 24.8667L15.1259 23.4437ZM12.6596 24.2126C12.8192 24.6603 13.1715 25.0126 13.6191 25.1722L14.1229 23.7593C14.0994 23.7509 14.0808 23.7324 14.0724 23.7088L12.6596 24.2126ZM19.803 14.6955L23.1363 18.0288L24.197 16.9681L20.8636 13.6348L19.803 14.6955ZM19.5 25.7484H25.3333V24.2484H19.5V25.7484Z" fill="#919AB4"/>
</g>
<defs>
<filter id="filter0_d_178_11467" x="0.5" y="0.332031" width="38" height="38" filterUnits="userSpaceOnUse" color-interpolation-filters="sRGB">
<feFlood flood-opacity="0" result="BackgroundImageFix"/>
<feColorMatrix in="SourceAlpha" type="matrix" values="0 0 0 0 0 0 0 0 0 0 0 0 0 0 0 0 0 0 127 0" result="hardAlpha"/>
<feOffset dy="1"/>
<feGaussianBlur stdDeviation="1"/>
<feComposite in2="hardAlpha" operator="out"/>
<feColorMatrix type="matrix" values="0 0 0 0 0 0 0 0 0 0 0 0 0 0 0 0 0 0 0.02 0"/>
<feBlend mode="normal" in2="BackgroundImageFix" result="effect1_dropShadow_178_11467"/>
<feBlend mode="normal" in="SourceGraphic" in2="effect1_dropShadow_178_11467" result="shape"/>
</filter>
</defs>
</svg>
