<svg width="22" height="23" viewBox="0 0 22 23" fill="none" xmlns="http://www.w3.org/2000/svg">
<path d="M8.2512 3.68477C8.2512 2.79461 8.97281 2.073 9.86297 2.073H12.1394C13.0296 2.073 13.7512 2.79462 13.7512 3.68478C13.7512 4.92553 15.0944 5.70099 16.1689 5.08061C16.9398 4.63552 17.9256 4.89965 18.3707 5.67057L19.5089 7.64198C19.954 8.41289 19.6898 9.39865 18.9189 9.84374C17.8444 10.4641 17.8444 12.0151 18.9189 12.6355C19.6898 13.0806 19.954 14.0663 19.5089 14.8372L18.3707 16.8086C17.9256 17.5796 16.9398 17.8437 16.1689 17.3986C15.0944 16.7782 13.7512 17.5537 13.7512 18.7945C13.7512 19.6847 13.0296 20.4063 12.1394 20.4063H9.86302C8.97283 20.4063 8.2512 19.6847 8.2512 18.7945C8.2512 17.5537 6.90803 16.7782 5.83351 17.3986C5.0626 17.8437 4.07684 17.5796 3.63176 16.8087L2.49355 14.8372C2.04847 14.0663 2.3126 13.0806 3.08351 12.6355C4.15805 12.0151 4.15805 10.4641 3.08352 9.84374C2.3126 9.39865 2.04847 8.41289 2.49355 7.64197L3.63176 5.67055C4.07684 4.89964 5.06261 4.63552 5.83352 5.0806C6.90803 5.70097 8.2512 4.92552 8.2512 3.68477Z" stroke="black" stroke-width="1.83333"/>
<path d="M14.6679 11.2397C14.6679 13.2647 13.0262 14.9063 11.0012 14.9063C8.97615 14.9063 7.33453 13.2647 7.33453 11.2397C7.33453 9.21462 8.97615 7.573 11.0012 7.573C13.0262 7.573 14.6679 9.21462 14.6679 11.2397Z" stroke="black" stroke-width="1.83333"/>
</svg>
