<svg width="18" height="17" viewBox="0 0 18 17" fill="none" xmlns="http://www.w3.org/2000/svg">
<path d="M12.3327 6.83187L8.04398 11.3694C7.88126 11.5416 7.61744 11.5416 7.45472 11.3694L5.66602 9.47692M5.33268 15.1841C4.33243 14.6055 3.48153 13.7974 2.85197 12.8319M5.33268 2.4796C4.33243 3.05822 3.48153 3.8663 2.85197 4.83187M1.85624 10.4985C1.7318 9.9631 1.66602 9.40517 1.66602 8.83187C1.66602 8.25857 1.7318 7.70063 1.85624 7.1652M7.66602 1.61945C8.09838 1.54003 8.54402 1.49854 8.99935 1.49854C13.0494 1.49854 16.3327 4.78178 16.3327 8.83187C16.3327 12.882 13.0494 16.1652 8.99935 16.1652C8.54402 16.1652 8.09838 16.1237 7.66602 16.0443" stroke="url(#paint0_linear_361_472)" stroke-width="1.5" stroke-linecap="round"/>
<defs>
<linearGradient id="paint0_linear_361_472" x1="-2.86511" y1="7.93757" x2="18.7175" y2="8.05681" gradientUnits="userSpaceOnUse">
<stop stop-color="#2C6BAC"/>
<stop offset="1" stop-color="#38B2AC"/>
</linearGradient>
</defs>
</svg>
