<svg width="26" height="30" viewBox="0 0 26 30" fill="none" xmlns="http://www.w3.org/2000/svg">
<path d="M9.47656 22.5054H16.4766C17.4391 22.5054 18.2266 21.7179 18.2266 20.7554V12.0054H21.0091C22.5666 12.0054 23.3541 10.1154 22.2516 9.01288L14.2191 0.980381C13.5366 0.297881 12.4341 0.297881 11.7516 0.980381L3.71906 9.01288C2.61656 10.1154 3.38656 12.0054 4.94406 12.0054H7.72656V20.7554C7.72656 21.7179 8.51406 22.5054 9.47656 22.5054ZM2.47656 26.0054H23.4766C24.4391 26.0054 25.2266 26.7929 25.2266 27.7554C25.2266 28.7179 24.4391 29.5054 23.4766 29.5054H2.47656C1.51406 29.5054 0.726562 28.7179 0.726562 27.7554C0.726562 26.7929 1.51406 26.0054 2.47656 26.0054Z" fill="url(#paint0_linear_290_1833)"/>
<defs>
<linearGradient id="paint0_linear_290_1833" x1="-6.84247" y1="13.2164" x2="29.2106" y2="13.3845" gradientUnits="userSpaceOnUse">
<stop stop-color="#2C6BAC"/>
<stop offset="1" stop-color="#38B2AC"/>
</linearGradient>
</defs>
</svg>
