<svg width="19" height="19" viewBox="0 0 19 19" fill="none" xmlns="http://www.w3.org/2000/svg">
<g clip-path="url(#clip0_179_16503)">
<rect x="0.356445" y="0.240234" width="18" height="18" rx="9" fill="white"/>
<path fill-rule="evenodd" clip-rule="evenodd" d="M0.356445 0.240234H11.1564V8.64023H0.356445V0.240234Z" fill="#1A47B8"/>
<path fill-rule="evenodd" clip-rule="evenodd" d="M11.1564 0.240234V1.44023H25.5564V0.240234H11.1564ZM11.1564 2.64023V3.84023H25.5564V2.64023H11.1564ZM11.1564 5.04023V6.24023H25.5564V5.04023H11.1564ZM11.1564 7.44023V8.64023H25.5564V7.44023H11.1564ZM0.356445 9.84023V11.0402H25.5564V9.84023H0.356445ZM0.356445 12.2402V13.4402H25.5564V12.2402H0.356445ZM0.356445 14.6402V15.8402H25.5564V14.6402H0.356445ZM0.356445 17.0402V18.2402H25.5564V17.0402H0.356445Z" fill="#F93939"/>
<path fill-rule="evenodd" clip-rule="evenodd" d="M1.55664 1.44043V2.64043H2.75664V1.44043H1.55664ZM3.95664 1.44043V2.64043H5.15664V1.44043H3.95664ZM6.35664 1.44043V2.64043H7.55664V1.44043H6.35664ZM8.75664 1.44043V2.64043H9.95664V1.44043H8.75664ZM7.55664 2.64043V3.84043H8.75664V2.64043H7.55664ZM5.15664 2.64043V3.84043H6.35664V2.64043H5.15664ZM2.75664 2.64043V3.84043H3.95664V2.64043H2.75664ZM1.55664 3.84043V5.04043H2.75664V3.84043H1.55664ZM3.95664 3.84043V5.04043H5.15664V3.84043H3.95664ZM6.35664 3.84043V5.04043H7.55664V3.84043H6.35664ZM8.75664 3.84043V5.04043H9.95664V3.84043H8.75664ZM1.55664 6.24043V7.44043H2.75664V6.24043H1.55664ZM3.95664 6.24043V7.44043H5.15664V6.24043H3.95664ZM6.35664 6.24043V7.44043H7.55664V6.24043H6.35664ZM8.75664 6.24043V7.44043H9.95664V6.24043H8.75664ZM7.55664 5.04043V6.24043H8.75664V5.04043H7.55664ZM5.15664 5.04043V6.24043H6.35664V5.04043H5.15664ZM2.75664 5.04043V6.24043H3.95664V5.04043H2.75664Z" fill="white"/>
</g>
<defs>
<clipPath id="clip0_179_16503">
<rect x="0.356445" y="0.240234" width="18" height="18" rx="9" fill="white"/>
</clipPath>
</defs>
</svg>
