<svg width="126" height="126" viewBox="0 0 126 126" fill="none" xmlns="http://www.w3.org/2000/svg">
<ellipse opacity="0.1" cx="63" cy="121.767" rx="62.5" ry="3.75" fill="url(#paint0_linear_66_32386)"/>
<path fill-rule="evenodd" clip-rule="evenodd" d="M9.25 28.0171C9.25 19.7328 15.9657 13.0171 24.25 13.0171C32.5343 13.0171 39.25 19.7328 39.25 28.0171C39.25 32.023 37.6797 35.6622 35.121 38.3526C34.9349 38.5233 34.7562 38.702 34.5855 38.8881C31.8951 41.4467 28.2559 43.0171 24.25 43.0171C15.9657 43.0171 9.25 36.3014 9.25 28.0171ZM32.378 43.519C29.9493 44.7951 27.184 45.5171 24.25 45.5171C23.8297 45.5171 23.4129 45.5023 23 45.4731V80.4814C23 83.9332 25.7982 86.7314 29.25 86.7314H32.2847V44.8018C32.2847 44.366 32.3165 43.9377 32.378 43.519ZM20.5 45.1144C12.637 43.3977 6.75 36.3949 6.75 28.0171C6.75 18.3521 14.585 10.5171 24.25 10.5171C32.6278 10.5171 39.6306 16.4041 41.3473 24.2671H84.9643C89.7968 24.2671 93.7143 28.1846 93.7143 33.0171V36.0518H96.7489C101.581 36.0518 105.499 39.9693 105.499 44.8018V92.2661C105.499 97.0985 101.581 101.016 96.7489 101.016H41.0347C36.2022 101.016 32.2847 97.0985 32.2847 92.2661V89.2314H29.25C24.4175 89.2314 20.5 85.3139 20.5 80.4814V45.1144ZM41.706 26.7671C41.7352 27.18 41.75 27.5968 41.75 28.0171C41.75 30.9511 41.028 33.7164 39.7519 36.1451C40.1706 36.0836 40.5989 36.0518 41.0347 36.0518H91.2143V33.0171C91.2143 29.5653 88.4161 26.7671 84.9643 26.7671H41.706ZM36.3776 40.6334C36.5437 40.4737 36.7066 40.3108 36.8663 40.1447C37.9723 39.1541 39.4331 38.5518 41.0347 38.5518H96.7489C100.201 38.5518 102.999 41.35 102.999 44.8018V92.2661C102.999 95.7178 100.201 98.5161 96.7489 98.5161H41.0347C37.5829 98.5161 34.7847 95.7178 34.7847 92.2661V44.8018C34.7847 43.2002 35.387 41.7394 36.3776 40.6334ZM106.013 22.6851C107.832 22.6851 109.306 24.1595 109.306 25.9783C109.306 27.7971 107.832 29.2715 106.013 29.2715H99.2381C97.4193 29.2715 95.9449 27.7971 95.9449 25.9783C95.9449 24.1595 97.4193 22.6851 99.2381 22.6851H106.013ZM106.806 25.9783C106.806 25.5402 106.451 25.1851 106.013 25.1851H99.2381C98.8 25.1851 98.4449 25.5402 98.4449 25.9783C98.4449 26.4164 98.8 26.7715 99.2381 26.7715H106.013C106.451 26.7715 106.806 26.4164 106.806 25.9783ZM84.5377 59.1629C84.5377 61.5519 82.601 63.4886 80.212 63.4886C77.823 63.4886 75.8863 61.5519 75.8863 59.1629C75.8863 56.7739 77.823 54.8372 80.212 54.8372C82.601 54.8372 84.5377 56.7739 84.5377 59.1629ZM61.9619 72.2947H67.9464C69.5383 70.6413 71.7744 69.6127 74.2508 69.6127H86.3272C91.1602 69.6127 95.0781 73.5306 95.0781 78.3636C95.0781 79.8135 93.9027 80.9889 92.4528 80.9889H80.5459C80.7246 81.7815 80.8189 82.6061 80.8189 83.4527C80.8189 85.3014 79.3202 86.8001 77.4715 86.8001H46.4524C44.6037 86.8001 43.105 85.3014 43.105 83.4527C43.105 77.2903 48.1004 72.2947 54.2628 72.2947H61.9619ZM74.2508 72.1127C73.451 72.1127 72.6863 72.2629 71.9833 72.5367C75.3536 73.2502 78.1622 75.4851 79.6567 78.4889H92.4528C92.522 78.4889 92.5781 78.4328 92.5781 78.3636C92.5781 74.9113 89.7795 72.1127 86.3272 72.1127H74.2508ZM87.0377 59.1629C87.0377 62.9326 83.9817 65.9886 80.212 65.9886C76.4423 65.9886 73.3863 62.9326 73.3863 59.1629C73.3863 55.3932 76.4423 52.3372 80.212 52.3372C83.9817 52.3372 87.0377 55.3932 87.0377 59.1629ZM70.5696 58.9676C70.5696 63.7743 66.6731 67.6709 61.8664 67.6709C57.0598 67.6709 53.1632 63.7743 53.1632 58.9676C53.1632 54.161 57.0598 50.2644 61.8664 50.2644C66.6731 50.2644 70.5696 54.161 70.5696 58.9676ZM15.5 97.5608C15.5 99.3796 16.9744 100.854 18.7932 100.854H25.568C27.3868 100.854 28.8612 99.3796 28.8612 97.5608C28.8612 95.742 27.3868 94.2675 25.568 94.2675H18.7932C16.9744 94.2675 15.5 95.742 15.5 97.5608ZM18.7932 98.354C18.3551 98.354 18 97.9989 18 97.5608C18 97.1227 18.3551 96.7675 18.7932 96.7675L25.568 96.7675C26.0061 96.7675 26.3612 97.1227 26.3612 97.5608C26.3612 97.9989 26.0061 98.354 25.568 98.354H18.7932ZM21.125 19.8921C21.125 18.1662 22.5241 16.7671 24.25 16.7671C25.9759 16.7671 27.375 18.1662 27.375 19.8921V27.3921C27.375 29.118 25.9759 30.5171 24.25 30.5171C22.5241 30.5171 21.125 29.118 21.125 27.3921V19.8921ZM24.25 19.2671C23.9048 19.2671 23.625 19.5469 23.625 19.8921V27.3921C23.625 27.7373 23.9048 28.0171 24.25 28.0171C24.5952 28.0171 24.875 27.7373 24.875 27.3921V19.8921C24.875 19.5469 24.5952 19.2671 24.25 19.2671ZM24.25 39.2671C22.5241 39.2671 21.125 37.868 21.125 36.1421C21.125 34.4162 22.5241 33.0171 24.25 33.0171C25.9759 33.0171 27.375 34.4162 27.375 36.1421C27.375 37.868 25.9759 39.2671 24.25 39.2671ZM23.625 36.1421C23.625 36.4873 23.9048 36.7671 24.25 36.7671C24.5952 36.7671 24.875 36.4873 24.875 36.1421C24.875 35.7969 24.5952 35.5171 24.25 35.5171C23.9048 35.5171 23.625 35.7969 23.625 36.1421Z" fill="url(#paint1_linear_66_32386)"/>
<defs>
<linearGradient id="paint0_linear_66_32386" x1="-38.1175" y1="121.309" x2="144.284" y2="138.105" gradientUnits="userSpaceOnUse">
<stop stop-color="#2C6BAC"/>
<stop offset="1" stop-color="#38B2AC"/>
</linearGradient>
<linearGradient id="paint1_linear_66_32386" x1="-24.9337" y1="50.2484" x2="125.981" y2="51.1933" gradientUnits="userSpaceOnUse">
<stop stop-color="#2C6BAC"/>
<stop offset="1" stop-color="#38B2AC"/>
</linearGradient>
</defs>
</svg>
