<svg width="98" height="37" viewBox="0 0 98 37" fill="none" xmlns="http://www.w3.org/2000/svg">
<rect x="0.34375" y="0.5" width="97" height="36" rx="18" fill="url(#paint0_linear_30_1238)" fill-opacity="0.1"/>
<path d="M19.7724 23.5L16.9485 13.3182H18.5643L20.5479 21.2031H20.6424L22.7056 13.3182H24.3065L26.3697 21.2081H26.4641L28.4428 13.3182H30.0636L27.2347 23.5H25.6886L23.5458 15.8736H23.4663L21.3235 23.5H19.7724ZM31.9494 23.5H30.3187L33.9828 13.3182H35.7576L39.4217 23.5H37.791L34.9125 15.1676H34.8329L31.9494 23.5ZM32.2228 19.5128H37.5126V20.8054H32.2228V19.5128ZM41.2156 13.3182L44.0494 21.6108H44.1637L46.9975 13.3182H48.658L44.994 23.5H43.2191L39.555 13.3182H41.2156ZM50.6284 23.5V13.3182H57.0119V14.6406H52.1646V17.7429H56.6788V19.0604H52.1646V22.1776H57.0716V23.5H50.6284ZM60.424 23.5945C60.1522 23.5945 59.9186 23.4983 59.723 23.3061C59.5275 23.1106 59.4297 22.8752 59.4297 22.6001C59.4297 22.3284 59.5275 22.0964 59.723 21.9041C59.9186 21.7086 60.1522 21.6108 60.424 21.6108C60.6958 21.6108 60.9295 21.7086 61.125 21.9041C61.3205 22.0964 61.4183 22.3284 61.4183 22.6001C61.4183 22.7824 61.3719 22.9498 61.2791 23.1023C61.1896 23.2514 61.0703 23.3707 60.9212 23.4602C60.772 23.5497 60.6063 23.5945 60.424 23.5945ZM68.9299 23.5H67.2992L70.9632 13.3182H72.7381L76.4022 23.5H74.7715L71.8929 15.1676H71.8134L68.9299 23.5ZM69.2033 19.5128H74.4931V20.8054H69.2033V19.5128ZM79.9087 13.3182V23.5H78.3725V13.3182H79.9087Z" fill="url(#paint1_linear_30_1238)"/>
<defs>
<linearGradient id="paint0_linear_30_1238" x1="-29.6234" y1="16.3049" x2="113.089" y2="18.4294" gradientUnits="userSpaceOnUse">
<stop stop-color="#2C6BAC"/>
<stop offset="1" stop-color="#38B2AC"/>
</linearGradient>
<linearGradient id="paint1_linear_30_1238" x1="-3.73736" y1="17.5244" x2="91.8677" y2="19.6702" gradientUnits="userSpaceOnUse">
<stop stop-color="#2C6BAC"/>
<stop offset="1" stop-color="#38B2AC"/>
</linearGradient>
</defs>
</svg>
