<svg width="26" height="25" viewBox="0 0 26 25" fill="none" xmlns="http://www.w3.org/2000/svg">
<path d="M14.8594 22.4268C15.0781 22.208 15.1875 21.8799 15.1875 21.4971C15.1875 21.1689 15.0234 20.8408 14.8047 20.5674L8.24219 14.2783H23.9375C24.2656 14.2783 24.5938 14.1689 24.8672 13.8955C25.0859 13.6768 25.25 13.3486 25.25 12.9658V11.2158C25.25 10.8877 25.0859 10.5596 24.8672 10.2861C24.5938 10.0674 24.2656 9.90332 23.9375 9.90332H8.24219L14.8047 3.61426C15.0234 3.39551 15.1875 3.06738 15.1875 2.68457C15.1875 2.35645 15.0781 2.02832 14.8594 1.75488L13.6016 0.551758C13.3281 0.333008 13 0.168945 12.6719 0.168945C12.2891 0.168945 11.9609 0.333008 11.7422 0.551758L1.13281 11.1611C0.859375 11.4346 0.75 11.7627 0.75 12.0908C0.75 12.4736 0.859375 12.8018 1.13281 13.0205L11.7422 23.6299C11.9609 23.9033 12.2891 24.0127 12.6719 24.0127C13 24.0127 13.3281 23.9033 13.6016 23.6299L14.8594 22.4268Z" fill="#63657E"/>
</svg>
