<svg width="32" height="32" viewBox="0 0 32 32" fill="none" xmlns="http://www.w3.org/2000/svg">
<path d="M13.6094 2.30176L15.1562 0.754883C15.8594 0.12207 16.9141 0.12207 17.5469 0.754883L31.2578 14.3955C31.8906 15.0986 31.8906 16.1533 31.2578 16.7861L17.5469 30.4971C16.9141 31.1299 15.8594 31.1299 15.1562 30.4971L13.6094 28.9502C12.9766 28.2471 12.9766 27.1924 13.6094 26.4893L22.1172 18.4033H1.9375C0.953125 18.4033 0.25 17.7002 0.25 16.7158V14.4658C0.25 13.5518 0.953125 12.7783 1.9375 12.7783H22.1172L13.6094 4.7627C12.9766 4.05957 12.9062 3.00488 13.6094 2.30176Z" fill="#090F4E"/>
</svg>
