<svg width="101" height="100" viewBox="0 0 101 100" fill="none" xmlns="http://www.w3.org/2000/svg">
<path fill-rule="evenodd" clip-rule="evenodd" d="M50.8008 100C78.415 100 100.801 77.6142 100.801 50C100.801 22.3858 78.415 0 50.8008 0C23.1865 0 0.800781 22.3858 0.800781 50C0.800781 77.6142 23.1865 100 50.8008 100Z" fill="url(#paint0_linear_30_2939)"/>
<path d="M59.8008 38H54.8008V34C54.8008 31.8125 56.5508 30 58.8008 30H59.3008C60.1133 30 60.8008 29.375 60.8008 28.5V25.5C60.8008 24.6875 60.1133 24 59.3008 24H58.8008C53.2383 24 48.8008 28.5 48.8008 34V49C48.8008 50.6875 50.1133 52 51.8008 52H59.8008C61.4258 52 62.8008 50.6875 62.8008 49V41C62.8008 39.375 61.4258 38 59.8008 38ZM41.8008 38H36.8008V34C36.8008 31.8125 38.5508 30 40.8008 30H41.3008C42.1133 30 42.8008 29.375 42.8008 28.5V25.5C42.8008 24.6875 42.1133 24 41.3008 24H40.8008C35.2383 24 30.8008 28.5 30.8008 34V49C30.8008 50.6875 32.1133 52 33.8008 52H41.8008C43.4258 52 44.8008 50.6875 44.8008 49V41C44.8008 39.375 43.4258 38 41.8008 38Z" fill="white"/>
<defs>
<linearGradient id="paint0_linear_30_2939" x1="-30.0932" y1="43.9025" x2="117.061" y2="44.7155" gradientUnits="userSpaceOnUse">
<stop stop-color="#2C6BAC"/>
<stop offset="1" stop-color="#38B2AC"/>
</linearGradient>
</defs>
</svg>
