<svg width="17" height="12" viewBox="0 0 17 12" fill="none" xmlns="http://www.w3.org/2000/svg">
<path d="M16.1875 3.96875C16.3125 3.875 16.5 3.96875 16.5 4.125V10.5C16.5 11.3438 15.8125 12 15 12H2C1.15625 12 0.5 11.3438 0.5 10.5V4.125C0.5 3.96875 0.65625 3.875 0.78125 3.96875C1.5 4.53125 2.40625 5.21875 5.59375 7.53125C6.25 8 7.375 9.03125 8.5 9.03125C9.59375 9.03125 10.75 8 11.375 7.53125C14.5625 5.21875 15.4688 4.53125 16.1875 3.96875ZM8.5 8C7.75 8.03125 6.71875 7.09375 6.1875 6.71875C2.03125 3.71875 1.71875 3.4375 0.78125 2.6875C0.59375 2.5625 0.5 2.34375 0.5 2.09375V1.5C0.5 0.6875 1.15625 0 2 0H15C15.8125 0 16.5 0.6875 16.5 1.5V2.09375C16.5 2.34375 16.375 2.5625 16.1875 2.6875C15.25 3.4375 14.9375 3.71875 10.7812 6.71875C10.25 7.09375 9.21875 8.03125 8.5 8Z" fill="#183B56"/>
</svg>
