<svg width="220" height="41" viewBox="0 0 220 41" fill="none" xmlns="http://www.w3.org/2000/svg">
<rect y="0.793945" width="220" height="40" rx="10" fill="url(#paint0_linear_30_2967)" fill-opacity="0.06"/>
<path d="M17.058 25.7939V15.6121H23.5807V17.1583H18.9024V19.9225H23.1333V21.4687H18.9024V25.7939H17.058ZM24.9322 25.7939V18.1576H26.6772V19.4303H26.7568C26.896 18.9895 27.1346 18.6498 27.4727 18.4111C27.814 18.1692 28.2035 18.0482 28.641 18.0482C28.7404 18.0482 28.8514 18.0532 28.9741 18.0631C29.1 18.0697 29.2044 18.0814 29.2873 18.0979V19.7535C29.2111 19.7269 29.0901 19.7037 28.9244 19.6839C28.762 19.6607 28.6045 19.6491 28.4521 19.6491C28.1239 19.6491 27.829 19.7203 27.5671 19.8628C27.3086 20.002 27.1048 20.1959 26.9556 20.4445C26.8065 20.6931 26.7319 20.9798 26.7319 21.3046V25.7939H24.9322ZM33.4092 25.9431C32.6436 25.9431 31.9823 25.784 31.4255 25.4658C30.872 25.1443 30.4461 24.6903 30.1478 24.1036C29.8495 23.5136 29.7004 22.8193 29.7004 22.0205C29.7004 21.235 29.8495 20.5456 30.1478 19.9523C30.4494 19.3557 30.8704 18.8917 31.4106 18.5603C31.9509 18.2255 32.5856 18.0581 33.3147 18.0581C33.7854 18.0581 34.2295 18.1344 34.6471 18.2868C35.068 18.436 35.4393 18.668 35.7607 18.9829C36.0856 19.2977 36.3408 19.6988 36.5264 20.186C36.712 20.6699 36.8048 21.2466 36.8048 21.9161V22.468H30.5456V21.2549H35.0796C35.0763 20.9102 35.0018 20.6036 34.8559 20.3351C34.7101 20.0634 34.5063 19.8496 34.2444 19.6938C33.9859 19.538 33.6843 19.4601 33.3396 19.4601C32.9717 19.4601 32.6485 19.5496 32.3701 19.7286C32.0917 19.9043 31.8746 20.1363 31.7188 20.4246C31.5664 20.7097 31.4885 21.0229 31.4852 21.3643V22.4232C31.4852 22.8673 31.5664 23.2485 31.7288 23.5667C31.8912 23.8815 32.1182 24.1235 32.4099 24.2925C32.7016 24.4582 33.0429 24.5411 33.434 24.5411C33.6959 24.5411 33.9329 24.5046 34.145 24.4317C34.3571 24.3555 34.5411 24.2445 34.6968 24.0986C34.8526 23.9528 34.9703 23.7722 35.0498 23.5567L36.7302 23.7456C36.6241 24.1898 36.422 24.5776 36.1237 24.909C35.8287 25.2371 35.4509 25.4923 34.9902 25.6746C34.5295 25.8536 34.0025 25.9431 33.4092 25.9431ZM43.2832 28.6576V24.5908H43.2086C43.1158 24.7764 42.9816 24.9736 42.8059 25.1824C42.6303 25.3879 42.3983 25.5636 42.1099 25.7094C41.8216 25.8553 41.4586 25.9282 41.0211 25.9282C40.4212 25.9282 39.8843 25.7741 39.4103 25.4658C38.9364 25.1576 38.5619 24.7101 38.2868 24.1235C38.0117 23.5368 37.8741 22.8242 37.8741 21.9857C37.8741 21.1372 38.0133 20.4213 38.2917 19.838C38.5735 19.2513 38.953 18.8089 39.4302 18.5106C39.9075 18.209 40.4395 18.0581 41.0261 18.0581C41.4736 18.0581 41.8415 18.1344 42.1298 18.2868C42.4182 18.436 42.6469 18.6166 42.8159 18.8287C42.9849 19.0376 43.1158 19.2348 43.2086 19.4204H43.318V18.1576H45.0879V28.6576H43.2832ZM41.5233 24.4516C41.9044 24.4516 42.2292 24.3489 42.4977 24.1434C42.7662 23.9346 42.97 23.6446 43.1092 23.2733C43.2484 22.9021 43.318 22.4696 43.318 21.9758C43.318 21.4819 43.2484 21.0527 43.1092 20.6881C42.9733 20.3235 42.7711 20.0402 42.5027 19.838C42.2375 19.6358 41.9111 19.5347 41.5233 19.5347C41.1222 19.5347 40.7875 19.6391 40.519 19.8479C40.2505 20.0567 40.0484 20.3451 39.9125 20.713C39.7766 21.0809 39.7086 21.5018 39.7086 21.9758C39.7086 22.453 39.7766 22.8789 39.9125 23.2535C40.0517 23.6247 40.2555 23.918 40.524 24.1334C40.7958 24.3456 41.1289 24.4516 41.5233 24.4516ZM51.6645 22.5823V18.1576H53.4642V25.7939H51.7192V24.4367H51.6397C51.4673 24.8643 51.1839 25.2139 50.7895 25.4857C50.3984 25.7575 49.9162 25.8934 49.3428 25.8934C48.8423 25.8934 48.3998 25.7823 48.0154 25.5603C47.6342 25.3349 47.3359 25.0084 47.1205 24.5809C46.9051 24.15 46.7973 23.6296 46.7973 23.0198V18.1576H48.597V22.7414C48.597 23.2253 48.7296 23.6098 48.9948 23.8948C49.2599 24.1798 49.6079 24.3224 50.0388 24.3224C50.304 24.3224 50.5608 24.2577 50.8094 24.1285C51.058 23.9992 51.2618 23.807 51.4209 23.5518C51.5833 23.2932 51.6645 22.9701 51.6645 22.5823ZM58.5556 25.9431C57.79 25.9431 57.1287 25.784 56.5719 25.4658C56.0184 25.1443 55.5925 24.6903 55.2942 24.1036C54.9959 23.5136 54.8468 22.8193 54.8468 22.0205C54.8468 21.235 54.9959 20.5456 55.2942 19.9523C55.5958 19.3557 56.0168 18.8917 56.557 18.5603C57.0973 18.2255 57.732 18.0581 58.4611 18.0581C58.9318 18.0581 59.3759 18.1344 59.7935 18.2868C60.2144 18.436 60.5857 18.668 60.9072 18.9829C61.232 19.2977 61.4872 19.6988 61.6728 20.186C61.8584 20.6699 61.9512 21.2466 61.9512 21.9161V22.468H55.692V21.2549H60.226C60.2227 20.9102 60.1482 20.6036 60.0023 20.3351C59.8565 20.0634 59.6527 19.8496 59.3908 19.6938C59.1323 19.538 58.8307 19.4601 58.486 19.4601C58.1181 19.4601 57.7949 19.5496 57.5165 19.7286C57.2381 19.9043 57.021 20.1363 56.8653 20.4246C56.7128 20.7097 56.6349 21.0229 56.6316 21.3643V22.4232C56.6316 22.8673 56.7128 23.2485 56.8752 23.5667C57.0376 23.8815 57.2646 24.1235 57.5563 24.2925C57.848 24.4582 58.1894 24.5411 58.5805 24.5411C58.8423 24.5411 59.0793 24.5046 59.2914 24.4317C59.5035 24.3555 59.6875 24.2445 59.8432 24.0986C59.999 23.9528 60.1167 23.7722 60.1962 23.5567L61.8766 23.7456C61.7706 24.1898 61.5684 24.5776 61.2701 24.909C60.9751 25.2371 60.5973 25.4923 60.1366 25.6746C59.6759 25.8536 59.1489 25.9431 58.5556 25.9431ZM65.1335 21.3195V25.7939H63.3337V18.1576H65.0539V19.4552H65.1434C65.3191 19.0276 65.5991 18.6879 65.9836 18.436C66.3714 18.1841 66.8503 18.0581 67.4204 18.0581C67.9474 18.0581 68.4064 18.1708 68.7975 18.3962C69.1919 18.6216 69.4969 18.9481 69.7123 19.3756C69.931 19.8032 70.0388 20.3219 70.0354 20.9317V25.7939H68.2357V21.2101C68.2357 20.6997 68.1032 20.3003 67.838 20.012C67.5762 19.7236 67.2132 19.5795 66.7492 19.5795C66.4344 19.5795 66.1543 19.6491 65.909 19.7883C65.6671 19.9242 65.4765 20.1214 65.3373 20.3799C65.2014 20.6384 65.1335 20.9516 65.1335 21.3195ZM75.5382 18.1576V19.5496H71.1483V18.1576H75.5382ZM72.2321 16.328H74.0318V23.4971C74.0318 23.739 74.0683 23.9246 74.1412 24.0539C74.2174 24.1798 74.3168 24.266 74.4395 24.3124C74.5621 24.3588 74.698 24.382 74.8471 24.382C74.9598 24.382 75.0626 24.3737 75.1554 24.3572C75.2515 24.3406 75.3244 24.3257 75.3741 24.3124L75.6774 25.7194C75.5813 25.7525 75.4437 25.789 75.2648 25.8287C75.0891 25.8685 74.8737 25.8917 74.6185 25.8983C74.1677 25.9116 73.7617 25.8437 73.4004 25.6945C73.0391 25.5421 72.7525 25.3067 72.5403 24.9885C72.3315 24.6704 72.2288 24.2726 72.2321 23.7954V16.328ZM78.8671 15.6121V25.7939H77.0674V15.6121H78.8671ZM81.6964 28.6576C81.4511 28.6576 81.2241 28.6377 81.0153 28.5979C80.8098 28.5615 80.6457 28.5184 80.5231 28.4687L80.9407 27.0667C81.2026 27.1429 81.4362 27.1794 81.6417 27.176C81.8472 27.1727 82.0279 27.1081 82.1836 26.9822C82.3427 26.8595 82.477 26.654 82.5863 26.3657L82.7404 25.953L79.9713 18.1576H81.8804L83.6403 23.9246H83.7198L85.4848 18.1576H87.3988L84.3413 26.7187C84.1988 27.123 84.0099 27.4694 83.7745 27.7577C83.5392 28.0494 83.2509 28.2715 82.9095 28.4239C82.5714 28.5797 82.1671 28.6576 81.6964 28.6576ZM93.2239 25.7939H91.2552L94.8397 15.6121H97.1167L100.706 25.7939H98.7374L96.018 17.7002H95.9384L93.2239 25.7939ZM93.2886 21.8018H98.6579V23.2833H93.2886V21.8018ZM107.74 20.176L106.1 20.355C106.053 20.1893 105.972 20.0335 105.856 19.8877C105.743 19.7419 105.591 19.6242 105.399 19.5347C105.206 19.4452 104.971 19.4005 104.693 19.4005C104.318 19.4005 104.003 19.4817 103.748 19.6441C103.496 19.8065 103.372 20.017 103.375 20.2755C103.372 20.4975 103.453 20.6782 103.619 20.8174C103.788 20.9566 104.066 21.0709 104.454 21.1604L105.757 21.4388C106.479 21.5946 107.016 21.8415 107.367 22.1796C107.722 22.5177 107.901 22.9601 107.904 23.507C107.901 23.9876 107.76 24.4118 107.482 24.7797C107.207 25.1443 106.824 25.4294 106.333 25.6349C105.843 25.8403 105.279 25.9431 104.643 25.9431C103.708 25.9431 102.956 25.7475 102.386 25.3564C101.816 24.962 101.476 24.4135 101.367 23.7108L103.122 23.5418C103.201 23.8865 103.37 24.1467 103.629 24.3224C103.887 24.498 104.224 24.5858 104.638 24.5858C105.065 24.5858 105.409 24.498 105.667 24.3224C105.929 24.1467 106.06 23.9296 106.06 23.6711C106.06 23.4523 105.975 23.2717 105.806 23.1292C105.641 22.9867 105.382 22.8773 105.031 22.801L103.728 22.5276C102.996 22.3751 102.454 22.1183 102.102 21.757C101.751 21.3924 101.577 20.9317 101.58 20.3749C101.577 19.9043 101.705 19.4966 101.963 19.1519C102.225 18.8039 102.588 18.5354 103.052 18.3465C103.519 18.1543 104.058 18.0581 104.668 18.0581C105.563 18.0581 106.267 18.2487 106.781 18.6299C107.298 19.011 107.618 19.5264 107.74 20.176ZM110.889 23.3976L110.884 21.2251H111.172L113.917 18.1576H116.02L112.644 21.9161H112.271L110.889 23.3976ZM109.248 25.7939V15.6121H111.048V25.7939H109.248ZM114.041 25.7939L111.555 22.3188L112.768 21.051L116.194 25.7939H114.041ZM120.145 25.9431C119.38 25.9431 118.718 25.784 118.162 25.4658C117.608 25.1443 117.182 24.6903 116.884 24.1036C116.586 23.5136 116.436 22.8193 116.436 22.0205C116.436 21.235 116.586 20.5456 116.884 19.9523C117.185 19.3557 117.606 18.8917 118.147 18.5603C118.687 18.2255 119.322 18.0581 120.051 18.0581C120.521 18.0581 120.966 18.1344 121.383 18.2868C121.804 18.436 122.175 18.668 122.497 18.9829C122.822 19.2977 123.077 19.6988 123.262 20.186C123.448 20.6699 123.541 21.2466 123.541 21.9161V22.468H117.282V21.2549H121.816C121.812 20.9102 121.738 20.6036 121.592 20.3351C121.446 20.0634 121.242 19.8496 120.98 19.6938C120.722 19.538 120.42 19.4601 120.076 19.4601C119.708 19.4601 119.385 19.5496 119.106 19.7286C118.828 19.9043 118.611 20.1363 118.455 20.4246C118.302 20.7097 118.225 21.0229 118.221 21.3643V22.4232C118.221 22.8673 118.302 23.2485 118.465 23.5667C118.627 23.8815 118.854 24.1235 119.146 24.2925C119.438 24.4582 119.779 24.5411 120.17 24.5411C120.432 24.5411 120.669 24.5046 120.881 24.4317C121.093 24.3555 121.277 24.2445 121.433 24.0986C121.589 23.9528 121.706 23.7722 121.786 23.5567L123.466 23.7456C123.36 24.1898 123.158 24.5776 122.86 24.909C122.565 25.2371 122.187 25.4923 121.726 25.6746C121.265 25.8536 120.738 25.9431 120.145 25.9431ZM127.757 25.9282C127.157 25.9282 126.62 25.7741 126.146 25.4658C125.672 25.1576 125.298 24.7101 125.023 24.1235C124.748 23.5368 124.61 22.8242 124.61 21.9857C124.61 21.1372 124.749 20.4213 125.028 19.838C125.309 19.2513 125.689 18.8089 126.166 18.5106C126.644 18.209 127.175 18.0581 127.762 18.0581C128.21 18.0581 128.577 18.1344 128.866 18.2868C129.154 18.436 129.383 18.6166 129.552 18.8287C129.721 19.0376 129.852 19.2348 129.945 19.4204H130.019V15.6121H131.824V25.7939H130.054V24.5908H129.945C129.852 24.7764 129.718 24.9736 129.542 25.1824C129.366 25.3879 129.134 25.5636 128.846 25.7094C128.558 25.8553 128.195 25.9282 127.757 25.9282ZM128.259 24.4516C128.64 24.4516 128.965 24.3489 129.234 24.1434C129.502 23.9346 129.706 23.6446 129.845 23.2733C129.984 22.9021 130.054 22.4696 130.054 21.9758C130.054 21.4819 129.984 21.0527 129.845 20.6881C129.709 20.3235 129.507 20.0402 129.239 19.838C128.974 19.6358 128.647 19.5347 128.259 19.5347C127.858 19.5347 127.523 19.6391 127.255 19.8479C126.987 20.0567 126.784 20.3451 126.648 20.713C126.513 21.0809 126.445 21.5018 126.445 21.9758C126.445 22.453 126.513 22.8789 126.648 23.2535C126.788 23.6247 126.992 23.918 127.26 24.1334C127.532 24.3456 127.865 24.4516 128.259 24.4516ZM140.807 22.3735H142.478L143.467 23.6562L144.173 24.4914L145.868 26.6689H144.079L142.925 25.2073L142.433 24.5113L140.807 22.3735ZM146.112 20.703C146.112 21.8001 145.906 22.7397 145.495 23.5219C145.088 24.3008 144.531 24.8974 143.825 25.3117C143.122 25.726 142.325 25.9331 141.434 25.9331C140.542 25.9331 139.743 25.726 139.037 25.3117C138.335 24.8941 137.778 24.2958 137.367 23.517C136.959 22.7348 136.755 21.7968 136.755 20.703C136.755 19.606 136.959 18.668 137.367 17.8891C137.778 17.1069 138.335 16.5087 139.037 16.0944C139.743 15.6801 140.542 15.4729 141.434 15.4729C142.325 15.4729 143.122 15.6801 143.825 16.0944C144.531 16.5087 145.088 17.1069 145.495 17.8891C145.906 18.668 146.112 19.606 146.112 20.703ZM144.258 20.703C144.258 19.9308 144.137 19.2795 143.895 18.7492C143.656 18.2156 143.325 17.8129 142.9 17.5411C142.476 17.266 141.987 17.1285 141.434 17.1285C140.88 17.1285 140.391 17.266 139.967 17.5411C139.543 17.8129 139.21 18.2156 138.968 18.7492C138.729 19.2795 138.61 19.9308 138.61 20.703C138.61 21.4753 138.729 22.1282 138.968 22.6618C139.21 23.1921 139.543 23.5948 139.967 23.8699C140.391 24.1417 140.88 24.2776 141.434 24.2776C141.987 24.2776 142.476 24.1417 142.9 23.8699C143.325 23.5948 143.656 23.1921 143.895 22.6618C144.137 22.1282 144.258 21.4753 144.258 20.703ZM152.517 22.5823V18.1576H154.317V25.7939H152.572V24.4367H152.492C152.32 24.8643 152.036 25.2139 151.642 25.4857C151.251 25.7575 150.769 25.8934 150.195 25.8934C149.695 25.8934 149.252 25.7823 148.868 25.5603C148.487 25.3349 148.188 25.0084 147.973 24.5809C147.758 24.15 147.65 23.6296 147.65 23.0198V18.1576H149.45V22.7414C149.45 23.2253 149.582 23.6098 149.847 23.8948C150.112 24.1798 150.46 24.3224 150.891 24.3224C151.156 24.3224 151.413 24.2577 151.662 24.1285C151.91 23.9992 152.114 23.807 152.273 23.5518C152.436 23.2932 152.517 22.9701 152.517 22.5823ZM159.408 25.9431C158.642 25.9431 157.981 25.784 157.424 25.4658C156.871 25.1443 156.445 24.6903 156.147 24.1036C155.848 23.5136 155.699 22.8193 155.699 22.0205C155.699 21.235 155.848 20.5456 156.147 19.9523C156.448 19.3557 156.869 18.8917 157.41 18.5603C157.95 18.2255 158.584 18.0581 159.314 18.0581C159.784 18.0581 160.228 18.1344 160.646 18.2868C161.067 18.436 161.438 18.668 161.76 18.9829C162.084 19.2977 162.34 19.6988 162.525 20.186C162.711 20.6699 162.804 21.2466 162.804 21.9161V22.468H156.544V21.2549H161.079C161.075 20.9102 161.001 20.6036 160.855 20.3351C160.709 20.0634 160.505 19.8496 160.243 19.6938C159.985 19.538 159.683 19.4601 159.338 19.4601C158.971 19.4601 158.647 19.5496 158.369 19.7286C158.091 19.9043 157.874 20.1363 157.718 20.4246C157.565 20.7097 157.487 21.0229 157.484 21.3643V22.4232C157.484 22.8673 157.565 23.2485 157.728 23.5667C157.89 23.8815 158.117 24.1235 158.409 24.2925C158.7 24.4582 159.042 24.5411 159.433 24.5411C159.695 24.5411 159.932 24.5046 160.144 24.4317C160.356 24.3555 160.54 24.2445 160.696 24.0986C160.852 23.9528 160.969 23.7722 161.049 23.5567L162.729 23.7456C162.623 24.1898 162.421 24.5776 162.123 24.909C161.828 25.2371 161.45 25.4923 160.989 25.6746C160.528 25.8536 160.001 25.9431 159.408 25.9431ZM170.222 20.176L168.581 20.355C168.535 20.1893 168.454 20.0335 168.338 19.8877C168.225 19.7419 168.072 19.6242 167.88 19.5347C167.688 19.4452 167.453 19.4005 167.174 19.4005C166.8 19.4005 166.485 19.4817 166.23 19.6441C165.978 19.8065 165.853 20.017 165.857 20.2755C165.853 20.4975 165.935 20.6782 166.1 20.8174C166.269 20.9566 166.548 21.0709 166.936 21.1604L168.238 21.4388C168.961 21.5946 169.498 21.8415 169.849 22.1796C170.204 22.5177 170.382 22.9601 170.386 23.507C170.382 23.9876 170.242 24.4118 169.963 24.7797C169.688 25.1443 169.305 25.4294 168.815 25.6349C168.324 25.8403 167.761 25.9431 167.124 25.9431C166.19 25.9431 165.437 25.7475 164.867 25.3564C164.297 24.962 163.958 24.4135 163.848 23.7108L165.603 23.5418C165.683 23.8865 165.852 24.1467 166.11 24.3224C166.369 24.498 166.705 24.5858 167.119 24.5858C167.547 24.5858 167.89 24.498 168.149 24.3224C168.41 24.1467 168.541 23.9296 168.541 23.6711C168.541 23.4523 168.457 23.2717 168.288 23.1292C168.122 22.9867 167.864 22.8773 167.512 22.801L166.21 22.5276C165.477 22.3751 164.935 22.1183 164.584 21.757C164.233 21.3924 164.059 20.9317 164.062 20.3749C164.059 19.9043 164.186 19.4966 164.445 19.1519C164.707 18.8039 165.07 18.5354 165.534 18.3465C166.001 18.1543 166.539 18.0581 167.149 18.0581C168.044 18.0581 168.748 18.2487 169.262 18.6299C169.779 19.011 170.099 19.5264 170.222 20.176ZM175.543 18.1576V19.5496H171.153V18.1576H175.543ZM172.237 16.328H174.037V23.4971C174.037 23.739 174.073 23.9246 174.146 24.0539C174.222 24.1798 174.322 24.266 174.444 24.3124C174.567 24.3588 174.703 24.382 174.852 24.382C174.965 24.382 175.067 24.3737 175.16 24.3572C175.256 24.3406 175.329 24.3257 175.379 24.3124L175.682 25.7194C175.586 25.7525 175.449 25.789 175.27 25.8287C175.094 25.8685 174.879 25.8917 174.623 25.8983C174.173 25.9116 173.767 25.8437 173.405 25.6945C173.044 25.5421 172.757 25.3067 172.545 24.9885C172.336 24.6704 172.234 24.2726 172.237 23.7954V16.328ZM176.908 25.7939V18.1576H178.708V25.7939H176.908ZM177.813 17.0738C177.528 17.0738 177.283 16.9793 177.077 16.7904C176.872 16.5982 176.769 16.3678 176.769 16.0993C176.769 15.8276 176.872 15.5972 177.077 15.4083C177.283 15.2161 177.528 15.1199 177.813 15.1199C178.101 15.1199 178.347 15.2161 178.549 15.4083C178.754 15.5972 178.857 15.8276 178.857 16.0993C178.857 16.3678 178.754 16.5982 178.549 16.7904C178.347 16.9793 178.101 17.0738 177.813 17.0738ZM183.75 25.9431C183.004 25.9431 182.358 25.779 181.811 25.4509C181.264 25.1228 180.84 24.6637 180.538 24.0738C180.24 23.4838 180.09 22.7944 180.09 22.0056C180.09 21.2168 180.24 20.5257 180.538 19.9324C180.84 19.3392 181.264 18.8785 181.811 18.5503C182.358 18.2222 183.004 18.0581 183.75 18.0581C184.495 18.0581 185.142 18.2222 185.688 18.5503C186.235 18.8785 186.658 19.3392 186.956 19.9324C187.258 20.5257 187.409 21.2168 187.409 22.0056C187.409 22.7944 187.258 23.4838 186.956 24.0738C186.658 24.6637 186.235 25.1228 185.688 25.4509C185.142 25.779 184.495 25.9431 183.75 25.9431ZM183.759 24.5013C184.164 24.5013 184.502 24.3903 184.774 24.1682C185.045 23.9429 185.248 23.6412 185.38 23.2634C185.516 22.8856 185.584 22.4646 185.584 22.0006C185.584 21.5333 185.516 21.1107 185.38 20.7329C185.248 20.3517 185.045 20.0484 184.774 19.8231C184.502 19.5977 184.164 19.485 183.759 19.485C183.345 19.485 183 19.5977 182.725 19.8231C182.454 20.0484 182.25 20.3517 182.114 20.7329C181.981 21.1107 181.915 21.5333 181.915 22.0006C181.915 22.4646 181.981 22.8856 182.114 23.2634C182.25 23.6412 182.454 23.9429 182.725 24.1682C183 24.3903 183.345 24.5013 183.759 24.5013ZM190.596 21.3195V25.7939H188.796V18.1576H190.516V19.4552H190.606C190.781 19.0276 191.062 18.6879 191.446 18.436C191.834 18.1841 192.313 18.0581 192.883 18.0581C193.41 18.0581 193.869 18.1708 194.26 18.3962C194.654 18.6216 194.959 18.9481 195.175 19.3756C195.393 19.8032 195.501 20.3219 195.498 20.9317V25.7939H193.698V21.2101C193.698 20.6997 193.566 20.3003 193.3 20.012C193.039 19.7236 192.676 19.5795 192.212 19.5795C191.897 19.5795 191.617 19.6491 191.371 19.7883C191.129 19.9242 190.939 20.1214 190.8 20.3799C190.664 20.6384 190.596 20.9516 190.596 21.3195ZM203.223 20.176L201.582 20.355C201.536 20.1893 201.455 20.0335 201.339 19.8877C201.226 19.7419 201.074 19.6242 200.881 19.5347C200.689 19.4452 200.454 19.4005 200.175 19.4005C199.801 19.4005 199.486 19.4817 199.231 19.6441C198.979 19.8065 198.855 20.017 198.858 20.2755C198.855 20.4975 198.936 20.6782 199.101 20.8174C199.271 20.9566 199.549 21.0709 199.937 21.1604L201.239 21.4388C201.962 21.5946 202.499 21.8415 202.85 22.1796C203.205 22.5177 203.384 22.9601 203.387 23.507C203.384 23.9876 203.243 24.4118 202.964 24.7797C202.689 25.1443 202.306 25.4294 201.816 25.6349C201.325 25.8403 200.762 25.9431 200.126 25.9431C199.191 25.9431 198.439 25.7475 197.869 25.3564C197.298 24.962 196.959 24.4135 196.849 23.7108L198.604 23.5418C198.684 23.8865 198.853 24.1467 199.111 24.3224C199.37 24.498 199.706 24.5858 200.121 24.5858C200.548 24.5858 200.891 24.498 201.15 24.3224C201.412 24.1467 201.543 23.9296 201.543 23.6711C201.543 23.4523 201.458 23.2717 201.289 23.1292C201.123 22.9867 200.865 22.8773 200.513 22.801L199.211 22.5276C198.478 22.3751 197.936 22.1183 197.585 21.757C197.234 21.3924 197.06 20.9317 197.063 20.3749C197.06 19.9043 197.187 19.4966 197.446 19.1519C197.708 18.8039 198.071 18.5354 198.535 18.3465C199.002 18.1543 199.541 18.0581 200.15 18.0581C201.045 18.0581 201.75 18.2487 202.263 18.6299C202.78 19.011 203.1 19.5264 203.223 20.176Z" fill="url(#paint1_linear_30_2967)"/>
<defs>
<linearGradient id="paint0_linear_30_2967" x1="-67.9668" y1="18.3549" x2="255.484" y2="28.1836" gradientUnits="userSpaceOnUse">
<stop stop-color="#2C6BAC"/>
<stop offset="1" stop-color="#38B2AC"/>
</linearGradient>
<linearGradient id="paint1_linear_30_2967" x1="-42.0807" y1="19.0866" x2="234.197" y2="29.3353" gradientUnits="userSpaceOnUse">
<stop stop-color="#2C6BAC"/>
<stop offset="1" stop-color="#38B2AC"/>
</linearGradient>
</defs>
</svg>
