<svg width="28" height="29" viewBox="0 0 28 29" fill="none" xmlns="http://www.w3.org/2000/svg">
<g clip-path="url(#clip0_290_9072)">
<path d="M11.667 22.4063V16.5729H16.3337V22.4063C16.3337 23.0479 16.8587 23.5729 17.5004 23.5729H21.0004C21.642 23.5729 22.167 23.0479 22.167 22.4063V14.2396H24.1504C24.687 14.2396 24.9437 13.5746 24.5354 13.2246L14.782 4.43959C14.3387 4.04292 13.662 4.04292 13.2187 4.43959L3.46536 13.2246C3.06869 13.5746 3.31369 14.2396 3.85036 14.2396H5.83369V22.4063C5.83369 23.0479 6.35869 23.5729 7.00036 23.5729H10.5004C11.142 23.5729 11.667 23.0479 11.667 22.4063Z" fill="#2C6BAC"/>
</g>
<defs>
<clipPath id="clip0_290_9072">
<rect width="28" height="28" fill="white" transform="translate(0 0.239746)"/>
</clipPath>
</defs>
</svg>
