<svg width="168" height="31" viewBox="0 0 168 31" fill="none" xmlns="http://www.w3.org/2000/svg">
<g clip-path="url(#clip0_290_9053)">
<path d="M45.7902 2.08296C45.7754 2.05631 45.7473 2.0415 45.7162 2.0415H36.984C36.4066 2.0415 35.8662 2.35242 35.5731 2.85135L31.5283 9.78024C31.3343 10.1119 30.976 10.3177 30.5926 10.3177C25.9526 10.3177 23.1825 7.5476 23.1825 2.9091C23.1825 2.76993 23.07 2.6574 22.9308 2.6574C22.7917 2.6574 22.6806 2.76993 22.6806 2.9091C22.6806 3.2511 22.6658 3.58866 22.6347 3.91141C22.5133 5.21132 22.0706 7.05014 20.6449 8.42703C19.382 9.64699 17.4736 10.3177 15.2706 10.3177H15.2084C14.8249 10.3177 14.4666 10.1119 14.2727 9.78024L10.2279 2.85135C9.93621 2.35242 9.39582 2.0415 8.81841 2.0415H0.0862409C0.0566303 2.0415 0.0285002 2.05779 0.0122144 2.08296C-0.00407146 2.10813 -0.00407146 2.1407 0.0122144 2.16735C2.66829 6.94354 5.07415 9.86463 9.50982 10.6582C10.2116 10.7826 10.9341 10.8462 11.6596 10.8462H15.2735C15.3446 10.8462 15.4157 10.8462 15.4867 10.8433C15.6244 10.8403 15.7651 10.8388 15.9042 10.8462C17.1656 10.9173 18.9749 11.2667 20.4302 12.5192C22.3904 14.2055 22.6836 16.8202 22.6836 18.2281C22.6836 18.3673 22.7961 18.4798 22.9338 18.4798C23.0715 18.4798 23.1855 18.3673 23.1855 18.2281C23.1855 13.6059 25.9556 10.8462 30.5955 10.8462H34.1459C34.8713 10.8462 35.5938 10.7826 36.2956 10.6582C40.7313 9.86463 43.1371 6.94354 45.7932 2.16735C45.808 2.1407 45.808 2.10813 45.7932 2.08296H45.7902Z" fill="url(#paint0_linear_290_9053)"/>
<path d="M30.5171 11.7573L30.4135 11.7617C30.3839 11.7617 30.3587 11.7795 30.3439 11.8047L24.2826 22.1891C24.2678 22.2158 24.2678 22.2483 24.2826 22.275L28.813 30.0359C28.887 30.1633 29.0203 30.2388 29.1669 30.2388C29.3134 30.2388 29.4467 30.1633 29.5192 30.0359L35.4147 19.9372C36.4333 18.1917 36.42 16.1145 35.3762 14.3808C34.3398 12.656 32.5247 11.6744 30.5171 11.7573Z" fill="url(#paint1_linear_290_9053)"/>
<path d="M15.2847 11.7573L15.3883 11.7617C15.4179 11.7617 15.4431 11.7795 15.4579 11.8047L21.5192 22.1891C21.534 22.2158 21.534 22.2483 21.5192 22.275L16.9888 30.0359C16.9147 30.1633 16.7815 30.2388 16.6349 30.2388C16.4883 30.2388 16.3551 30.1633 16.2826 30.0359L10.3871 19.9372C9.36848 18.1917 9.3818 16.1145 10.4256 14.3808C11.4619 12.656 13.2771 11.6744 15.2847 11.7573Z" fill="url(#paint2_linear_290_9053)"/>
<path d="M95.6403 16.0106C95.319 13.7572 94.3108 11.8725 92.6171 10.3639C90.9219 8.85372 88.938 8.09717 86.6639 8.09717C84.1544 8.09717 82.0106 9.00621 80.2295 10.8228C78.4484 12.6394 77.5586 14.8291 77.5586 17.3905C77.5586 19.9518 78.4484 22.1385 80.2295 23.9566C82.0106 25.7732 84.1544 26.6823 86.6639 26.6823C87.6973 26.6823 88.6996 26.5031 89.6782 26.1478V21.0355C88.9276 21.687 87.8424 21.9209 86.6639 21.9209C85.8496 21.9209 85.1034 21.7195 84.4283 21.3124C83.7531 20.9082 83.2172 20.3619 82.8204 19.672C82.4236 18.9835 82.2252 18.2225 82.2252 17.3919C82.2252 16.1424 82.659 15.0823 83.5281 14.2073C84.3957 13.3323 85.4424 12.8941 86.6639 12.8941C87.6292 12.8941 88.4982 13.1843 89.2696 13.7632C90.0424 14.342 90.5784 15.0927 90.8789 16.0121C91.0077 16.4503 91.0729 16.9093 91.0729 17.3919V25.8932H95.7366V17.1936C95.7366 16.7997 95.7055 16.4059 95.6403 16.0121V16.0106Z" fill="url(#paint3_linear_290_9053)"/>
<path d="M102.316 5.38311C101.733 5.96792 101.037 6.25959 100.225 6.25959C99.4141 6.25959 98.7212 5.96792 98.1497 5.38311C97.5768 4.7983 97.291 4.09209 97.291 3.26447C97.291 2.43685 97.5768 1.7262 98.1497 1.13103C98.7227 0.537333 99.4141 0.239746 100.225 0.239746C101.037 0.239746 101.733 0.537333 102.316 1.13103C102.898 1.7262 103.189 2.43685 103.189 3.26447C103.189 4.09209 102.898 4.7983 102.316 5.38311ZM166.165 5.38311C165.582 5.96792 164.886 6.25959 164.075 6.25959C163.263 6.25959 162.571 5.96792 161.999 5.38311C161.426 4.7983 161.14 4.09209 161.14 3.26447C161.14 2.43685 161.426 1.7262 161.999 1.13103C162.572 0.537333 163.263 0.239746 164.075 0.239746C164.886 0.239746 165.582 0.537333 166.165 1.13103C166.747 1.7262 167.039 2.43685 167.039 3.26447C167.039 4.09209 166.747 4.7983 166.165 5.38311ZM102.587 25.8914H97.8891V8.09841H102.587V25.8914Z" fill="url(#paint4_linear_290_9053)"/>
<path d="M115.797 8.09912H120.879L115.314 25.9588H110.263L104.697 8.09912H109.78L112.772 19.7539L115.797 8.09912Z" fill="url(#paint5_linear_290_9053)"/>
<path d="M126.341 13.5137C126.318 13.9298 126.523 14.2969 126.952 14.6138C127.381 14.9306 127.928 15.1838 128.592 15.3688C129.257 15.5554 129.971 15.7952 130.732 16.0913C131.493 16.3874 132.196 16.7102 132.839 17.0596C133.483 17.4105 133.996 17.9302 134.383 18.6186C134.769 19.3085 134.929 20.1243 134.865 21.0644C134.823 21.4361 134.747 21.8254 134.64 22.2296C134.532 22.6353 134.313 23.1268 133.982 23.7072C133.648 24.2876 133.231 24.785 132.726 25.201C132.221 25.6171 131.509 25.9517 130.587 26.2019C129.664 26.4536 128.603 26.535 127.402 26.4477C125.75 26.2937 124.447 25.9058 123.494 25.2825C122.539 24.6592 121.837 23.9426 121.387 23.1327L125.279 20.3745C125.429 20.8335 125.729 21.2495 126.179 21.6226C126.629 21.9942 127.134 22.203 127.691 22.2459C129.149 22.3777 129.922 21.9616 130.008 20.9978C130.029 20.6262 129.885 20.3197 129.574 20.0784C129.263 19.8386 128.844 19.6461 128.32 19.504C127.794 19.3618 127.216 19.2197 126.583 19.0776C125.951 18.9354 125.318 18.7385 124.685 18.4868C124.053 18.2352 123.485 17.9242 122.98 17.5511C122.475 17.1795 122.08 16.6599 121.789 15.9921C121.499 15.3244 121.397 14.5427 121.484 13.6455C121.613 11.9385 122.407 10.5867 123.865 9.59181C125.323 8.59541 127.179 8.19715 129.43 8.39406C131.811 8.59097 133.656 9.64215 134.965 11.5461L131.78 14.2051C131.502 13.4619 130.921 12.9141 130.043 12.5632C129.164 12.2138 128.333 12.1309 127.55 12.3175C126.767 12.504 126.364 12.9038 126.344 13.5152L126.341 13.5137Z" fill="url(#paint6_linear_290_9053)"/>
<path d="M140.199 25.0045C139.782 25.4427 139.271 25.6604 138.671 25.6604C138.072 25.6604 137.561 25.4412 137.143 25.0045C136.726 24.5662 136.516 24.0466 136.516 23.4455C136.516 22.8444 136.724 22.3292 137.143 21.9028C137.562 21.4764 138.072 21.2632 138.671 21.2632C139.271 21.2632 139.782 21.4764 140.199 21.9028C140.617 22.3292 140.827 22.8444 140.827 23.4455C140.827 24.0466 140.618 24.5677 140.199 25.0045Z" fill="url(#paint7_linear_290_9053)"/>
<path d="M159.478 16.0111C159.541 16.4049 159.574 16.7987 159.574 17.1925V25.8921H154.909V17.3895C154.909 16.9083 154.845 16.4493 154.716 16.0111C154.416 15.0917 153.88 14.3425 153.107 13.7622C152.334 13.1833 151.467 12.8916 150.501 12.8916C149.278 12.8916 148.233 13.3298 147.364 14.2048C146.495 15.0798 146.061 16.1414 146.061 17.3895C146.061 18.2215 146.26 18.981 146.656 19.671C147.053 20.3609 147.589 20.9072 148.264 21.3129C148.939 21.7185 149.686 21.9199 150.5 21.9199C151.809 21.9199 152.891 21.4269 153.75 20.4423V26.0565C152.698 26.4725 151.615 26.6798 150.5 26.6798C147.99 26.6798 145.845 25.7722 144.065 23.9556C142.284 22.139 141.395 19.9508 141.395 17.3895C141.395 14.8281 142.284 12.6399 144.065 10.8233C145.845 9.00669 147.99 8.09912 150.5 8.09912C152.772 8.09912 154.758 8.85419 156.452 10.3643C158.145 11.8745 159.154 13.7577 159.476 16.0111H159.478Z" fill="url(#paint8_linear_290_9053)"/>
<path d="M166.329 25.8921H161.631V8.09912H166.329V25.8921Z" fill="url(#paint9_linear_290_9053)"/>
<path d="M75.8243 14.1132C76.042 13.4514 76.5957 11.617 77.3211 10.4918C79.7803 6.68091 84.1049 5.55274 86.7358 5.55274V0.943848C83.6519 0.943848 80.3873 1.92692 77.7816 3.64138C76.076 4.76214 74.6044 6.22194 73.4866 7.92899C72.9876 8.69147 72.5982 9.51168 72.2488 10.3511C71.8698 11.2676 71.5545 12.1885 71.3057 13.1493L69.5928 19.754L66.6006 8.09925H62.353L59.3282 19.754L56.3361 8.09925H51.252L56.8187 25.9589H60.9687L64.4761 14.7306L67.9494 25.9589H72.1319L75.8243 14.1147V14.1132Z" fill="url(#paint10_linear_290_9053)"/>
</g>
<defs>
<linearGradient id="paint0_linear_290_9053" x1="7.64139" y1="28.654" x2="25.7394" y2="-2.79687" gradientUnits="userSpaceOnUse">
<stop offset="0.21" stop-color="#3A80F2"/>
<stop offset="0.85" stop-color="#1BABB0"/>
</linearGradient>
<linearGradient id="paint1_linear_290_9053" x1="21.0432" y1="36.3667" x2="39.1412" y2="4.91577" gradientUnits="userSpaceOnUse">
<stop offset="0.21" stop-color="#3A80F2"/>
<stop offset="0.85" stop-color="#1BABB0"/>
</linearGradient>
<linearGradient id="paint2_linear_290_9053" x1="9.4351" y1="29.688" x2="27.5331" y2="-1.76439" gradientUnits="userSpaceOnUse">
<stop offset="0.21" stop-color="#3A80F2"/>
<stop offset="0.85" stop-color="#1BABB0"/>
</linearGradient>
<linearGradient id="paint3_linear_290_9053" x1="66.2355" y1="45.5457" x2="117.631" y2="-18.8085" gradientUnits="userSpaceOnUse">
<stop offset="0.21" stop-color="#3A80F2"/>
<stop offset="0.85" stop-color="#1BABB0"/>
</linearGradient>
<linearGradient id="paint4_linear_290_9053" x1="85.8672" y1="61.2228" x2="137.261" y2="-3.12994" gradientUnits="userSpaceOnUse">
<stop offset="0.21" stop-color="#3A80F2"/>
<stop offset="0.85" stop-color="#1BABB0"/>
</linearGradient>
<linearGradient id="paint5_linear_290_9053" x1="79.0545" y1="55.7841" x2="130.45" y2="-8.56872" gradientUnits="userSpaceOnUse">
<stop offset="0.21" stop-color="#3A80F2"/>
<stop offset="0.85" stop-color="#1BABB0"/>
</linearGradient>
<linearGradient id="paint6_linear_290_9053" x1="90.34" y1="64.7949" x2="141.735" y2="0.442121" gradientUnits="userSpaceOnUse">
<stop offset="0.21" stop-color="#3A80F2"/>
<stop offset="0.85" stop-color="#1BABB0"/>
</linearGradient>
<linearGradient id="paint7_linear_290_9053" x1="99.6889" y1="72.263" x2="151.084" y2="7.9088" gradientUnits="userSpaceOnUse">
<stop offset="0.21" stop-color="#3A80F2"/>
<stop offset="0.85" stop-color="#1BABB0"/>
</linearGradient>
<linearGradient id="paint8_linear_290_9053" x1="105.213" y1="76.6744" x2="156.608" y2="12.3201" gradientUnits="userSpaceOnUse">
<stop offset="0.21" stop-color="#3A80F2"/>
<stop offset="0.85" stop-color="#1BABB0"/>
</linearGradient>
<linearGradient id="paint9_linear_290_9053" x1="111.994" y1="82.0901" x2="163.388" y2="17.7357" gradientUnits="userSpaceOnUse">
<stop offset="0.21" stop-color="#3A80F2"/>
<stop offset="0.85" stop-color="#1BABB0"/>
</linearGradient>
<linearGradient id="paint10_linear_290_9053" x1="49.5553" y1="32.2245" x2="100.95" y2="-32.1297" gradientUnits="userSpaceOnUse">
<stop offset="0.21" stop-color="#3A80F2"/>
<stop offset="0.85" stop-color="#1BABB0"/>
</linearGradient>
<clipPath id="clip0_290_9053">
<rect width="167.038" height="30" fill="white" transform="translate(0 0.239746)"/>
</clipPath>
</defs>
</svg>
