<svg width="115" height="21" viewBox="0 0 115 21" fill="none" xmlns="http://www.w3.org/2000/svg">
<g clip-path="url(#clip0_30_2997)">
<path d="M32.1 1.46854C32.0899 1.45024 32.0707 1.44008 32.0495 1.44008H26.0889C25.6948 1.44008 25.3259 1.6535 25.1258 1.996L22.3648 6.75233C22.2325 6.97998 21.9879 7.12125 21.7261 7.12125C18.5589 7.12125 16.6681 5.21973 16.6681 2.03564C16.6681 1.9401 16.5913 1.86286 16.4963 1.86286C16.4013 1.86286 16.3255 1.9401 16.3255 2.03564C16.3255 2.2704 16.3154 2.50212 16.2941 2.72368C16.2113 3.616 15.9091 4.87825 14.9359 5.82342C14.0738 6.66086 12.7712 7.12125 11.2674 7.12125H11.2249C10.9632 7.12125 10.7186 6.97998 10.5862 6.75233L7.82526 1.996C7.62618 1.6535 7.2573 1.44008 6.86317 1.44008H0.902618C0.882406 1.44008 0.863204 1.45126 0.852087 1.46854C0.840971 1.48581 0.840971 1.50817 0.852087 1.52646C2.66511 4.80508 4.30735 6.81026 7.33512 7.355C7.81415 7.44037 8.30732 7.48407 8.80252 7.48407H11.2694C11.3179 7.48407 11.3664 7.48407 11.4149 7.48204C11.5089 7.48001 11.6049 7.47899 11.6999 7.48407C12.561 7.53285 13.7959 7.7727 14.7893 8.6325C16.1274 9.79008 16.3275 11.5849 16.3275 12.5514C16.3275 12.6469 16.4043 12.7242 16.4983 12.7242C16.5923 12.7242 16.6701 12.6469 16.6701 12.5514C16.6701 9.37847 18.5609 7.48407 21.7282 7.48407H24.1516C24.6468 7.48407 25.14 7.44037 25.619 7.355C28.6468 6.81026 30.289 4.80508 32.102 1.52646C32.1121 1.50817 32.1121 1.48581 32.102 1.46854H32.1Z" fill="url(#paint0_linear_30_2997)"/>
<path d="M21.6733 8.10948L21.6025 8.11253C21.5823 8.11253 21.5651 8.12473 21.555 8.142L17.4176 15.2704C17.4075 15.2887 17.4075 15.311 17.4176 15.3293L20.5101 20.6568C20.5606 20.7442 20.6516 20.7961 20.7516 20.7961C20.8517 20.7961 20.9426 20.7442 20.9921 20.6568L25.0164 13.7246C25.7117 12.5264 25.7026 11.1005 24.9901 9.91038C24.2827 8.72638 23.0437 8.05257 21.6733 8.10948Z" fill="url(#paint1_linear_30_2997)"/>
<path d="M11.2798 8.10948L11.3506 8.11253C11.3708 8.11253 11.388 8.12473 11.3981 8.142L15.5355 15.2704C15.5456 15.2887 15.5456 15.311 15.5355 15.3293L12.443 20.6568C12.3925 20.7442 12.3015 20.7961 12.2015 20.7961C12.1014 20.7961 12.0105 20.7442 11.961 20.6568L7.93674 13.7246C7.24144 12.5264 7.25053 11.1005 7.96301 9.91038C8.67043 8.72638 9.90944 8.05257 11.2798 8.10948Z" fill="url(#paint2_linear_30_2997)"/>
<path d="M66.1238 11.0292C65.9045 9.48234 65.2163 8.18858 64.0601 7.15296C62.903 6.11633 61.5488 5.59699 59.9965 5.59699C58.2835 5.59699 56.8201 6.22101 55.6044 7.46802C54.3886 8.71503 53.7812 10.2182 53.7812 11.9764C53.7812 13.7346 54.3886 15.2357 55.6044 16.4837C56.8201 17.7307 58.2835 18.3547 59.9965 18.3547C60.7019 18.3547 61.3861 18.2318 62.0541 17.9878V14.4785C61.5417 14.9257 60.8009 15.0863 59.9965 15.0863C59.4406 15.0863 58.9313 14.9481 58.4705 14.6686C58.0096 14.3911 57.6438 14.0161 57.3729 13.5425C57.1021 13.0699 56.9667 12.5475 56.9667 11.9774C56.9667 11.1196 57.2628 10.3919 57.856 9.7913C58.4482 9.19066 59.1627 8.88984 59.9965 8.88984C60.6554 8.88984 61.2486 9.08903 61.7751 9.48641C62.3027 9.88379 62.6685 10.3991 62.8737 11.0302C62.9616 11.331 63.0061 11.6461 63.0061 11.9774V17.813H66.1895V11.8412C66.1895 11.5709 66.1682 11.3005 66.1238 11.0302V11.0292Z" fill="url(#paint3_linear_30_2997)"/>
<path d="M70.68 3.73393C70.2818 4.13537 69.8068 4.33559 69.253 4.33559C68.6992 4.33559 68.2262 4.13537 67.8361 3.73393C67.445 3.33249 67.25 2.84771 67.25 2.27959C67.25 1.71147 67.445 1.22364 67.8361 0.815088C68.2273 0.407548 68.6992 0.20327 69.253 0.20327C69.8068 0.20327 70.2818 0.407548 70.68 0.815088C71.0772 1.22364 71.2762 1.71147 71.2762 2.27959C71.2762 2.84771 71.0772 3.33249 70.68 3.73393ZM114.263 3.73393C113.865 4.13537 113.39 4.33559 112.836 4.33559C112.283 4.33559 111.81 4.13537 111.42 3.73393C111.028 3.33249 110.833 2.84771 110.833 2.27959C110.833 1.71147 111.028 1.22364 111.42 0.815088C111.811 0.407548 112.283 0.20327 112.836 0.20327C113.39 0.20327 113.865 0.407548 114.263 0.815088C114.661 1.22364 114.86 1.71147 114.86 2.27959C114.86 2.84771 114.661 3.33249 114.263 3.73393ZM70.8649 17.8118H67.6583V5.59784H70.8649V17.8118Z" fill="url(#paint4_linear_30_2997)"/>
<path d="M79.8812 5.59834H83.3506L79.5517 17.8581H76.1036L72.3047 5.59834H75.7741L77.8165 13.5987L79.8812 5.59834Z" fill="url(#paint5_linear_30_2997)"/>
<path d="M87.0807 9.31519C87.0655 9.60077 87.205 9.85282 87.4981 10.0703C87.7912 10.2878 88.1641 10.4616 88.6178 10.5886C89.0716 10.7167 89.5587 10.8813 90.0782 11.0846C90.5976 11.2878 91.0776 11.5094 91.5162 11.7493C91.9559 11.9901 92.3065 12.3468 92.5703 12.8194C92.8341 13.293 92.9432 13.853 92.8998 14.4984C92.8705 14.7535 92.8189 15.0208 92.7462 15.2982C92.6724 15.5767 92.5228 15.9141 92.2964 16.3125C92.0691 16.7109 91.7841 17.0524 91.4394 17.3379C91.0948 17.6235 90.6087 17.8532 89.9791 18.025C89.3495 18.1977 88.6249 18.2536 87.8053 18.1937C86.6775 18.088 85.7881 17.8217 85.1373 17.3938C84.4855 16.966 84.0064 16.4741 83.6992 15.9182L86.3561 14.0248C86.4582 14.3398 86.6633 14.6254 86.9705 14.8815C87.2778 15.1366 87.6224 15.2799 88.0024 15.3094C88.9978 15.3998 89.5254 15.1143 89.584 14.4526C89.5981 14.1975 89.5001 13.9872 89.2879 13.8215C89.0756 13.6569 88.7896 13.5247 88.4319 13.4272C88.0731 13.3296 87.678 13.232 87.2464 13.1345C86.8149 13.0369 86.3824 12.9017 85.9508 12.729C85.5193 12.5562 85.1312 12.3428 84.7866 12.0867C84.442 11.8316 84.1722 11.4748 83.9741 11.0165C83.776 10.5581 83.7063 10.0215 83.7659 9.40564C83.8538 8.23384 84.3955 7.30595 85.391 6.62299C86.3864 5.93901 87.6527 5.66562 89.1898 5.80079C90.8149 5.93596 92.0741 6.65754 92.9675 7.96452L90.7937 9.78981C90.6037 9.27962 90.2075 8.90358 89.6082 8.66272C89.0079 8.42287 88.441 8.36596 87.9064 8.49401C87.3718 8.62207 87.0969 8.89647 87.0827 9.31621L87.0807 9.31519Z" fill="url(#paint6_linear_30_2997)"/>
<path d="M96.5417 17.203C96.2567 17.5038 95.9081 17.6532 95.4988 17.6532C95.0895 17.6532 94.7408 17.5028 94.4558 17.203C94.1708 16.9022 94.0273 16.5455 94.0273 16.1328C94.0273 15.7202 94.1698 15.3665 94.4558 15.0738C94.7418 14.7811 95.0895 14.6348 95.4988 14.6348C95.9081 14.6348 96.2567 14.7811 96.5417 15.0738C96.8267 15.3665 96.9702 15.7202 96.9702 16.1328C96.9702 16.5455 96.8277 16.9032 96.5417 17.203Z" fill="url(#paint7_linear_30_2997)"/>
<path d="M109.695 11.0295C109.739 11.2998 109.761 11.5702 109.761 11.8405V17.8123H106.576V11.9757C106.576 11.6454 106.533 11.3303 106.445 11.0295C106.24 10.3984 105.874 9.88411 105.346 9.48572C104.819 9.08834 104.227 8.88813 103.568 8.88813C102.733 8.88813 102.02 9.18896 101.426 9.7896C100.833 10.3902 100.537 11.1189 100.537 11.9757C100.537 12.5468 100.672 13.0682 100.943 13.5418C101.214 14.0154 101.58 14.3904 102.041 14.6689C102.502 14.9474 103.011 15.0856 103.567 15.0856C104.46 15.0856 105.199 14.7472 105.785 14.0713V17.9252C105.068 18.2107 104.328 18.353 103.567 18.353C101.854 18.353 100.389 17.73 99.1747 16.483C97.9589 15.236 97.3516 13.7339 97.3516 11.9757C97.3516 10.2175 97.9589 8.71536 99.1747 7.46834C100.389 6.22133 101.854 5.59834 103.567 5.59834C105.118 5.59834 106.473 6.11665 107.629 7.15329C108.786 8.18992 109.474 9.48267 109.694 11.0295H109.695Z" fill="url(#paint8_linear_30_2997)"/>
<path d="M114.375 17.8123H111.168V5.59834H114.375V17.8123Z" fill="url(#paint9_linear_30_2997)"/>
<path d="M52.6011 9.72667C52.7497 9.27238 53.1277 8.01317 53.6229 7.24078C55.3015 4.6248 58.2535 3.85037 60.0493 3.85037V0.686598C57.9442 0.686598 55.7158 1.36143 53.9372 2.53831C52.7729 3.30766 51.7684 4.30974 51.0054 5.48155C50.6648 6.00495 50.399 6.56798 50.1605 7.14423C49.9018 7.77332 49.6866 8.40547 49.5168 9.06505L48.3475 13.5988L46.3051 5.59842H43.4056L41.341 13.5988L39.2985 5.59842H35.8281L39.628 17.8582H42.4607L44.8549 10.1505L47.2257 17.8582H50.0807L52.6011 9.72769V9.72667Z" fill="url(#paint10_linear_30_2997)"/>
</g>
<defs>
<linearGradient id="paint0_linear_30_2997" x1="6.05974" y1="19.7082" x2="18.5181" y2="-1.82059" gradientUnits="userSpaceOnUse">
<stop offset="0.21" stop-color="#3A80F2"/>
<stop offset="0.85" stop-color="#1BABB0"/>
</linearGradient>
<linearGradient id="paint1_linear_30_2997" x1="15.2064" y1="25.0026" x2="27.6648" y2="3.47374" gradientUnits="userSpaceOnUse">
<stop offset="0.21" stop-color="#3A80F2"/>
<stop offset="0.85" stop-color="#1BABB0"/>
</linearGradient>
<linearGradient id="paint2_linear_30_2997" x1="7.28692" y1="20.418" x2="19.7453" y2="-1.11185" gradientUnits="userSpaceOnUse">
<stop offset="0.21" stop-color="#3A80F2"/>
<stop offset="0.85" stop-color="#1BABB0"/>
</linearGradient>
<linearGradient id="paint3_linear_30_2997" x1="46.0521" y1="31.3035" x2="81.3757" y2="-12.6785" gradientUnits="userSpaceOnUse">
<stop offset="0.21" stop-color="#3A80F2"/>
<stop offset="0.85" stop-color="#1BABB0"/>
</linearGradient>
<linearGradient id="paint4_linear_30_2997" x1="59.4522" y1="42.0651" x2="94.7747" y2="-1.91596" gradientUnits="userSpaceOnUse">
<stop offset="0.21" stop-color="#3A80F2"/>
<stop offset="0.85" stop-color="#1BABB0"/>
</linearGradient>
<linearGradient id="paint5_linear_30_2997" x1="54.801" y1="38.3316" x2="90.1246" y2="-5.6494" gradientUnits="userSpaceOnUse">
<stop offset="0.21" stop-color="#3A80F2"/>
<stop offset="0.85" stop-color="#1BABB0"/>
</linearGradient>
<linearGradient id="paint6_linear_30_2997" x1="62.5068" y1="44.5171" x2="97.8304" y2="0.536082" gradientUnits="userSpaceOnUse">
<stop offset="0.21" stop-color="#3A80F2"/>
<stop offset="0.85" stop-color="#1BABB0"/>
</linearGradient>
<linearGradient id="paint7_linear_30_2997" x1="68.8895" y1="49.6436" x2="104.213" y2="5.66157" gradientUnits="userSpaceOnUse">
<stop offset="0.21" stop-color="#3A80F2"/>
<stop offset="0.85" stop-color="#1BABB0"/>
</linearGradient>
<linearGradient id="paint8_linear_30_2997" x1="72.6544" y1="52.6718" x2="107.978" y2="8.68971" gradientUnits="userSpaceOnUse">
<stop offset="0.21" stop-color="#3A80F2"/>
<stop offset="0.85" stop-color="#1BABB0"/>
</linearGradient>
<linearGradient id="paint9_linear_30_2997" x1="77.2863" y1="56.3894" x2="112.609" y2="12.4073" gradientUnits="userSpaceOnUse">
<stop offset="0.21" stop-color="#3A80F2"/>
<stop offset="0.85" stop-color="#1BABB0"/>
</linearGradient>
<linearGradient id="paint10_linear_30_2997" x1="34.67" y1="22.1592" x2="69.9935" y2="-21.8229" gradientUnits="userSpaceOnUse">
<stop offset="0.21" stop-color="#3A80F2"/>
<stop offset="0.85" stop-color="#1BABB0"/>
</linearGradient>
<clipPath id="clip0_30_2997">
<rect width="114.02" height="20.5935" fill="white" transform="translate(0.84375 0.203262)"/>
</clipPath>
</defs>
</svg>
