<svg width="145" height="49" viewBox="0 0 145 49" fill="none" xmlns="http://www.w3.org/2000/svg">
<g clip-path="url(#clip0_30_2763)">
<path d="M73.5939 36.1385C72.1188 36.9993 70.4437 37.4553 68.7372 37.4604C64.3197 37.4604 61.6589 35.0499 61.6589 30.3583V23.6191H58.4297V19.109H61.6589V13.8473H67.3164V19.109H72.5606V23.6191H67.3164V29.7881C67.3164 31.6284 68.1947 32.3801 69.6931 32.3801C70.5955 32.344 71.4784 32.1048 72.2764 31.6803L73.5939 36.1385Z" fill="black"/>
<path d="M81.446 13.8473C81.446 15.6617 80.0768 17.0096 78.1652 17.0096C76.2535 17.0096 74.9102 15.6617 74.9102 13.8473C74.9102 12.9778 75.2544 12.1438 75.8673 11.5288C76.4801 10.9139 77.3114 10.5685 78.1781 10.5685C79.0448 10.5685 79.876 10.9139 80.4888 11.5288C81.1017 12.1438 81.446 12.9778 81.446 13.8473ZM75.3235 36.9161V19.1091H80.981V36.9161H75.3235Z" fill="black"/>
<path d="M102.628 36.9161H96.1182L92.7342 31.7581L89.2982 36.9161H82.8398L88.6782 28.2848L82.8398 19.0573H89.2982L92.7342 24.6041L96.1182 19.0573H102.628L96.7644 28.2848L102.628 36.9161Z" fill="black"/>
<path d="M119.91 29.4509H106.89C107.355 31.5764 108.802 32.8983 110.714 32.8983C112.031 32.8983 113.555 32.5873 114.511 30.8506L119.523 31.8874C117.999 35.6458 114.795 37.4602 110.714 37.4602C105.598 37.4602 101.336 33.65 101.336 28.0253C101.336 22.4007 105.573 18.5905 110.739 18.5905C115.751 18.5905 119.781 22.2193 119.91 28.0253V29.4509ZM106.993 25.9777H114.304C113.762 24.0596 112.367 23.1783 110.739 23.1783C109.898 23.1778 109.079 23.4499 108.404 23.9544C107.729 24.4587 107.234 25.1685 106.993 25.9777Z" fill="black"/>
<path d="M121.539 36.916V11.3589H127.197V36.916H121.539Z" fill="black"/>
<path d="M47.6301 27.9477L38.1234 37.2012L27.2218 26.2111L19.5234 18.4869L28.7717 8.92249L37.8134 16.1282L38.7692 17.2946L47.6301 27.9477Z" fill="#A6A6A6"/>
<path d="M38.1486 33.0021C38.4247 33.2745 38.6439 33.5993 38.7936 33.9575C38.9432 34.3158 39.0203 34.7003 39.0203 35.0887C39.0203 35.4771 38.9432 35.8617 38.7936 36.2199C38.6439 36.5782 38.4247 36.9029 38.1486 37.1753C37.8772 37.4523 37.5536 37.6722 37.1965 37.8224C36.8395 37.9725 36.4562 38.0499 36.0691 38.0499C35.6819 38.0499 35.2987 37.9725 34.9417 37.8224C34.5846 37.6722 34.2609 37.4523 33.9895 37.1753L28.8487 32.0172L23.7078 37.1753C23.4361 37.4643 23.1093 37.6957 22.7468 37.8558C22.3842 38.0159 21.9935 38.1014 21.5975 38.1071C21.2015 38.1129 20.8083 38.0389 20.4413 37.8895C20.0743 37.7401 19.7409 37.5184 19.4609 37.2375C19.1809 36.9564 18.9598 36.6219 18.811 36.2537C18.6621 35.8855 18.5883 35.491 18.5941 35.0937C18.5999 34.6964 18.6851 34.3043 18.8445 33.9406C19.0041 33.5768 19.2347 33.2489 19.5228 32.9762L24.6637 27.8181L19.5228 22.6601C18.9943 22.0979 18.7049 21.3512 18.7162 20.5785C18.7274 19.8058 19.0383 19.0678 19.583 18.5214C20.1276 17.9749 20.8631 17.6629 21.6332 17.6517C22.4033 17.6404 23.1475 17.9307 23.7078 18.461L28.8487 23.6191L33.9895 18.461C34.2613 18.172 34.5881 17.9406 34.9506 17.7805C35.313 17.6205 35.7039 17.535 36.0999 17.5293C36.4959 17.5234 36.889 17.5974 37.256 17.7468C37.6229 17.8962 37.9564 18.1179 38.2364 18.3989C38.5165 18.6799 38.7374 19.0144 38.8864 19.3826C39.0352 19.7509 39.1089 20.1453 39.1032 20.5426C39.0974 20.94 39.0123 21.3321 38.8527 21.6958C38.6932 22.0595 38.4626 22.3875 38.1745 22.6601L33.0337 27.8181L38.1486 33.0021Z" fill="#797979"/>
<path d="M42.6459 18.461L47.6317 13.4325C48.2243 12.8379 48.5572 12.0314 48.5572 11.1904C48.5572 10.3495 48.2243 9.54298 47.6317 8.94835C47.039 8.35372 46.2352 8.01965 45.3971 8.01965C44.559 8.01965 43.7552 8.35372 43.1626 8.94835L38.1766 13.9768L33.165 8.94835C32.5723 8.35372 31.7686 8.01965 30.9304 8.01965C30.0923 8.01965 29.2885 8.35372 28.6959 8.94835C28.1032 9.54298 27.7702 10.3495 27.7702 11.1904C27.7702 12.0314 28.1032 12.8379 28.6959 13.4325L33.7075 18.461L28.6959 23.4895C28.4012 23.7805 28.1673 24.1276 28.0075 24.5103C27.8479 24.8929 27.7656 25.3037 27.7656 25.7186C27.7656 26.1335 27.8479 26.5442 28.0075 26.9269C28.1673 27.3096 28.4012 27.6566 28.6959 27.9477C28.9885 28.2435 29.3367 28.4782 29.7202 28.6384C30.1037 28.7986 30.515 28.881 30.9304 28.881C31.3458 28.881 31.7571 28.7986 32.1407 28.6384C32.5242 28.4782 32.8723 28.2435 33.165 27.9477L38.1766 22.9192L43.1626 27.9477C43.4526 28.2433 43.7985 28.4781 44.1799 28.6383C44.5613 28.7986 44.9707 28.8811 45.3842 28.8811C45.7977 28.8811 46.2071 28.7986 46.5885 28.6383C46.9699 28.4781 47.3157 28.2433 47.6059 27.9477C48.1893 27.3482 48.516 26.5435 48.516 25.7056C48.516 24.8677 48.1893 24.0631 47.6059 23.4636L42.6459 18.461Z" fill="black"/>
</g>
<defs>
<clipPath id="clip0_30_2763">
<rect width="144" height="48" fill="white" transform="translate(0.84375 0.796875)"/>
</clipPath>
</defs>
</svg>
