<svg width="145" height="49" viewBox="0 0 145 49" fill="none" xmlns="http://www.w3.org/2000/svg">
<g clip-path="url(#clip0_30_2670)">
<path d="M39.1372 27.1471H47.5344C47.2678 30.0042 46.3348 31.6369 44.2022 32.9974C41.803 34.6301 39.1372 35.1743 34.4721 35.1743C29.8069 35.1743 27.1411 34.494 24.8752 32.5893C22.6093 30.6845 21.543 27.9635 21.543 24.562C21.543 21.1606 22.7426 18.4396 24.8752 16.8069C27.2744 14.9021 30.3401 14.2218 34.7387 14.2218C39.8036 14.2218 43.4024 15.3103 45.6684 17.4871C46.868 18.7116 47.4011 20.0722 47.6677 22.3852H39.2704C38.6041 20.0722 37.2712 19.2559 34.6054 19.2559C31.1398 19.2559 29.4071 21.0245 29.4071 24.426C29.4071 28.0994 31.2731 30.1403 34.6054 30.1403C35.9383 30.1403 37.2712 29.7321 37.9376 29.1879C38.3375 28.7798 38.6041 28.3716 39.1372 27.1471ZM47.9343 34.6301L55.5318 14.766H65.1287L72.7261 34.6301H64.7288L63.9291 32.8614H56.1983L55.5318 34.6301H47.9343ZM57.5312 27.6913H62.5962L60.197 20.4803L57.5312 27.6913ZM75.2587 34.6301V14.766H82.4563V29.5961H96.0522V34.6301H75.2587ZM98.4507 34.6301L106.048 14.766H115.645L123.243 34.6301H115.246L114.445 32.8614H106.715L106.048 34.6301H98.4507ZM108.048 27.6913H113.113L110.714 20.4803L108.048 27.6913Z" fill="black"/>
</g>
<defs>
<clipPath id="clip0_30_2670">
<rect width="144" height="48" fill="white" transform="translate(0.84375 0.796875)"/>
</clipPath>
</defs>
</svg>
