<svg width="145" height="49" viewBox="0 0 145 49" fill="none" xmlns="http://www.w3.org/2000/svg">
<g clip-path="url(#clip0_30_2748)">
<mask id="mask0_30_2748" style="mask-type:luminance" maskUnits="userSpaceOnUse" x="8" y="10" width="130" height="32">
<path d="M137.643 10.3971H8.04297V41.8971H137.643V10.3971Z" fill="white"/>
</mask>
<g mask="url(#mask0_30_2748)">
<path d="M83.1876 20.0104C82.0483 20.0104 80.8224 20.2465 79.8754 21.0569C78.8847 21.7314 78.4153 22.3977 78.2155 22.6599C78.0158 22.922 77.8705 22.8071 77.9344 22.6599C77.9984 22.5126 78.8222 20.4 78.8222 20.4C78.8222 20.4 79.0294 20.0104 78.8222 19.7922C78.6152 19.5739 78.2155 19.7922 78.2155 19.7922C76.0551 20.7428 73.7466 21.3662 71.305 21.6469C71.305 21.6469 70.8413 21.6537 70.8413 22.176C70.8413 22.6982 71.305 22.6599 71.305 22.6599C72.2076 22.769 72.7849 22.9717 73.0659 23.2678C73.3322 23.5639 73.4654 24.0315 73.4654 24.6706V36.9989C73.4654 37.7314 73.3915 38.121 72.8735 38.3861C72.622 38.5262 72.4148 38.6042 72.2816 38.6508C72.1336 38.6821 71.808 38.7444 71.305 38.8536C71.305 38.8536 70.7506 38.8958 70.7869 39.3741C70.8232 39.8523 71.305 39.9289 71.305 39.9289H80.9829C80.9829 39.9289 81.4486 39.8715 81.4486 39.3932C81.4486 38.915 80.9829 38.8536 80.9829 38.8536C80.4056 38.7444 80.0505 38.6821 79.8878 38.6508C79.7249 38.6042 79.503 38.5262 79.2071 38.3861C78.6151 38.121 78.5559 37.7314 78.5559 36.9989V34.1623C79.5327 34.4738 80.5093 34.6297 81.471 34.6297C83.2469 34.6297 85.0522 33.9596 86.5024 32.7128C87.9526 31.4815 88.9142 29.393 88.9142 26.9147C88.9142 24.7795 88.3374 23.0963 87.1831 21.865C86.0141 20.6338 84.6822 20.0104 83.1876 20.0104ZM81.0716 33.1647C80.2429 33.1647 79.6213 32.7907 79.1921 32.0581C78.7631 31.3256 78.5559 30.406 78.5559 29.3307V25.6991C78.5559 25.0913 78.7927 24.4055 79.2663 23.6417C79.7249 22.8782 80.2724 22.504 80.8941 22.504C81.7079 22.504 82.3442 23.0183 82.8325 24.0471C83.3208 25.0757 83.5576 26.4005 83.5576 28.0214C83.5576 31.4503 82.7289 33.1647 81.0716 33.1647Z" fill="black"/>
<path d="M119.165 33.147C119.372 33.1937 119.713 33.2717 120.171 33.3808C120.171 33.3808 120.698 33.4363 120.698 34.0561C120.698 34.6757 120.171 34.7014 120.171 34.7014H110.909C110.909 34.7014 110.454 34.5868 110.454 34.0561C110.454 33.5252 110.909 33.4363 110.909 33.4363C111.556 33.3984 111.761 33.2086 111.761 33.2086C111.955 33.1619 112.162 33.0528 112.398 32.9125C112.872 32.6319 112.961 32.2422 112.961 31.5721V25.6268C112.961 24.9878 112.827 24.7799 112.56 24.4837C112.296 24.2048 111.987 23.7892 111.063 23.6947C111.063 23.6947 110.418 23.6295 110.418 22.7688C110.418 21.9083 111.05 21.7232 111.05 21.7232C113.277 21.3431 115.075 20.9306 116.031 20.5926C116.031 20.5926 116.686 20.2974 117.103 20.4359C117.519 20.5745 117.391 21.3344 117.391 21.3344C117.332 21.8691 117.235 22.7043 117.211 22.8454C117.175 23.0558 117.319 23.1848 117.443 22.9411C118.409 21.028 120.912 20.1443 122.569 20.1443C122.953 20.1443 124.325 20.0775 124.5 20.4359C124.677 20.7944 123.677 21.3341 122.987 22.4437C122.532 23.1751 122.028 24.2993 121.935 24.6245C121.843 24.9498 121.442 24.7295 121.442 24.7295C120.719 24.415 119.566 24.3569 118.918 24.9863C118.119 25.7629 117.938 26.8258 117.938 28.0259V31.5105C117.938 32.1962 118.07 32.5703 118.515 32.8509C118.737 32.9911 118.944 33.1003 119.165 33.147Z" fill="black"/>
<path d="M92.0613 20.6004C92.0613 18.1297 92.3448 16.0013 93.9612 14.0322C95.475 12.1885 97.0671 11.2282 99.2478 11.2281C99.7941 11.2281 101.185 11.3838 100.925 12.0699C100.816 12.3568 100.471 12.7777 100.343 12.969C100.059 13.3971 99.9192 13.4664 99.12 13.5538C96.5406 14.0619 96.9915 18.617 96.9915 20.4062V21.927C96.9915 22.5966 97.9392 22.5391 98.2848 22.5391C98.6295 22.5391 99.3801 22.7411 99.3801 23.4613C99.3801 24.1815 98.6844 24.3948 98.3757 24.3948C98.067 24.3948 96.9915 24.2608 96.9915 25.4853V27.1113V31.5274C96.9915 32.1741 97.0464 32.6785 97.4487 33.0418C97.7034 33.2712 98.1606 33.3093 98.4666 33.4061C98.4666 33.4061 98.9382 33.5248 98.9382 34.0555C98.9382 34.5864 98.3676 34.6629 98.3676 34.6629L89.7802 34.7012C89.7802 34.7012 89.2578 34.4716 89.2578 33.9409C89.2578 33.41 89.7802 33.3495 89.7802 33.3495C90.5986 33.2264 91.1838 33.0416 91.5195 32.8107C91.8561 32.5797 92.0316 32.1487 92.0316 31.502V25.0834C92.0316 24.0696 91.1829 24.1078 90.4746 23.9931C89.7658 23.8783 89.3482 23.5699 89.3482 22.9386C89.3482 22.3074 89.893 22.0169 90.129 22.0293C90.3098 22.0388 91.128 22.1565 91.3467 22.1727L91.3539 22.1733C91.5753 22.1899 92.0613 22.2262 92.0613 21.64V20.6004Z" fill="black"/>
<path d="M102.263 25.4878V31.2435C102.263 33.042 102.008 33.3478 101.033 33.4678C101.033 33.4678 100.52 33.4678 100.52 34.0558C100.52 34.6439 101.033 34.7012 101.033 34.7012H108.183C108.183 34.7012 108.765 34.6488 108.765 34.1324C108.765 33.6159 108.402 33.4362 108.402 33.4362L108.399 33.4355C108.072 33.3236 107.796 33.2293 107.53 33.027C107.263 32.8245 107.256 32.2265 107.256 31.5719C107.256 31.5719 107.258 26.1381 107.258 25.373C107.258 24.6077 107.458 24.1881 107.966 24.1104C108.475 24.0324 108.76 23.747 108.733 23.2226C108.706 22.6983 108.456 22.2355 107.893 22.3122C107.331 22.3886 106.15 22.7067 104.86 22.8025C103.57 22.8984 102.536 22.9548 101.845 22.9434C101.155 22.932 100.671 23.2507 100.671 23.7857C100.671 24.3207 100.988 24.5695 101.299 24.5886C101.609 24.6077 102.263 24.5886 102.263 25.4878Z" fill="black"/>
<path fill-rule="evenodd" clip-rule="evenodd" d="M52.5611 33.2659C52.5268 33.2445 52.4933 33.2235 52.4462 33.201C52.0911 33.0295 51.7951 32.5307 51.7951 31.6424V24.4885C52.5498 23.5378 53.3489 23.0547 54.1775 23.0547C54.7695 23.0547 55.1986 23.2416 55.4502 23.6156C55.7017 23.9897 55.8201 24.6911 55.8201 25.7353V31.6424C55.8201 32.3125 55.7165 32.7022 55.3023 32.9827C55.0801 33.1231 54.9027 33.2321 54.7695 33.2789C54.6215 33.3256 54.5649 33.3478 54.2742 33.4625C54.2742 33.4625 53.934 33.5826 53.934 34.0582C53.934 34.5338 54.3832 34.6037 54.3832 34.6037H62.3933C62.3933 34.6037 62.8292 34.5338 62.8292 34.0555C62.8292 33.5773 62.5263 33.5128 62.5263 33.5128C62.5263 33.5128 61.8666 33.2712 61.4138 32.9827C60.961 32.6942 60.881 32.3281 60.881 31.6424V24.3949C61.7098 23.5066 62.5236 23.0547 63.3375 23.0547C64.462 23.0547 65.0097 23.6937 65.0097 25.7353V31.6424C65.0097 32.1879 64.9785 32.4217 64.6989 32.8113C64.4387 33.1738 63.956 33.3594 63.7731 33.4296C63.7595 33.4349 63.7474 33.4394 63.7373 33.4434C63.7148 33.4523 63.6863 33.46 63.6539 33.4687C63.4778 33.5158 63.1924 33.5923 63.1924 34.0555C63.1924 34.6036 63.7373 34.6037 63.7373 34.6037H71.8019C71.8019 34.6037 72.3831 34.5912 72.3831 34.0747C72.3831 33.5582 71.8019 33.5008 71.8019 33.5008C71.3722 33.4002 71.1832 33.3175 71.0253 33.2485C70.9874 33.2319 70.9513 33.216 70.9139 33.201C70.4997 33.0295 70.0706 32.5307 70.0706 31.6424V25.1898C70.0706 23.6937 69.7746 22.4934 69.1826 21.6051C68.5758 20.7166 67.4513 20.2648 65.7939 20.2648C64.5657 20.2648 63.5743 20.5297 62.8491 21.0441C62.1092 21.574 61.399 22.3375 60.733 23.335H60.6738C60.1263 21.2935 58.7205 20.2648 56.4861 20.2648C55.1691 20.2648 54.2442 20.5329 53.3341 21.2467C52.8274 21.5708 52.4579 21.8303 52.2116 22.025C51.9652 22.2197 51.3017 22.796 51.226 22.8685C51.1503 22.9409 50.914 23.0547 50.996 22.8036C51.0779 22.5526 51.459 21.1429 51.459 21.1429C51.459 21.1429 51.6951 20.4499 51.3499 20.1672C51.0229 19.8994 50.4599 20.2648 50.4599 20.2648C49.0246 21.0595 47.4594 21.4493 44.6921 21.9013C44.6921 21.9013 44.2035 21.936 44.2035 22.4022C44.2035 22.8685 44.6921 22.9144 44.6921 22.9144C45.5207 22.8676 46.0684 22.9922 46.3199 23.2572C46.5715 23.5222 46.7047 23.9741 46.7047 24.6131V31.6424C46.7047 32.3125 46.5863 32.7022 46.1867 32.9827C45.9795 33.1231 45.1848 33.2815 43.8914 33.2815C42.5979 33.2815 41.9202 32.1787 41.9067 31.1592C41.8933 30.1397 41.9067 25.0029 41.9067 25.0029C41.9067 23.4909 41.4776 22.2754 40.6046 21.3869C39.7314 20.4986 38.518 20.0465 36.9642 20.0465C36.0023 20.0465 34.9074 20.218 33.694 20.5453C32.4805 20.8725 31.4003 21.3713 30.4384 22.0415C29.4764 22.7118 29.0029 23.4443 29.0029 24.2079C29.0029 24.6287 29.1509 25.0185 29.4469 25.3769C29.728 25.7353 30.1277 25.9223 30.6308 25.9223C31.2671 25.9223 31.7997 25.6575 32.2584 25.1432C32.7171 24.6287 33.1463 23.6937 33.5755 22.3532C33.753 21.8234 34.0194 21.5582 34.3598 21.5582C35.2033 21.5582 35.8396 21.7454 36.2391 22.1195C36.6387 22.5091 36.8458 23.2727 36.8458 24.4261V25.1274C36.8458 25.4279 35.958 25.9067 35.6028 26.0626C35.4252 26.1406 35.2033 26.2341 34.9221 26.312C34.7363 26.3635 34.6021 26.4082 34.5154 26.4371C34.471 26.452 34.4391 26.4627 34.419 26.4679C34.2858 26.5146 34.0638 26.5769 33.7826 26.6549C33.3001 26.8092 32.8777 26.9424 32.5125 27.0574C32.2508 27.1399 32.0185 27.2133 31.8146 27.2784C31.3262 27.4497 30.8082 27.6524 30.2608 27.9174C29.6985 28.1822 29.2693 28.4628 28.9881 28.7278C28.3962 29.2889 27.9375 30.1617 27.9375 31.2215C27.9375 32.3905 28.3371 33.2477 29.1361 33.7931C29.9205 34.3387 30.8527 34.6037 31.9329 34.6037C33.8123 34.6192 35.4548 33.7931 36.8458 32.1256C36.9051 32.7646 37.2306 33.3256 37.8373 33.84C38.4292 34.3543 39.0508 34.6037 39.7018 34.6037L42.7798 34.6044C43.0031 34.604 43.2144 34.604 43.5126 34.6042C43.6994 34.6042 43.9201 34.6044 44.1993 34.6044H44.6921L53.0392 34.6037C53.0392 34.6037 53.3843 34.5338 53.3843 34.0555C53.3843 33.5773 53.0392 33.4625 53.0392 33.4625C52.7342 33.374 52.6455 33.3184 52.5611 33.2659ZM33.4193 31.678C33.6857 32.13 34.0853 32.3482 34.6032 32.3482C35.2986 32.3482 36.0385 31.7872 36.8525 30.6806V27.1426L34.9139 27.6569C33.7152 28.0309 33.005 29.0752 33.005 30.1507C33.005 30.7273 33.1382 31.226 33.4193 31.678Z" fill="black"/>
<path d="M15.4976 28.5658C16.9759 31.2258 18.4523 32.124 21.6004 32.124C22.9627 32.124 24.1796 31.665 25.2876 31.1419C26.3955 30.6189 27.0676 31.2512 27.0493 31.9363C27.0312 32.6214 26.5954 33.0614 26.1231 33.4058C25.6509 33.7501 23.9644 34.7261 20.4687 34.7261C16.9729 34.7261 14.1451 33.7442 12.0299 31.7804C9.91465 29.84 8.72266 27.175 8.72266 23.8085C8.72266 20.3251 9.95911 17.6368 12.208 15.6964C14.4346 13.756 17.2232 12.544 20.8471 12.7975C23.6292 12.9921 24.87 13.6399 26.3397 14.8087C27.8092 15.9776 28.311 17.7432 28.3724 18.312C28.5024 19.5171 28.4676 20.3599 27.1405 20.6477C25.0461 21.1018 24.3846 19.48 24.1221 18.5717C23.8596 17.6633 22.2742 15.2653 20.2414 15.0682C15.9912 14.6559 14.6848 18.2555 14.3897 20.6477C14.0944 23.0397 14.0192 25.9058 15.4976 28.5658Z" fill="black"/>
<path d="M133.473 31.878C131.12 31.878 129.611 30.1947 129.152 27.3426H137.202C137.957 25.6437 137.736 24.0072 136.551 22.4174C135.367 20.8277 133.621 20.0328 131.327 20.0328C129.285 20.0328 127.524 20.6875 126.059 21.9812C124.581 23.2747 123.84 25.0671 123.84 27.3426C123.84 29.5714 124.535 31.3482 125.94 32.673C127.333 33.9977 129.152 34.6523 131.416 34.6523C132.897 34.6523 134.168 34.3562 135.219 33.7484C136.27 33.1561 136.965 32.3456 137.335 31.3326C137.335 31.3326 137.444 30.9481 137.202 30.6936C136.96 30.4389 136.625 30.6936 136.625 30.6936C136.373 31.0364 135.93 31.317 135.323 31.5352C134.715 31.7689 134.094 31.878 133.473 31.878ZM131.12 21.4824C131.846 21.4824 132.333 21.9343 132.585 22.8383C132.822 23.7579 132.807 24.7865 132.541 25.9399H129.018V25.6593C129.018 22.8539 129.819 21.4824 131.12 21.4824Z" fill="black"/>
<path fill-rule="evenodd" clip-rule="evenodd" d="M105.822 21.4103C107.339 20.9135 108.44 19.4253 108.44 17.6666C108.44 15.1183 105.457 11.1979 104.712 11.1979C103.966 11.1979 100.984 14.7263 100.984 17.6666C100.984 19.4255 102.085 20.9137 103.602 21.4104C103.195 21.0596 102.935 20.5199 102.935 19.9145C102.935 18.4786 104.357 16.7553 104.713 16.7553C105.068 16.7553 106.491 18.67 106.491 19.9145C106.491 20.5199 106.23 21.0595 105.822 21.4103Z" fill="black"/>
</g>
</g>
<defs>
<clipPath id="clip0_30_2748">
<rect width="144" height="48" fill="white" transform="translate(0.84375 0.796875)"/>
</clipPath>
</defs>
</svg>
