<svg width="145" height="49" viewBox="0 0 145 49" fill="none" xmlns="http://www.w3.org/2000/svg">
<g clip-path="url(#clip0_30_2739)">
<mask id="mask0_30_2739" style="mask-type:luminance" maskUnits="userSpaceOnUse" x="3" y="11" width="140" height="28">
<path d="M142.143 11.297H3.54297V38.297H142.143V11.297Z" fill="white"/>
</mask>
<g mask="url(#mask0_30_2739)">
<path d="M25.0131 11.297H6.6033C4.90578 11.297 3.54297 12.6318 3.54297 14.2945V35.324C3.54297 36.9867 4.90578 38.3215 6.6033 38.3215H28.0735C29.771 38.3215 31.1337 36.9867 31.1337 35.324V17.2921L25.0131 11.297ZM12.7479 14.2945H21.9527V18.8142H12.7479V14.2945ZM28.0973 35.3474H6.6033V14.2945H9.66363V21.8117H25.0131V15.5591L28.0973 18.5566V35.3474ZM9.68754 24.8326H25.037V27.8302H9.68754V24.8326ZM9.68754 29.3289H25.037V32.3265H9.68754V29.3289Z" fill="black"/>
<path d="M61.0456 14.482V35.8393C61.0456 36.1672 60.8783 36.3076 60.5674 36.3076H57.9375C57.6028 36.3076 57.4593 36.1438 57.4593 35.8393V14.482C57.4593 14.1541 57.6267 14.0137 57.9375 14.0137H60.5674C60.8783 13.9902 61.0456 14.1541 61.0456 14.482ZM46.007 13.1705H44.0226C40.6036 13.1705 38.7387 14.9504 38.7387 18.5334V20.3833H37.0172C36.6825 20.3833 36.5391 20.5473 36.5391 20.8517V23.0765C36.5391 23.4043 36.7065 23.5448 37.0172 23.5448H38.7387V35.8159C38.7387 36.1438 38.9061 36.2842 39.2168 36.2842H41.8468C42.1815 36.2842 42.325 36.1203 42.325 35.8159V23.5682H45.6483C45.983 23.5682 46.1265 23.4043 46.1265 23.0999V20.8752C46.1265 20.5473 45.9592 20.4068 45.6483 20.4068H42.325V18.5334C42.325 17.1282 42.9466 16.4959 43.9747 16.4959H45.9592C46.2939 16.4959 46.4374 16.3321 46.4374 16.0276V13.6389C46.5091 13.3345 46.3417 13.1705 46.007 13.1705ZM52.7254 20.3833H50.0954C49.7607 20.3833 49.6172 20.5473 49.6172 20.8517V35.8393C49.6172 36.1672 49.7845 36.3076 50.0954 36.3076H52.7254C53.0601 36.3076 53.2036 36.1438 53.2036 35.8393V20.8517C53.2036 20.5239 53.0362 20.3833 52.7254 20.3833ZM52.7254 13.9902H50.0954C49.7607 13.9902 49.6172 14.1541 49.6172 14.4586V16.9877C49.6172 17.3156 49.7845 17.4561 50.0954 17.4561H52.7254C53.0601 17.4561 53.2036 17.2922 53.2036 16.9877V14.482C53.2036 14.1541 53.0362 13.9902 52.7254 13.9902ZM110.394 36.0267C110.417 36.1438 110.465 36.3076 110.297 36.3076H107.309C106.95 36.3076 106.712 35.9799 106.712 35.5349V34.4576C105.97 35.5817 104.895 36.4716 103.221 36.4716H102.216C99.1798 36.4716 96.9802 34.6918 96.9802 31.507C96.9802 28.3221 98.7739 26.8936 102.145 26.8936H106.712V25.5822C106.712 23.8961 106.09 23.4511 104.393 23.4511H103.508C101.858 23.4511 100.614 23.8726 99.9214 24.1537C99.3958 24.341 99.0367 24.341 98.8459 23.8961L98.152 22.327C98.0323 21.9992 97.9846 21.7416 98.3194 21.5543C99.682 20.7346 101.714 20.2428 103.484 20.2428H104.368C108.409 20.2428 110.297 21.9992 110.297 25.7227V35.5349C110.322 35.6988 110.345 35.9096 110.394 36.0267ZM106.712 29.6569H102.216C101.236 29.6569 100.567 30.0785 100.567 31.4836C100.567 32.8183 101.261 33.3102 102.216 33.3102H103.938C105.707 33.3102 106.305 32.6077 106.712 31.7879V29.6569ZM119.742 26.6594C117.518 26.4018 117.279 25.7695 117.279 24.8328C117.279 23.9429 117.973 23.4277 119.192 23.4277H120.268C121.607 23.4277 121.989 24.0132 122.276 24.7391C122.444 25.1841 122.73 25.3246 123.113 25.3246H125.456C125.814 25.3246 125.911 25.1372 125.911 24.8093C125.911 21.9758 123.591 20.2897 120.315 20.2897H119.168C115.821 20.2897 113.645 21.6714 113.645 24.903C113.645 28.1815 115.199 29.4227 119.742 29.774C122.276 30.0082 122.611 30.3595 122.611 31.7177C122.611 32.7715 121.989 33.3102 120.602 33.3102H119.192C117.948 33.3102 117.566 32.8886 117.208 32.1861C117.111 31.9285 116.921 31.8348 116.418 31.8348H114.051C113.717 31.8348 113.526 32.0221 113.573 32.3032C113.908 35.0197 115.821 36.4482 119.312 36.4482H120.459C124.141 36.4482 126.245 35.0197 126.245 31.6943C126.197 28.0177 124.094 27.0809 119.742 26.6594ZM77.3754 26.0505V28.7905C77.3754 29.3993 77.0406 29.7506 76.3951 29.7506H68.1705V31.1557C68.1705 32.6311 69.0073 33.2867 70.2744 33.2867H71.8763C73.6934 33.2867 74.1238 32.9354 74.8171 32.1627C75.0084 31.9285 75.1996 31.9285 75.5344 32.1627L76.8733 33.0291C77.208 33.2633 77.2319 33.4741 77.0406 33.7317C75.8691 35.1367 74.7932 36.4716 71.9002 36.4716H70.2983C66.712 36.4716 64.4646 33.8488 64.4646 30.4765V26.0505C64.4646 22.6081 66.712 20.2428 70.2983 20.2428H71.9002C74.9367 20.2428 77.3754 22.4441 77.3754 26.0505ZM73.7651 25.5822C73.7651 24.06 73.024 23.4511 71.8763 23.4511H70.2744C69.0073 23.4511 68.1705 24.06 68.1705 25.6291V27.0106H73.7651V25.5822ZM132.677 29.7506V31.1557C132.677 32.6311 133.513 33.2867 134.78 33.2867H136.382C138.199 33.2867 138.629 32.9354 139.323 32.1627C139.514 31.9285 139.706 31.9285 140.041 32.1627L141.379 33.0291C141.714 33.2633 141.738 33.4741 141.546 33.7317C140.375 35.1367 139.299 36.4716 136.406 36.4716H134.804C131.218 36.4716 128.971 33.8488 128.971 30.4765V26.0505C128.971 22.6081 131.218 20.2428 134.804 20.2428H136.406C139.466 20.2428 141.905 22.4441 141.905 26.0505V28.7905C141.905 29.3993 141.571 29.7506 140.925 29.7506H132.677ZM132.677 26.9638H138.271V25.5588C138.271 24.0366 137.53 23.4277 136.382 23.4277H134.804C133.537 23.4277 132.7 24.0366 132.7 25.6056V26.9638H132.677ZM94.2073 26.0271V30.781C94.2073 34.1532 92.0554 36.495 88.4691 36.495H87.6562C86.0064 36.495 84.9783 35.7691 84.4046 34.7621V35.8393C84.4046 36.1672 84.1654 36.3076 83.9503 36.3076H81.2725C80.9378 36.3076 80.7943 36.1438 80.7943 35.8393V14.482C80.7943 14.1541 80.9617 14.0137 81.2725 14.0137H83.9503C84.1894 14.0137 84.4046 14.1775 84.4046 14.482V21.8353C85.0023 20.922 86.0064 20.2428 87.6562 20.2428H88.4691C92.0554 20.2428 94.2073 22.6081 94.2073 26.0271ZM90.5969 25.5822C90.5969 24.06 89.7601 23.4511 88.4451 23.4511H86.5324C85.2652 23.4511 84.4284 24.06 84.4284 25.5822V31.1557C84.4284 32.6311 85.2652 33.2867 86.5324 33.2867H88.4451C89.7362 33.2867 90.5969 32.6077 90.5969 31.1557V25.5822Z" fill="black"/>
</g>
</g>
<defs>
<clipPath id="clip0_30_2739">
<rect width="144" height="48" fill="white" transform="translate(0.84375 0.796875)"/>
</clipPath>
</defs>
</svg>
