<svg width="145" height="49" viewBox="0 0 145 49" fill="none" xmlns="http://www.w3.org/2000/svg">
<g clip-path="url(#clip0_30_2724)">
<mask id="mask0_30_2724" style="mask-type:luminance" maskUnits="userSpaceOnUse" x="9" y="13" width="127" height="23">
<path d="M135.844 13.0969H9.84375V35.5969H135.844V13.0969Z" fill="white"/>
</mask>
<g mask="url(#mask0_30_2724)">
<path d="M15.2526 18.5373C19.3167 17.0564 23.5491 18.9664 25.0722 23.1484C25.1731 23.426 25.3161 23.9477 25.375 24.2338C25.476 24.6377 25.2657 25.0247 24.9122 25.151L14.2849 29.0216C15.1685 31.0915 17.7601 32.4883 20.3012 31.5711C21.7064 31.0579 22.7666 29.964 23.364 29.1731C23.7342 28.727 23.953 28.4747 24.4074 28.7523L26.0398 29.8377C26.4268 30.0481 26.6541 30.3174 26.3342 30.8812C25.5601 32.2695 23.8772 33.986 21.2604 34.9369C16.54 36.6619 12.0636 34.087 10.4228 29.5937C8.81559 25.1762 10.5658 20.2454 15.2526 18.5373ZM21.1762 23.729C20.3769 21.8947 18.2313 20.8597 16.3127 21.5581C14.2008 22.3238 13.1153 24.4442 13.5949 26.4888L21.1762 23.729Z" fill="black"/>
<path d="M34.0101 18.5372C38.0742 17.0563 42.3066 18.9663 43.8297 23.1483C43.9306 23.4259 44.0737 23.9476 44.1326 24.2337C44.2335 24.6376 44.0232 25.0246 43.6698 25.1509L33.0425 29.0215C33.926 31.0914 36.5177 32.4882 39.0587 31.571C40.4639 31.0577 41.5242 29.9639 42.1215 29.173C42.4918 28.7269 42.7106 28.4746 43.1649 28.7522L44.7973 29.8376C45.1843 30.048 45.4116 30.3173 45.0918 30.8811C44.3177 32.2694 42.6348 33.9859 40.0179 34.9367C35.2892 36.6618 30.8127 34.0869 29.1719 29.5852C27.5732 25.1761 29.3233 20.2453 34.0101 18.5372ZM39.9338 23.7289C39.1345 21.8945 36.9888 20.8596 35.0703 21.558C32.9583 22.3237 31.8729 24.4441 32.3526 26.4887L39.9338 23.7289Z" fill="black"/>
<path d="M52.773 18.5372C56.8371 17.0563 61.0695 18.9663 62.5926 23.1483C62.6936 23.4259 62.8366 23.9476 62.8955 24.2337C62.9964 24.6376 62.7861 25.0246 62.4327 25.1509L51.8054 29.0215C52.6889 31.0914 55.2805 32.4882 57.8216 31.571C59.2268 31.0577 60.287 29.9639 60.8844 29.173C61.2547 28.7269 61.4735 28.4746 61.9278 28.7522L63.5602 29.8376C63.9473 30.048 64.1744 30.3173 63.8548 30.8811C63.0806 32.2694 61.3978 33.9859 58.7808 34.9367C54.052 36.6618 49.5755 34.0869 47.9348 29.5852C46.336 25.1761 48.0778 20.2453 52.773 18.5372ZM58.6882 23.7289C57.8889 21.8945 55.7432 20.8596 53.8248 21.558C51.7128 22.3237 50.6273 24.4441 51.107 26.4887L58.6882 23.7289Z" fill="black"/>
<path d="M78.7068 19.5008C78.4548 18.9623 78.7068 18.5416 79.2873 18.5416H81.5339C81.8286 18.5416 82.1988 18.7519 82.2831 19.038L85.0681 28.2265H85.1103L89.5614 18.5331C89.6457 18.3228 89.9315 18.1208 90.2684 18.1208H90.5204C90.8907 18.1208 91.1427 18.3313 91.2273 18.5331L95.6364 28.2686H95.6787L98.4219 19.038C98.6325 18.5416 99.2553 18.5416 99.7089 18.5416H101.333C101.914 18.5416 102.208 18.9539 101.955 19.5008L97.0917 35.1768C97.008 35.4292 96.7218 35.5891 96.3438 35.5891H96.1756C95.838 35.5891 95.5527 35.4208 95.4681 35.2189L90.3523 24.1119H90.3101L85.2363 35.2273C85.1525 35.4377 84.8999 35.5975 84.572 35.5975H84.3616C84.0246 35.5975 83.7389 35.4292 83.6546 35.1852L78.7068 19.5008Z" fill="black"/>
<path d="M109.382 18.5372C113.447 17.0563 117.679 18.9663 119.202 23.1483C119.303 23.4259 119.446 23.9476 119.505 24.2337C119.606 24.6376 119.396 25.0246 119.042 25.1509L108.415 29.0215C109.299 31.0914 111.89 32.4882 114.431 31.571C115.836 31.0577 116.896 29.9639 117.494 29.173C117.864 28.7269 118.083 28.4746 118.537 28.7522L120.17 29.8376C120.557 30.048 120.784 30.3173 120.465 30.8811C119.69 32.2694 118.008 33.9859 115.39 34.9367C110.661 36.6618 106.185 34.0869 104.544 29.5852C102.946 25.1761 104.687 20.2453 109.382 18.5372ZM115.298 23.7289C114.499 21.8945 112.352 20.8596 110.434 21.558C108.322 22.3237 107.237 24.4441 107.716 26.4887L115.298 23.7289Z" fill="black"/>
<path d="M123.527 13.9123C123.527 13.5 123.897 13.1213 124.318 13.1213H126.692C127.104 13.1213 127.482 13.4915 127.482 13.9123V34.3927C127.482 34.8051 127.112 35.1838 126.692 35.1838H124.318C123.906 35.1838 123.527 34.8135 123.527 34.3927V13.9123Z" fill="black"/>
<path d="M74.3206 18.5494H72.5955V13.9131C72.5955 13.7953 72.5617 13.6775 72.5032 13.5682C72.385 13.2989 72.124 13.0969 71.8214 13.0969L70.576 13.1221H69.432C69.0196 13.1221 68.641 13.4924 68.641 13.9131V18.5494H66.9158C66.4613 18.5494 66.125 18.886 66.125 19.3404V21.2084C66.125 21.6206 66.4613 21.9994 66.9158 21.9994H68.641V34.3937C68.641 34.806 69.0112 35.1846 69.432 35.1846H71.8045C72.2168 35.1846 72.5955 34.8144 72.5955 34.3937V21.9994H74.3206C74.7751 21.9994 75.1115 21.6291 75.1115 21.2084V19.3319C75.1115 18.8775 74.783 18.5494 74.3206 18.5494Z" fill="black"/>
<path d="M131.363 13.9123C131.363 13.5 131.734 13.1213 132.154 13.1213H134.528C134.94 13.1213 135.319 13.4915 135.319 13.9123V34.3927C135.319 34.8051 134.949 35.1838 134.528 35.1838H132.154C131.742 35.1838 131.363 34.8135 131.363 34.3927V13.9123Z" fill="black"/>
</g>
</g>
<defs>
<clipPath id="clip0_30_2724">
<rect width="144" height="48" fill="white" transform="translate(0.84375 0.796875)"/>
</clipPath>
</defs>
</svg>
