<svg width="145" height="49" viewBox="0 0 145 49" fill="none" xmlns="http://www.w3.org/2000/svg">
<g clip-path="url(#clip0_30_2714)">
<mask id="mask0_30_2714" style="mask-type:luminance" maskUnits="userSpaceOnUse" x="4" y="12" width="137" height="26">
<path d="M140.345 12.1969H4.44531V37.3969H140.345V12.1969Z" fill="white"/>
</mask>
<g mask="url(#mask0_30_2714)">
<path fill-rule="evenodd" clip-rule="evenodd" d="M30.282 12.1969L10.903 17.9317L4.44531 37.6911L24.4681 31.9551L30.282 12.1969ZM17.3631 28.1308C18.2197 28.1308 19.0412 27.795 19.647 27.1972C20.2527 26.5994 20.5931 25.7888 20.5931 24.9434C20.5931 24.0981 20.2527 23.2873 19.647 22.6896C19.0412 22.0919 18.2197 21.7561 17.3631 21.7561C16.5066 21.7561 15.6851 22.0918 15.0795 22.6895C14.4738 23.2871 14.1336 24.0976 14.1336 24.9428C14.1336 25.788 14.4738 26.5986 15.0795 27.1962C15.6851 27.7938 16.5066 28.1296 17.3631 28.1296V28.1308Z" fill="black"/>
<path d="M114.43 26.6182V35.6092H118.933V25.6462C118.933 21.6193 117.702 18.4951 112.811 18.4951C110.349 18.4951 108.625 19.5712 107.711 21.3417H107.605L107.641 18.8075H103.137V35.6092H107.641V27.2431C107.641 24.4312 108.59 22.1401 111.369 22.1401C113.972 22.1401 114.43 24.1188 114.43 26.6182ZM94.8803 33.6664L94.9514 35.6104H99.2777V25.9945C99.2777 23.148 98.645 21.6205 97.4138 20.4402C96.1475 19.26 94.4231 18.4962 91.3982 18.4962C88.4429 18.4962 86.0508 19.503 84.7491 20.2666L86.1211 23.1132C86.8599 22.5578 88.7243 21.7246 90.9761 21.7246C93.3332 21.7246 94.775 22.7314 94.775 24.8836V25.335L90.6944 25.6126C87.1765 25.8556 83.6938 27.2095 83.6938 30.7156C83.6938 34.2218 86.3674 35.9922 89.6742 35.9922C92.2073 35.9922 94.1774 34.8814 94.8803 33.6664ZM91.7501 28.2162L94.8101 28.0426V31.1322C94.2125 31.9654 92.9102 32.9721 91.1516 32.9721C89.2872 32.9721 88.1966 32.0001 88.1966 30.5768C88.1966 29.1535 89.3576 28.3551 91.7501 28.2162ZM61.6236 28.2822H74.1473C74.1473 28.2822 74.2177 26.8936 74.2177 26.0257C74.2177 21.5476 71.0516 18.1456 65.8099 18.1456C60.9552 18.1456 56.98 21.7559 56.98 27.1366C56.98 32.5521 60.7793 35.6416 65.9154 35.6416C70.0666 35.6416 72.6347 33.9059 73.5844 32.9339L71.8256 30.5386C71.0164 31.2329 68.976 32.2396 66.6893 32.2396C64.1213 32.2396 62.0457 30.9552 61.6236 28.2822ZM65.7747 21.4435C68.9409 21.4435 69.6444 23.5611 69.7148 25.4009H61.5532C61.694 23.2833 63.1011 21.4435 65.7747 21.4435ZM46.0146 13.8966V31.8601H54.4928V35.6092H41.4766V13.8966H46.0146ZM80.673 13.8966V35.6092H76.2053V13.8966H80.673Z" fill="black"/>
<path fill-rule="evenodd" clip-rule="evenodd" d="M140.232 13.8967V35.6093H135.975L135.94 32.9711H135.835C134.462 35.1233 132.352 35.9912 129.994 35.9912C124.999 35.9912 121.938 32.1726 121.938 27.1738C121.938 22.4179 125.14 18.4952 130.311 18.4952C132.598 18.4952 134.533 19.3283 135.729 21.1334H135.799C135.764 20.3698 135.764 19.4672 135.764 18.2869V13.8967H140.232ZM126.512 27.1738C126.512 30.0898 128.341 32.3809 131.261 32.3809C133.97 32.3809 135.87 30.3328 135.87 27.1738C135.87 24.3619 134.005 21.8972 131.12 21.8972C128.201 21.8972 126.512 24.3619 126.512 27.1738Z" fill="black"/>
</g>
</g>
<defs>
<clipPath id="clip0_30_2714">
<rect width="144" height="48" fill="white" transform="translate(0.84375 0.796875)"/>
</clipPath>
</defs>
</svg>
