<svg width="145" height="49" viewBox="0 0 145 49" fill="none" xmlns="http://www.w3.org/2000/svg">
<g clip-path="url(#clip0_30_2709)">
<path d="M44.0575 37.43V24.7794C44.0575 21.8941 42.6092 20.991 40.3362 20.991C39.4482 21.0116 38.5771 21.2433 37.7915 21.6678C37.0015 22.0958 36.318 22.704 35.7938 23.4453V37.43H30.543V8.726H35.7938V19.3555C36.6697 18.327 37.7526 17.5047 38.968 16.9449C40.1777 16.3884 41.4917 16.1092 42.8179 16.1272C47.1967 16.1272 49.305 18.6232 49.305 22.6715V37.4324H44.0575V37.43ZM62.8737 37.7846C56.7938 37.7846 52.3753 33.413 52.3753 26.6204C52.3753 19.829 56.6809 15.4597 62.8737 15.4597C68.9164 15.4597 73.1836 19.7147 73.1836 26.1515C73.1892 26.8584 73.1384 27.5629 73.0324 28.2606H57.739C58.003 31.4599 60.1191 33.257 62.7744 33.257C65.0406 33.257 66.287 32.0858 66.9661 30.6548H72.6693C71.5356 34.6234 68.0614 37.7846 62.8748 37.7846H62.8737ZM57.7752 24.5946H67.7207C67.6451 21.744 65.4545 19.948 62.735 19.948C60.2048 19.948 58.2037 21.6274 57.7887 24.5934H57.7752V24.5946ZM75.9133 8.726H81.03V37.43H75.9133V8.726ZM84.441 10.142C84.441 8.35408 85.8003 6.95422 87.6886 6.95422C89.5757 6.95422 90.9222 8.34022 90.9222 10.142C90.9222 11.9438 89.5261 13.3298 87.6761 13.3298C85.8262 13.3298 84.441 11.9173 84.441 10.142ZM85.0073 15.8963H90.2931V37.43H85.0073V15.8963Z" fill="black"/>
<path d="M110.413 26.0904C110.322 24.4553 109.629 22.9161 108.475 21.7822C107.33 20.6584 105.806 20.0304 104.22 20.0289C102.635 20.0306 101.111 20.6587 99.9662 21.7822C98.8124 22.9161 98.1194 24.4553 98.0285 26.0904H93.3125C93.3089 23.0917 94.4573 20.2119 96.5093 18.0724C97.5164 17.0222 98.717 16.1876 100.043 15.6173C101.368 15.0471 102.79 14.7524 104.228 14.7506C105.665 14.7525 107.088 15.0472 108.414 15.6174C109.738 16.1877 110.94 17.0222 111.947 18.0724C113.999 20.2117 115.147 23.0915 115.145 26.0904H110.413ZM104.458 38.1394C102.408 38.138 100.402 37.5326 98.6783 36.3953C96.9395 35.2468 95.5526 33.6195 94.6769 31.7002L98.9186 29.6339C99.4091 30.6941 100.176 31.5956 101.134 32.2396C102.083 32.8773 103.188 33.2295 104.324 33.256C105.458 33.2809 106.577 32.9791 107.552 32.3851C108.536 31.7855 109.339 30.9198 109.873 29.8834L114.121 31.9532C113.216 33.8036 111.832 35.3638 110.119 36.4635C108.422 37.5523 106.461 38.1329 104.458 38.1394Z" fill="black"/>
</g>
<defs>
<clipPath id="clip0_30_2709">
<rect width="144" height="48" fill="white" transform="translate(0.84375 0.796875)"/>
</clipPath>
</defs>
</svg>
