<svg width="145" height="49" viewBox="0 0 145 49" fill="none" xmlns="http://www.w3.org/2000/svg">
<g clip-path="url(#clip0_30_2691)">
<g clip-path="url(#clip1_30_2691)">
<mask id="mask0_30_2691" style="mask-type:luminance" maskUnits="userSpaceOnUse" x="0" y="13" width="145" height="27">
<path d="M144.844 13.9969H0.84375V39.1969H144.844V13.9969Z" fill="white"/>
</mask>
<g mask="url(#mask0_30_2691)">
<path d="M113.278 13.9969H110.008V33.2942H113.278V13.9969Z" fill="black"/>
<path d="M84.2381 33.3006V27.2685L90.4217 33.3072H94.7896L87.5601 26.2271L94.4341 20.0354H90.1651L84.2381 25.4386V14.0033H81.0195V33.3006H84.2381Z" fill="black"/>
<path fill-rule="evenodd" clip-rule="evenodd" d="M70.3338 33.5768C73.1956 33.5768 74.4465 31.7135 74.7025 31.1879L74.7059 33.2839H77.9467V20.0121H74.6766V22.0084C74.3979 21.4594 73.0951 19.726 70.3598 19.726C67.012 19.726 64.2539 22.3278 64.2539 26.6531C64.2539 30.9782 67.0119 33.5768 70.3338 33.5768ZM67.5758 26.6563C67.5758 24.394 69.0051 22.6638 71.2024 22.6638V22.6771C73.322 22.6771 74.7286 24.394 74.7286 26.6563C74.7286 28.9187 73.322 30.6489 71.2024 30.6489C69.0051 30.6489 67.5758 28.9187 67.5758 26.6563Z" fill="black"/>
<path d="M42.987 33.3016H39.7461V20.0297H42.987V22.2588C43.4135 21.4909 44.0311 20.8531 44.7765 20.4106C45.5218 19.9681 46.3685 19.7368 47.2294 19.7403C49.4495 19.7403 51.1186 20.8948 51.9289 22.7047C52.3617 21.7951 53.0397 21.0323 53.8826 20.5068C54.7253 19.9813 55.6974 19.7152 56.6832 19.7403C59.9533 19.7403 62.0469 22.179 62.0469 25.5627V33.3016H58.7769V26.2214C58.7769 24.1221 57.6263 22.7313 55.7109 22.7313C53.7955 22.7313 52.5153 24.1486 52.5153 26.2214V33.3016H49.2421V26.2214C49.2421 24.1221 48.0948 22.7313 46.1761 22.7313C44.2575 22.7313 42.9838 24.1486 42.9838 26.2214L42.987 33.3016Z" fill="black"/>
<path fill-rule="evenodd" clip-rule="evenodd" d="M107.711 27.2277V26.8618C107.711 22.5366 104.894 19.6952 100.933 19.6952C96.973 19.6952 94.1641 22.5632 94.1641 26.6822C94.1641 30.6747 96.9991 33.669 101.189 33.669C105.584 33.669 107.347 30.8078 107.552 29.4436H104.33C104.106 29.813 103.258 30.8876 101.189 30.8876C100.709 30.9018 100.229 30.8182 99.781 30.6417C99.331 30.4652 98.9197 30.1994 98.5705 29.8593C98.2222 29.5191 97.9414 29.1115 97.7461 28.66C97.5508 28.2084 97.4455 27.7217 97.4338 27.2277H107.711ZM104.288 24.9188H97.5409V24.9055C97.9495 23.2552 99.1771 22.2837 100.94 22.297C102.599 22.297 103.802 23.2552 104.288 24.9188Z" fill="black"/>
<path fill-rule="evenodd" clip-rule="evenodd" d="M129.492 26.6669C129.492 30.706 126.475 33.6539 122.541 33.6539C118.557 33.6539 115.566 30.716 115.566 26.6669C115.566 22.6178 118.557 19.6801 122.541 19.6801C126.475 19.69 129.492 22.6245 129.492 26.6669ZM126.196 26.6669C126.196 24.4078 124.712 22.6744 122.541 22.6744C120.369 22.6744 118.862 24.4578 118.862 26.6669C118.862 28.8761 120.369 30.6595 122.541 30.6595C124.712 30.6595 126.196 28.9227 126.196 26.6669Z" fill="black"/>
<path fill-rule="evenodd" clip-rule="evenodd" d="M141.6 31.1255C141.318 31.7011 139.964 33.5377 137.153 33.5377C133.78 33.5377 130.996 30.9425 130.996 26.6405C130.996 22.3386 133.78 19.7401 137.153 19.7401C139.964 19.7401 141.293 21.5501 141.575 22.0492V20.0296H144.844V33.0054C144.844 36.6652 142.575 39.197 137.893 39.197C132.911 39.197 131.301 36.023 131.086 35.0515H134.844C134.853 35.0649 134.865 35.0804 134.879 35.0979C135.123 35.4236 135.871 36.4156 137.883 36.4156C140.235 36.4156 141.591 35.158 141.591 32.9554L141.6 31.1255ZM137.996 22.678C135.747 22.678 134.318 24.4081 134.318 26.6405C134.318 28.873 135.747 30.5999 137.996 30.5999C140.193 30.5999 141.626 28.8431 141.626 26.6405C141.626 24.438 140.193 22.678 137.996 22.678Z" fill="black"/>
<path d="M6.02923 14.7014H0.84375V20.0248H6.02923V14.7014Z" fill="black"/>
<path d="M11.2266 14.7015V20.0249H16.4121V33.3333H21.5975V25.3483C21.5975 22.5246 20.5049 19.8165 18.56 17.8199C16.615 15.8232 13.9771 14.7015 11.2266 14.7015Z" fill="black"/>
<path d="M21.5938 14.7015V20.0249H26.7792V33.3333H31.9646V25.3483C31.9646 22.5246 30.872 19.8165 28.9271 17.8199C26.9822 15.8232 24.3443 14.7015 21.5938 14.7015Z" fill="black"/>
<path d="M11.2128 20.0262H6.02734V33.3347H11.2128V20.0262Z" fill="black"/>
</g>
</g>
</g>
<defs>
<clipPath id="clip0_30_2691">
<rect width="144" height="48" fill="white" transform="translate(0.84375 0.796875)"/>
</clipPath>
<clipPath id="clip1_30_2691">
<rect width="144" height="43.2" fill="white" transform="translate(0.84375 3.1969)"/>
</clipPath>
</defs>
</svg>
