<svg width="145" height="49" viewBox="0 0 145 49" fill="none" xmlns="http://www.w3.org/2000/svg">
<g clip-path="url(#clip0_30_2682)">
<g clip-path="url(#clip1_30_2682)">
<mask id="mask0_30_2682" style="mask-type:luminance" maskUnits="userSpaceOnUse" x="0" y="14" width="145" height="21">
<path d="M144.844 14.8969H0.84375V34.6969H144.844V14.8969Z" fill="white"/>
</mask>
<g mask="url(#mask0_30_2682)">
<path d="M19.7642 20.8645L15.8766 24.7355L20.6045 34.65C18.2443 34.65 16.0044 34.6614 13.763 34.6275C13.5976 34.6275 13.3812 34.3356 13.2819 34.1275C12.1861 31.8372 11.1082 29.5371 10.0243 27.2404C9.90108 26.9807 9.77027 26.7259 9.54328 26.2726C8.76458 29.1759 8.03999 31.8759 7.29887 34.6178H0.84375C1.25114 33.0259 1.65102 31.4629 2.04638 29.8968C2.77698 27.0549 3.51359 24.213 4.23066 21.3662C4.33438 20.9517 4.46216 20.7403 4.92067 20.742C9.73119 20.7629 14.5327 20.7565 19.3387 20.7598C19.3928 20.7662 19.4409 20.7855 19.7642 20.8645ZM124.741 20.971H141.552C141.101 22.6211 140.664 24.234 140.168 25.8226C140.114 25.9953 139.689 26.1194 139.435 26.121C136.729 26.1436 134.023 26.1645 131.317 26.121C130.648 26.1081 130.428 26.371 130.273 27.0081C129.708 29.3194 129.096 31.6146 128.5 33.9162C128.439 34.1452 128.367 34.371 128.295 34.6113H121.408C122.523 30.0291 123.631 25.5049 124.741 20.971ZM103.081 34.6275C104.204 30.0404 105.309 25.5307 106.423 20.9871H123.243C122.783 22.6097 122.353 24.2033 121.861 25.7742C121.805 25.9565 121.41 26.1178 121.168 26.1194C118.437 26.1436 115.707 26.1613 112.977 26.1194C112.346 26.1081 112.114 26.3307 111.962 26.9549C111.388 29.3178 110.773 31.6694 110.143 34.0146C110.079 34.2533 109.802 34.6017 109.62 34.6049C107.47 34.6436 105.322 34.6275 103.081 34.6275ZM83.8117 20.9565H90.3556C89.5768 23.8597 88.8132 26.6984 88.0074 29.6952H97.8296C96.5219 31.4291 95.3689 32.9694 94.1962 34.492C94.108 34.6081 93.8848 34.6533 93.7255 34.6533H80.4308C80.3649 34.639 80.3008 34.6163 80.24 34.5856L83.8117 20.9565ZM29.3807 34.5742L32.948 20.9646H39.4948C38.7175 23.8533 37.9509 26.7017 37.1497 29.6855H46.9481C46.4415 30.3727 46.0702 30.884 45.6928 31.3888C44.9863 32.3307 44.2918 33.2823 43.5582 34.1985C43.3868 34.413 43.0832 34.6323 42.8396 34.6339C38.4335 34.6581 34.0258 34.6485 29.6197 34.6436C29.5384 34.6276 29.4584 34.6044 29.3807 34.5742ZM71.7388 21.0081C71.4381 21.8985 71.118 22.7388 70.8624 23.6001C70.4776 24.9017 70.0566 26.1985 69.7936 27.5307C69.4929 29.0211 70.0942 29.7258 71.5073 29.7323C74.2854 29.7452 77.0695 29.7323 79.8942 29.7323C79.9016 29.8973 79.893 30.0627 79.8686 30.2259C79.5064 31.5372 79.153 32.8533 78.7457 34.1484C78.6898 34.2737 78.6069 34.3829 78.5039 34.467C78.4009 34.5512 78.2807 34.6078 78.1534 34.6323C74.822 34.6614 71.4878 34.7355 68.1595 34.6323C65.2341 34.5355 62.5838 31.8259 63.5263 28.1001C64.0766 25.9242 64.5501 23.7274 65.0537 21.5387C65.1349 21.1856 65.204 20.9033 65.655 20.9097C67.5581 20.9388 69.4628 20.9227 71.3675 20.9274C71.4932 20.9427 71.6175 20.9697 71.7388 21.0081Z" fill="black"/>
<path d="M48.9083 28.8485H43.967C44.6555 26.1614 45.3199 23.584 45.9829 20.9807H52.468C51.727 23.884 50.9978 26.7324 50.2417 29.6905H59.9394C58.9893 30.9501 58.0678 32.0114 57.3251 33.1985C56.5826 34.3856 55.7001 34.7372 54.3908 34.6904C51.2639 34.576 48.1326 34.6534 44.8148 34.6534C46.1978 32.6937 47.5042 30.8388 48.9083 28.8485ZM27.9013 34.6324H21.4191C21.5274 34.163 21.6191 33.734 21.7198 33.3098C22.6985 29.4291 23.6921 25.5534 24.6362 21.6711C24.779 21.0824 25.0195 20.9308 25.5561 20.9404C27.4549 20.9744 29.3549 20.9534 31.3694 20.9534C30.2059 25.542 29.0573 30.0743 27.9013 34.6324ZM124.85 14.9501C124.443 16.3727 124.082 17.7324 123.647 19.063C123.58 19.2679 123.156 19.4485 122.896 19.4517C119.438 19.4759 115.98 19.4678 112.53 19.4678H106.798C107.171 17.9179 107.523 16.4501 107.884 14.9517L124.85 14.9501ZM143.18 14.8969C142.756 16.3905 142.402 17.7308 141.977 19.0437C141.908 19.2518 141.492 19.4469 141.238 19.4501C138.731 19.4808 136.226 19.4678 133.721 19.4678H125.122C125.479 17.984 125.789 16.584 126.174 15.2066C126.221 15.0453 126.654 14.9114 126.91 14.9098C131.795 14.8937 136.681 14.8894 141.566 14.8969H143.18ZM101.534 34.6259H95.6994L99.996 28.8098H96.5085C97.179 26.113 97.8162 23.5502 98.4525 20.9888H104.916C103.783 25.5679 102.661 30.0888 101.534 34.6259ZM83.7484 14.9615C83.3786 16.4791 83.0209 17.9437 82.6541 19.4469H65.6188C65.7541 17.5356 67.9099 15.2953 69.9348 14.9792C70.2067 14.9309 70.4814 14.9033 70.757 14.8969H83.2223C83.3591 14.8969 83.5019 14.9324 83.7484 14.9615ZM24.8617 14.9114C23.638 16.3227 22.3857 17.7808 21.1125 19.2147C20.9458 19.3706 20.7322 19.4565 20.5112 19.4566C17.7857 19.4792 15.0587 19.4808 12.3332 19.4824C12.2942 19.4824 12.2566 19.4356 12.1453 19.3615C13.566 17.9195 14.973 16.4856 16.3891 15.0743C16.5524 14.9562 16.7474 14.8995 16.9439 14.913C19.5701 14.9034 22.2054 14.913 24.8241 14.913C24.8947 14.8969 24.9624 14.9372 24.8617 14.9114ZM25.215 19.4937C25.5848 18.0421 25.9245 16.6727 26.2943 15.3098C26.3379 15.1486 26.5424 14.9228 26.6747 14.9211C28.7191 14.8969 30.7576 14.8969 32.8922 14.8969C32.5119 16.376 32.1737 17.7437 31.7978 19.0985C31.756 19.1949 31.6932 19.279 31.6147 19.3438C31.5362 19.4087 31.4444 19.4524 31.3468 19.4711C29.3204 19.5034 27.3 19.4937 25.215 19.4937ZM4.62891 19.4937C5.00172 18.0324 5.34748 16.6373 5.7263 15.2518C5.76531 15.1634 5.82372 15.0866 5.89652 15.0279C5.96932 14.9692 6.05433 14.9303 6.14422 14.9147C8.16614 14.8969 10.1866 14.8969 12.3032 14.8969C11.9213 16.3905 11.5756 17.7808 11.1967 19.1614C11.156 19.2479 11.0962 19.3224 11.0226 19.3786C10.949 19.4348 10.8638 19.471 10.7744 19.484C8.74942 19.5018 6.72299 19.4937 4.62891 19.4937ZM54.0661 14.9049L52.8829 19.4647H46.3918C46.7571 18.0292 47.1058 16.6356 47.4786 15.2502C47.5087 15.1705 47.556 15.0997 47.6167 15.0435C47.6773 14.9875 47.7495 14.9477 47.8274 14.9275C49.8719 14.8969 51.9148 14.9049 54.0661 14.9049ZM84.1529 19.4937C84.5302 18.026 84.8775 16.6308 85.2593 15.2453C85.299 15.1578 85.3579 15.0821 85.431 15.0245C85.504 14.9669 85.589 14.9291 85.6787 14.9147C87.6976 14.8969 89.718 14.8969 91.8303 14.8969C91.4487 16.3937 91.1022 17.784 90.7237 19.163C90.683 19.2499 90.6231 19.3247 90.5492 19.3809C90.4753 19.4372 90.3896 19.4731 90.2998 19.4857C88.2749 19.5018 86.25 19.4937 84.1529 19.4937ZM39.7878 19.4711H33.2891C33.6634 18.0195 34.0137 16.6098 34.4 15.213C34.446 15.1288 34.5102 15.0576 34.587 15.0054C34.664 14.9533 34.7513 14.9216 34.842 14.913C36.8384 14.8969 38.8347 14.8969 40.9559 14.8969C40.553 16.4776 40.1741 17.9614 39.7878 19.4711ZM105.32 19.4727H98.8215C99.0987 18.384 99.3588 17.3453 99.6243 16.3082C99.9852 14.8969 99.987 14.8969 101.322 14.8969H106.478C106.072 16.4727 105.703 17.9518 105.32 19.4727Z" fill="black"/>
</g>
</g>
</g>
<defs>
<clipPath id="clip0_30_2682">
<rect width="144" height="48" fill="white" transform="translate(0.84375 0.796875)"/>
</clipPath>
<clipPath id="clip1_30_2682">
<rect width="144" height="43.2" fill="white" transform="translate(0.84375 3.1969)"/>
</clipPath>
</defs>
</svg>
