<svg width="145" height="49" viewBox="0 0 145 49" fill="none" xmlns="http://www.w3.org/2000/svg">
<g clip-path="url(#clip0_30_2674)">
<mask id="mask0_30_2674" style="mask-type:luminance" maskUnits="userSpaceOnUse" x="8" y="4" width="128" height="42">
<path d="M135.845 4.0968H8.94531V45.4968H135.845V4.0968Z" fill="white"/>
</mask>
<g mask="url(#mask0_30_2674)">
<path d="M40.5951 20.0217C39.9134 20.6896 39.0734 21.1077 38.1933 21.2766C39.4196 24.5101 38.6243 28.2103 36.1068 30.6766C34.3693 32.3789 32.0312 33.2798 29.6641 33.2798C28.5986 33.2798 27.5277 33.0946 26.5027 32.72C26.3321 33.5867 25.9043 34.4147 25.2192 35.0859C23.3945 36.8735 20.4361 36.8735 18.6113 35.0859C16.7867 33.2983 16.7867 30.3997 18.6113 28.612C19.2925 27.9447 20.1319 27.5267 21.0111 27.3576C19.761 24.1139 20.5514 20.3916 23.0801 17.9141C25.6066 15.4386 29.4016 14.6634 32.7104 15.8836C32.885 15.0278 33.3101 14.2113 33.9872 13.5477C35.8119 11.7601 38.7704 11.7601 40.5951 13.5477C42.4198 15.3355 42.4198 18.234 40.5951 20.0217ZM29.5935 4.0968C18.1899 4.0968 8.94537 13.1539 8.94537 24.3264C8.94537 35.4988 18.1899 44.5559 29.5935 44.5559C40.9972 44.5559 50.2416 35.4988 50.2416 24.3264C50.2416 13.1539 40.9972 4.0968 29.5935 4.0968ZM32.033 26.6854C30.6981 27.9933 28.5337 27.9933 27.1988 26.6854C25.8639 25.3775 25.8639 23.257 27.1988 21.9491C28.5337 20.6413 30.6981 20.6413 32.033 21.9491C33.368 23.257 33.368 25.3775 32.033 26.6854ZM35.082 14.6204C34.3793 15.3089 34.0571 16.2943 34.2202 17.2565C34.2772 17.5714 34.2427 17.8954 34.0998 18.1977C33.9154 18.5878 33.5872 18.8678 33.2055 19.0055C32.8231 19.1433 32.387 19.1381 31.9883 18.9572C29.75 17.9416 27.0741 18.4083 25.3293 20.1178C23.5848 21.8269 23.1087 24.4482 24.1444 26.6408C24.3317 27.0372 24.3337 27.4706 24.1869 27.849C24.0443 28.2161 23.7617 28.5314 23.3691 28.7095C23.153 28.8075 22.9257 28.854 22.702 28.854C22.5957 28.854 22.4912 28.8399 22.3881 28.8195C21.3666 28.6825 20.4114 28.9933 19.7184 29.6726C19.1356 30.2435 18.8146 31.0028 18.8146 31.8104C18.8146 32.6178 19.1356 33.377 19.7184 33.9482C20.9217 35.1266 22.8793 35.1266 24.0824 33.9482C24.785 33.2593 25.1073 32.274 24.9442 31.3123C24.9353 31.2595 24.9373 31.2081 24.9442 31.1579C24.9255 30.9034 24.9699 30.6408 25.0872 30.3928C25.2708 30.0042 25.5974 29.7249 25.9772 29.5869C26.3607 29.4475 26.7984 29.4519 27.1987 29.6335C29.4371 30.6492 32.1129 30.182 33.8576 28.4729C35.6022 26.7637 36.0783 24.1422 35.0424 21.9497C34.8596 21.5629 34.8531 21.1403 34.9896 20.7684C35.1286 20.3898 35.4157 20.0635 35.8178 19.8811C36.1002 19.7529 36.4012 19.7145 36.6888 19.7511C36.7334 19.746 36.7786 19.7444 36.8252 19.7509C37.7981 19.8867 38.7527 19.5752 39.4459 18.8959C40.649 17.7171 40.649 15.7991 39.4459 14.6204C38.2428 13.4415 36.2852 13.4415 35.082 14.6204ZM90.1709 30.4707C90.2864 30.4612 90.3732 30.4565 90.431 30.4565V33.429C89.7567 33.561 89.227 33.6271 88.8417 33.6271C87.551 33.6271 86.5446 33.3062 85.8223 32.6646C85.0999 32.023 84.7387 31.0226 84.7387 29.6639V12.9902H88.3794V29.0694C88.3794 29.5412 88.4757 29.8951 88.6683 30.131C88.8609 30.3669 89.2462 30.4848 89.8241 30.4848C89.9397 30.4848 90.0553 30.4801 90.1709 30.4707ZM92.1719 33.4572H95.8412V18.7368H92.1719V33.4572ZM107.869 18.7368H111.481V33.4572H108.475L108.215 31.5322C107.849 32.2494 107.281 32.8109 106.511 33.2167C105.74 33.6224 104.873 33.8252 103.91 33.8252C102.311 33.8252 101.045 33.344 100.111 32.3816C99.1766 31.419 98.7095 30.1451 98.7095 28.5599V18.7368H102.321V27.7673C102.321 29.6356 103.188 30.5698 104.921 30.5698C105.653 30.5698 106.27 30.3244 106.771 29.8337C107.503 29.1732 107.869 28.0693 107.869 26.5217V18.7368ZM135.845 23.5211V33.4572H132.262V24.3137C132.262 23.3511 132.094 22.634 131.757 22.1621C131.42 21.6904 130.818 21.4545 129.951 21.4545C129.007 21.4545 128.28 21.8555 127.77 22.6576C127.259 23.4596 127.004 24.3797 127.004 25.4176V33.4572H123.421V24.3137C123.421 23.3511 123.253 22.634 122.915 22.1621C122.578 21.6904 121.976 21.4545 121.11 21.4545C120.166 21.4545 119.434 21.8555 118.914 22.6576C118.393 23.4596 118.133 24.3797 118.133 25.4176V33.4572H114.55V18.7368H117.556L117.844 20.6901C118.807 19.1426 120.233 18.3688 122.12 18.3688C124.181 18.3688 125.617 19.1709 126.426 20.7751C127.37 19.1709 128.882 18.3688 130.962 18.3688C132.523 18.3688 133.727 18.8358 134.574 19.7701C135.421 20.7043 135.845 21.9546 135.845 23.5211ZM92.0558 16.6986H95.9276V13.0469H92.0558V16.6986ZM65.9719 19.841C66.8772 20.8222 67.3299 22.0866 67.3299 23.6342V33.4572H63.7182V24.3702C63.7182 23.4644 63.5304 22.7803 63.1547 22.3178C62.7791 21.8555 62.1387 21.6243 61.2333 21.6243C60.2316 21.6243 59.4659 22.0442 58.9362 22.884C58.4064 23.7238 58.1416 24.6628 58.1416 25.7007V33.4572H54.5298V13.0185H58.1416V20.2938C58.5654 19.6899 59.1529 19.2181 59.9041 18.8783C60.6555 18.5387 61.4356 18.3688 62.2446 18.3688C63.8241 18.3688 65.0665 18.8595 65.9719 19.841ZM72.7694 24.625C72.7886 23.7191 73.0486 22.9549 73.5495 22.332C74.1273 21.5771 74.9652 21.1997 76.0632 21.1997C77.0457 21.1997 77.8065 21.4827 78.3459 22.0489C78.943 22.6905 79.2512 23.5493 79.2705 24.625H72.7694ZM76.0921 18.3688C74.1273 18.3688 72.5284 18.9916 71.2957 20.2372C69.8509 21.6904 69.1286 23.6531 69.1286 26.1255C69.1286 28.5977 69.8992 30.5603 71.4401 32.0135C72.7308 33.2213 74.3102 33.8252 76.1787 33.8252C78.3555 33.8252 80.041 33.1364 81.2352 31.7588C81.9865 30.8718 82.4103 29.9659 82.5066 29.0411H79.0393C78.9045 29.5317 78.6637 29.947 78.317 30.2866C77.8354 30.7585 77.1035 30.9944 76.121 30.9944C75.2928 30.9944 74.5512 30.6924 73.8962 30.0884C73.1256 29.3714 72.7597 28.409 72.7983 27.2011H82.8533C82.8533 26.9934 82.863 26.6632 82.8822 26.2103C82.94 24.1721 82.5066 22.4641 81.582 21.0865C80.3492 19.2747 78.5193 18.3688 76.0921 18.3688Z" fill="black"/>
</g>
</g>
<defs>
<clipPath id="clip0_30_2674">
<rect width="144" height="48" fill="white" transform="translate(0.84375 0.796875)"/>
</clipPath>
</defs>
</svg>
